STARTFONT 2.1
FONT -baekmuk-batang-bold-r-normal--14-140-75-75-m-140-ksx1001.1997-0
SIZE 14 75 75
FONTBOUNDINGBOX 14 14 0 -3
STARTPROPERTIES 18
FOUNDRY "baekmuk"
FAMILY_NAME "batang"
WEIGHT_NAME "bold"
SLANT "r"
SETWIDTH_NAME "normal"
ADD_STYLE_NAME ""
PIXEL_SIZE 14
POINT_SIZE 140
RESOLUTION_X 75
RESOLUTION_Y 75
SPACING "m"
AVERAGE_WIDTH 140
CHARSET_REGISTRY "ksx1001.1997"
CHARSET_ENCODING "0"
DEFAULT_CHAR 8481
FONT_ASCENT 11
FONT_DESCENT 3
COPYRIGHT "(c)Hwan Design Inc. and Mizi Research Inc."
ENDPROPERTIES
CHARS 8928
STARTCHAR C020440
ENCODING 8480
SWIDTH 1400 0
DWIDTH 14 0
BBX 0 0 0 0
BITMAP
ENDCHAR
STARTCHAR C020441
ENCODING 8481
SWIDTH 1400 0
DWIDTH 14 0
BBX 0 0 0 0
BITMAP
ENDCHAR
STARTCHAR C020442
ENCODING 8482
SWIDTH 1400 0
DWIDTH 14 0
BBX 3 2 10 9
BITMAP
E0
60
ENDCHAR
STARTCHAR C020443
ENCODING 8483
SWIDTH 1400 0
DWIDTH 14 0
BBX 5 4 9 7
BITMAP
70
D8
F0
60
ENDCHAR
STARTCHAR C020444
ENCODING 8484
SWIDTH 1400 0
DWIDTH 14 0
BBX 3 2 6 3
BITMAP
E0
E0
ENDCHAR
STARTCHAR C020445
ENCODING 8485
SWIDTH 1400 0
DWIDTH 14 0
BBX 9 2 3 3
BITMAP
E180
E180
ENDCHAR
STARTCHAR C020446
ENCODING 8486
SWIDTH 1400 0
DWIDTH 14 0
BBX 11 2 2 3
BITMAP
CC60
CC60
ENDCHAR
STARTCHAR C020447
ENCODING 8487
SWIDTH 1400 0
DWIDTH 14 0
BBX 7 2 4 3
BITMAP
C6
C6
ENDCHAR
STARTCHAR C020450
ENCODING 8488
SWIDTH 1400 0
DWIDTH 14 0
BBX 5 4 5 2
BITMAP
78
F0
F0
C0
ENDCHAR
STARTCHAR C020451
ENCODING 8489
SWIDTH 1400 0
DWIDTH 14 0
BBX 7 1 4 4
BITMAP
FE
ENDCHAR
STARTCHAR C020452
ENCODING 8490
SWIDTH 1400 0
DWIDTH 14 0
BBX 15 12 0 -2
BITMAP
0002
0002
0002
0002
0002
FFFE
0002
0002
0002
0002
0002
0002
ENDCHAR
STARTCHAR C020453
ENCODING 8491
SWIDTH 1400 0
DWIDTH 14 0
BBX 5 12 5 -2
BITMAP
D8
D8
D8
D8
D8
D8
D8
D8
D8
D8
D8
D8
ENDCHAR
STARTCHAR C020454
ENCODING 8492
SWIDTH 1400 0
DWIDTH 14 0
BBX 13 12 1 -2
BITMAP
C000
6000
3000
1800
0C00
0600
0300
0180
00C0
0060
0030
0018
ENDCHAR
STARTCHAR C020455
ENCODING 8493
SWIDTH 1400 0
DWIDTH 14 0
BBX 9 2 3 3
BITMAP
F980
0F00
ENDCHAR
STARTCHAR C020456
ENCODING 8494
SWIDTH 1400 0
DWIDTH 14 0
BBX 2 3 10 8
BITMAP
C0
00
C0
ENDCHAR
STARTCHAR C020457
ENCODING 8495
SWIDTH 1400 0
DWIDTH 14 0
BBX 2 3 3 8
BITMAP
C0
C0
C0
ENDCHAR
STARTCHAR C020460
ENCODING 8496
SWIDTH 1400 0
DWIDTH 14 0
BBX 6 3 8 8
BITMAP
0C
D8
FC
ENDCHAR
STARTCHAR C020461
ENCODING 8497
SWIDTH 1400 0
DWIDTH 14 0
BBX 6 3 1 8
BITMAP
1C
EC
60
ENDCHAR
STARTCHAR C020462
ENCODING 8498
SWIDTH 1400 0
DWIDTH 14 0
BBX 4 13 10 -2
BITMAP
30
E0
00
00
00
00
00
00
00
00
00
00
E0
ENDCHAR
STARTCHAR C020463
ENCODING 8499
SWIDTH 1400 0
DWIDTH 14 0
BBX 4 13 1 -2
BITMAP
C0
70
30
30
30
30
30
30
30
30
30
30
E0
ENDCHAR
STARTCHAR C020464
ENCODING 8500
SWIDTH 1400 0
DWIDTH 14 0
BBX 6 12 8 -2
BITMAP
0C
18
18
30
60
C0
C0
60
30
18
18
0C
ENDCHAR
STARTCHAR C020465
ENCODING 8501
SWIDTH 1400 0
DWIDTH 14 0
BBX 6 12 1 -2
BITMAP
C0
C0
60
30
18
18
0C
18
30
60
C0
C0
ENDCHAR
STARTCHAR C020466
ENCODING 8502
SWIDTH 1400 0
DWIDTH 14 0
BBX 6 12 8 -2
BITMAP
18
38
38
70
F0
E0
E0
F0
70
38
3C
1C
ENDCHAR
STARTCHAR C020467
ENCODING 8503
SWIDTH 1400 0
DWIDTH 14 0
BBX 6 12 1 -2
BITMAP
60
E0
F0
78
38
3C
3C
38
70
70
E0
60
ENDCHAR
STARTCHAR C020470
ENCODING 8504
SWIDTH 1400 0
DWIDTH 14 0
BBX 5 1 9 10
BITMAP
F8
ENDCHAR
STARTCHAR C020471
ENCODING 8505
SWIDTH 1400 0
DWIDTH 14 0
BBX 6 7 1 -3
BITMAP
0C
0C
0C
0C
0C
0C
FC
ENDCHAR
STARTCHAR C020472
ENCODING 8506
SWIDTH 1400 0
DWIDTH 14 0
BBX 5 7 9 4
BITMAP
F8
F8
C0
C0
C0
C0
C0
ENDCHAR
STARTCHAR C020473
ENCODING 8507
SWIDTH 1400 0
DWIDTH 14 0
BBX 6 7 1 -3
BITMAP
1C
1C
1C
1C
1C
FC
FC
ENDCHAR
STARTCHAR C020474
ENCODING 8508
SWIDTH 1400 0
DWIDTH 14 0
BBX 5 13 9 -2
BITMAP
F8
F0
F0
F0
E0
E0
E0
E0
E0
E0
F0
F0
F8
ENDCHAR
STARTCHAR C020475
ENCODING 8509
SWIDTH 1400 0
DWIDTH 14 0
BBX 5 13 1 -2
BITMAP
F8
78
78
38
38
38
38
38
38
38
78
78
78
ENDCHAR
STARTCHAR C020476
ENCODING 8510
SWIDTH 1400 0
DWIDTH 14 0
BBX 9 9 3 0
BITMAP
0C00
0C00
0C00
0C00
7F80
0C00
0C00
0C00
FF80
ENDCHAR
STARTCHAR C020477
ENCODING 8511
SWIDTH 1400 0
DWIDTH 14 0
BBX 9 8 3 0
BITMAP
C180
6300
3600
1C00
1C00
3600
6300
C180
ENDCHAR
STARTCHAR C020500
ENCODING 8512
SWIDTH 1400 0
DWIDTH 14 0
BBX 11 8 2 0
BITMAP
0600
0600
0000
FFE0
0000
0000
0600
0600
ENDCHAR
STARTCHAR C020501
ENCODING 8513
SWIDTH 1400 0
DWIDTH 14 0
BBX 11 6 2 1
BITMAP
0C00
FFE0
0C00
0600
FFE0
0600
ENDCHAR
STARTCHAR C020502
ENCODING 8514
SWIDTH 1400 0
DWIDTH 14 0
BBX 11 8 2 0
BITMAP
00C0
0780
1C00
F000
3800
0F00
01E0
FFE0
ENDCHAR
STARTCHAR C020503
ENCODING 8515
SWIDTH 1400 0
DWIDTH 14 0
BBX 10 8 2 0
BITMAP
6000
3C00
0700
01C0
0380
1E00
7000
FFC0
ENDCHAR
STARTCHAR C020504
ENCODING 8516
SWIDTH 1400 0
DWIDTH 14 0
BBX 13 6 1 1
BITMAP
38F0
EF98
C618
C718
6DB0
38E0
ENDCHAR
STARTCHAR C020505
ENCODING 8517
SWIDTH 1400 0
DWIDTH 14 0
BBX 9 7 3 1
BITMAP
1C00
1C00
0000
0000
0000
E380
E380
ENDCHAR
STARTCHAR C020506
ENCODING 8518
SWIDTH 1400 0
DWIDTH 14 0
BBX 5 4 1 7
BITMAP
70
D8
F0
60
ENDCHAR
STARTCHAR C020507
ENCODING 8519
SWIDTH 1400 0
DWIDTH 14 0
BBX 4 3 1 8
BITMAP
70
60
C0
ENDCHAR
STARTCHAR C020510
ENCODING 8520
SWIDTH 1400 0
DWIDTH 14 0
BBX 6 3 1 8
BITMAP
7C
78
D8
ENDCHAR
STARTCHAR C020511
ENCODING 8521
SWIDTH 1400 0
DWIDTH 14 0
BBX 10 11 2 0
BITMAP
F000
FF00
FDC0
38C0
3000
3000
3000
3000
3000
1980
0F00
ENDCHAR
STARTCHAR C020512
ENCODING 8522
SWIDTH 1400 0
DWIDTH 14 0
BBX 11 11 2 0
BITMAP
1F00
1B00
1F00
0E00
1F00
1F00
3380
3F80
71C0
60C0
F3E0
ENDCHAR
STARTCHAR C020513
ENCODING 8523
SWIDTH 1400 0
DWIDTH 14 0
BBX 13 12 1 -2
BITMAP
07E8
1CF8
1870
30C0
3180
3300
3600
3C30
1C60
3FC0
6000
C000
ENDCHAR
STARTCHAR C020514
ENCODING 8524
SWIDTH 1400 0
DWIDTH 14 0
BBX 9 10 3 0
BITMAP
0F00
1980
1980
1800
1800
FF00
1800
F800
3800
EF80
ENDCHAR
STARTCHAR C020515
ENCODING 8525
SWIDTH 1400 0
DWIDTH 14 0
BBX 10 10 3 0
BITMAP
0180
7300
3300
FFC0
1E00
0C00
FFC0
0C00
0C00
3F00
ENDCHAR
STARTCHAR C020516
ENCODING 8526
SWIDTH 1400 0
DWIDTH 14 0
BBX 7 12 4 -2
BITMAP
18
3C
7E
DE
18
18
18
7C
C6
C6
C6
7C
ENDCHAR
STARTCHAR C020517
ENCODING 8527
SWIDTH 1400 0
DWIDTH 14 0
BBX 10 12 3 -2
BITMAP
1E00
3700
6300
6300
3E00
0C00
FFC0
0C00
0C00
0C00
0C00
0C00
ENDCHAR
STARTCHAR C020520
ENCODING 8528
SWIDTH 1400 0
DWIDTH 14 0
BBX 10 7 2 0
BITMAP
0300
0600
0C00
1800
3000
6000
FFC0
ENDCHAR
STARTCHAR C020521
ENCODING 8529
SWIDTH 1400 0
DWIDTH 14 0
BBX 10 8 3 0
BITMAP
0C00
0C00
0C00
0C00
0C00
0C00
0C00
FFC0
ENDCHAR
STARTCHAR C020522
ENCODING 8530
SWIDTH 1400 0
DWIDTH 14 0
BBX 9 2 3 9
BITMAP
3E00
E380
ENDCHAR
STARTCHAR C020523
ENCODING 8531
SWIDTH 1400 0
DWIDTH 14 0
BBX 7 11 4 -1
BITMAP
18
7C
06
06
36
7E
CC
CC
CC
78
30
ENDCHAR
STARTCHAR C020524
ENCODING 8532
SWIDTH 1400 0
DWIDTH 14 0
BBX 12 8 1 0
BITMAP
FFF0
6060
3060
30C0
1980
0D80
0F00
0600
ENDCHAR
STARTCHAR C020525
ENCODING 8533
SWIDTH 1400 0
DWIDTH 14 0
BBX 11 6 2 1
BITMAP
FFE0
0000
FFE0
0000
0000
FFE0
ENDCHAR
STARTCHAR C020526
ENCODING 8534
SWIDTH 1400 0
DWIDTH 14 0
BBX 11 8 2 0
BITMAP
3000
3000
FFE0
0000
0000
FFE0
0180
0180
ENDCHAR
STARTCHAR C020527
ENCODING 8535
SWIDTH 1400 0
DWIDTH 14 0
BBX 6 12 4 -2
BITMAP
78
DC
E0
70
78
CC
EC
7C
38
1C
EC
78
ENDCHAR
STARTCHAR C020530
ENCODING 8536
SWIDTH 1400 0
DWIDTH 14 0
BBX 9 8 3 0
BITMAP
1C00
7F80
3600
FF80
FF80
3600
7F00
DD80
ENDCHAR
STARTCHAR C020531
ENCODING 8537
SWIDTH 1400 0
DWIDTH 14 0
BBX 11 10 2 -1
BITMAP
0E00
0E00
1E00
FBE0
C0C0
6180
3180
3180
7F80
70C0
ENDCHAR
STARTCHAR C020532
ENCODING 8538
SWIDTH 1400 0
DWIDTH 14 0
BBX 11 10 2 -1
BITMAP
0600
0E00
0E00
FFE0
7FC0
3F80
3F80
3F80
3180
60C0
ENDCHAR
STARTCHAR C020533
ENCODING 8539
SWIDTH 1400 0
DWIDTH 14 0
BBX 13 12 1 -2
BITMAP
0F80
38E0
7030
6030
C018
C018
C018
C018
6038
6030
38E0
0FC0
ENDCHAR
STARTCHAR C020534
ENCODING 8540
SWIDTH 1400 0
DWIDTH 14 0
BBX 13 11 1 -1
BITMAP
0FC0
3FE0
7FF0
7FF8
FFF8
FFF8
FFF8
7FF8
7FF0
3FE0
0FC0
ENDCHAR
STARTCHAR C020535
ENCODING 8541
SWIDTH 1400 0
DWIDTH 14 0
BBX 13 12 1 -2
BITMAP
0F80
38E0
7FB0
78F0
F078
F078
F078
F078
78F8
6FB0
38E0
0FC0
ENDCHAR
STARTCHAR C020536
ENCODING 8542
SWIDTH 1400 0
DWIDTH 14 0
BBX 13 12 1 -2
BITMAP
0700
0D80
18C0
3060
6030
C018
C018
6030
3060
18C0
0D80
0700
ENDCHAR
STARTCHAR C020537
ENCODING 8543
SWIDTH 1400 0
DWIDTH 14 0
BBX 13 12 1 -2
BITMAP
0700
0F80
1FC0
3FE0
7FF0
FFF8
FFF8
7FF0
3FE0
1FC0
0F80
0600
ENDCHAR
STARTCHAR C020540
ENCODING 8544
SWIDTH 1400 0
DWIDTH 14 0
BBX 12 11 2 -1
BITMAP
FFF0
0030
0030
0030
0030
0030
0030
0030
0030
0030
FFF0
ENDCHAR
STARTCHAR C020541
ENCODING 8545
SWIDTH 1400 0
DWIDTH 14 0
BBX 12 10 2 -1
BITMAP
FFF0
FFF0
FFF0
FFF0
FFF0
FFF0
FFF0
FFF0
FFF0
FFF0
ENDCHAR
STARTCHAR C020542
ENCODING 8546
SWIDTH 1400 0
DWIDTH 14 0
BBX 12 8 1 0
BITMAP
0F00
0D80
1980
30C0
3060
6060
C030
FFF0
ENDCHAR
STARTCHAR C020543
ENCODING 8547
SWIDTH 1400 0
DWIDTH 14 0
BBX 12 8 2 0
BITMAP
0E00
1F00
1F00
3F80
7FC0
7FC0
FFE0
FFF0
ENDCHAR
STARTCHAR C020544
ENCODING 8548
SWIDTH 1400 0
DWIDTH 14 0
BBX 12 9 1 -1
BITMAP
7FF0
C030
6060
3060
30C0
1980
0D80
0F00
0600
ENDCHAR
STARTCHAR C020545
ENCODING 8549
SWIDTH 1400 0
DWIDTH 14 0
BBX 11 8 2 0
BITMAP
FFE0
FFE0
7FC0
7FC0
3F80
1F00
1F00
0E00
ENDCHAR
STARTCHAR C020546
ENCODING 8550
SWIDTH 1400 0
DWIDTH 14 0
BBX 12 5 2 2
BITMAP
0180
00C0
0070
FFE0
00C0
ENDCHAR
STARTCHAR C020547
ENCODING 8551
SWIDTH 1400 0
DWIDTH 14 0
BBX 12 4 1 2
BITMAP
7000
E000
7FF0
3000
ENDCHAR
STARTCHAR C020550
ENCODING 8552
SWIDTH 1400 0
DWIDTH 14 0
BBX 5 12 6 -2
BITMAP
60
F0
F0
78
60
60
60
60
60
60
60
60
ENDCHAR
STARTCHAR C020551
ENCODING 8553
SWIDTH 1400 0
DWIDTH 14 0
BBX 4 12 5 -2
BITMAP
60
60
60
60
60
60
60
60
60
F0
F0
60
ENDCHAR
STARTCHAR C020552
ENCODING 8554
SWIDTH 1400 0
DWIDTH 14 0
BBX 12 4 2 2
BITMAP
60C0
C070
FFE0
60C0
ENDCHAR
STARTCHAR C020553
ENCODING 8555
SWIDTH 1400 0
DWIDTH 14 0
BBX 11 4 2 2
BITMAP
FFE0
0000
0000
FFE0
ENDCHAR
STARTCHAR C020554
ENCODING 8556
SWIDTH 1400 0
DWIDTH 14 0
BBX 11 9 2 0
BITMAP
0360
06C0
1F80
7600
DC00
CC00
7600
1F80
06E0
ENDCHAR
STARTCHAR C020555
ENCODING 8557
SWIDTH 1400 0
DWIDTH 14 0
BBX 11 9 2 0
BITMAP
D800
6C00
3F00
0DC0
0760
06E0
0D80
3F00
EC00
ENDCHAR
STARTCHAR C020556
ENCODING 8558
SWIDTH 1400 0
DWIDTH 14 0
BBX 13 12 1 -1
BITMAP
01F8
0300
0300
0300
0600
0600
0C00
6C00
EC00
3800
3800
3800
ENDCHAR
STARTCHAR C020557
ENCODING 8559
SWIDTH 1400 0
DWIDTH 14 0
BBX 13 6 1 1
BITMAP
38F0
63B8
C318
C618
EC30
79E0
ENDCHAR
STARTCHAR C020560
ENCODING 8560
SWIDTH 1400 0
DWIDTH 14 0
BBX 11 6 2 1
BITMAP
79E0
CF00
C600
C600
6F00
39C0
ENDCHAR
STARTCHAR C020561
ENCODING 8561
SWIDTH 1400 0
DWIDTH 14 0
BBX 9 7 3 1
BITMAP
C180
C180
0000
0000
0000
1C00
1C00
ENDCHAR
STARTCHAR C020562
ENCODING 8562
SWIDTH 1400 0
DWIDTH 14 0
BBX 3 12 6 -2
BITMAP
E0
00
00
00
C0
C0
C0
E0
60
60
60
C0
ENDCHAR
STARTCHAR C020563
ENCODING 8563
SWIDTH 1400 0
DWIDTH 14 0
BBX 7 12 4 -2
BITMAP
7E
D8
D8
D8
FC
6C
6C
7E
36
36
36
FC
ENDCHAR
STARTCHAR C020564
ENCODING 8564
SWIDTH 1400 0
DWIDTH 14 0
BBX 11 7 2 0
BITMAP
3FC0
E000
C000
FFE0
C000
6000
3FE0
ENDCHAR
STARTCHAR C020565
ENCODING 8565
SWIDTH 1400 0
DWIDTH 14 0
BBX 11 7 2 0
BITMAP
7FC0
0060
0060
FFE0
0060
0060
FFC0
ENDCHAR
STARTCHAR C020566
ENCODING 8566
SWIDTH 1400 0
DWIDTH 14 0
BBX 9 8 3 0
BITMAP
7F80
C000
0000
0000
C000
7F80
0000
FF80
ENDCHAR
STARTCHAR C020567
ENCODING 8567
SWIDTH 1400 0
DWIDTH 14 0
BBX 10 8 3 0
BITMAP
FF80
00C0
00C0
00C0
0180
FF00
0000
FF80
ENDCHAR
STARTCHAR C020570
ENCODING 8568
SWIDTH 1400 0
DWIDTH 14 0
BBX 12 7 2 0
BITMAP
3FE0
6000
C000
C000
C000
6000
3FF0
ENDCHAR
STARTCHAR C020571
ENCODING 8569
SWIDTH 1400 0
DWIDTH 14 0
BBX 11 7 2 0
BITMAP
7FC0
0060
0060
0060
0060
00C0
FF80
ENDCHAR
STARTCHAR C020572
ENCODING 8570
SWIDTH 1400 0
DWIDTH 14 0
BBX 9 10 3 -1
BITMAP
C180
C180
C180
C180
C180
C180
C180
C380
6300
3E00
ENDCHAR
STARTCHAR C020573
ENCODING 8571
SWIDTH 1400 0
DWIDTH 14 0
BBX 9 10 3 -1
BITMAP
3E00
6300
C180
C180
C180
C180
C180
C180
C180
C180
ENDCHAR
STARTCHAR C020574
ENCODING 8572
SWIDTH 1400 0
DWIDTH 14 0
BBX 9 8 3 0
BITMAP
1C00
3C00
3600
6600
6300
C300
C180
0180
ENDCHAR
STARTCHAR C020575
ENCODING 8573
SWIDTH 1400 0
DWIDTH 14 0
BBX 11 8 2 0
BITMAP
C060
60C0
60C0
3180
3300
1B00
1E00
0E00
ENDCHAR
STARTCHAR C020576
ENCODING 8574
SWIDTH 1400 0
DWIDTH 14 0
BBX 10 6 3 0
BITMAP
FFC0
00C0
00C0
00C0
00C0
00C0
ENDCHAR
STARTCHAR C020577
ENCODING 8575
SWIDTH 1400 0
DWIDTH 14 0
BBX 0 0 0 0
BITMAP
ENDCHAR
STARTCHAR C021040
ENCODING 8736
SWIDTH 1400 0
DWIDTH 14 0
BBX 1 1 14 5
BITMAP
80
ENDCHAR
STARTCHAR C021041
ENCODING 8737
SWIDTH 1400 0
DWIDTH 14 0
BBX 13 6 1 1
BITMAP
0060
FFF0
0018
0018
7FF0
0060
ENDCHAR
STARTCHAR C021042
ENCODING 8738
SWIDTH 1400 0
DWIDTH 14 0
BBX 13 7 1 1
BITMAP
00C0
3060
3FF0
E018
6030
3FE0
18C0
ENDCHAR
STARTCHAR C021043
ENCODING 8739
SWIDTH 1400 0
DWIDTH 14 0
BBX 11 10 2 0
BITMAP
C060
C0C0
60C0
3F80
3180
3300
1B00
1B00
0E00
0E00
ENDCHAR
STARTCHAR C021044
ENCODING 8740
SWIDTH 1400 0
DWIDTH 14 0
BBX 8 9 4 0
BITMAP
7F
03
03
03
FF
03
03
03
FF
ENDCHAR
STARTCHAR C021045
ENCODING 8741
SWIDTH 1400 0
DWIDTH 14 0
BBX 4 2 5 9
BITMAP
70
C0
ENDCHAR
STARTCHAR C021046
ENCODING 8742
SWIDTH 1400 0
DWIDTH 14 0
BBX 7 2 4 9
BITMAP
F0
3E
ENDCHAR
STARTCHAR C021047
ENCODING 8743
SWIDTH 1400 0
DWIDTH 14 0
BBX 5 2 5 9
BITMAP
D8
70
ENDCHAR
STARTCHAR C021050
ENCODING 8744
SWIDTH 1400 0
DWIDTH 14 0
BBX 7 2 4 9
BITMAP
C6
7C
ENDCHAR
STARTCHAR C021051
ENCODING 8745
SWIDTH 1400 0
DWIDTH 14 0
BBX 4 1 5 10
BITMAP
F0
ENDCHAR
STARTCHAR C021052
ENCODING 8746
SWIDTH 1400 0
DWIDTH 14 0
BBX 3 3 6 8
BITMAP
E0
60
C0
ENDCHAR
STARTCHAR C021053
ENCODING 8747
SWIDTH 1400 0
DWIDTH 14 0
BBX 3 2 6 3
BITMAP
E0
E0
ENDCHAR
STARTCHAR C021054
ENCODING 8748
SWIDTH 1400 0
DWIDTH 14 0
BBX 3 3 6 -2
BITMAP
60
60
E0
ENDCHAR
STARTCHAR C021055
ENCODING 8749
SWIDTH 1400 0
DWIDTH 14 0
BBX 3 2 6 -2
BITMAP
C0
E0
ENDCHAR
STARTCHAR C021056
ENCODING 8750
SWIDTH 1400 0
DWIDTH 14 0
BBX 2 10 6 0
BITMAP
C0
C0
00
C0
C0
C0
C0
C0
C0
C0
ENDCHAR
STARTCHAR C021057
ENCODING 8751
SWIDTH 1400 0
DWIDTH 14 0
BBX 5 10 5 0
BITMAP
30
30
00
30
30
70
C0
C0
C0
78
ENDCHAR
STARTCHAR C021060
ENCODING 8752
SWIDTH 1400 0
DWIDTH 14 0
BBX 3 6 6 1
BITMAP
E0
00
00
00
00
E0
ENDCHAR
STARTCHAR C021061
ENCODING 8753
SWIDTH 1400 0
DWIDTH 14 0
BBX 6 11 5 -1
BITMAP
1C
30
30
30
F8
F8
F8
30
60
60
C0
ENDCHAR
STARTCHAR C021062
ENCODING 8754
SWIDTH 1400 0
DWIDTH 14 0
BBX 12 11 2 -1
BITMAP
FFF0
6030
3030
1C30
0E30
0700
0E00
1800
3030
6030
FFF0
ENDCHAR
STARTCHAR C021063
ENCODING 8755
SWIDTH 1400 0
DWIDTH 14 0
BBX 12 12 2 -2
BITMAP
FFF0
60C0
60C0
60C0
60C0
60C0
60C0
60C0
60C0
60C0
60C0
F1E0
ENDCHAR
STARTCHAR C021064
ENCODING 8756
SWIDTH 1400 0
DWIDTH 14 0
BBX 11 10 2 -1
BITMAP
FFC0
7180
31C0
60C0
60C0
60C0
71C0
3180
7FC0
C060
ENDCHAR
STARTCHAR C021065
ENCODING 8757
SWIDTH 1400 0
DWIDTH 14 0
BBX 13 10 1 -1
BITMAP
E7F0
F630
E618
06C0
07C0
06C0
0600
0600
0600
0F80
ENDCHAR
STARTCHAR C021066
ENCODING 8758
SWIDTH 1400 0
DWIDTH 14 0
BBX 13 13 1 -2
BITMAP
7800
ECC0
CD80
CD80
CF00
CE00
7F70
0DD8
1DD8
3DD8
6DD8
CDD8
C770
ENDCHAR
STARTCHAR C021067
ENCODING 8759
SWIDTH 1400 0
DWIDTH 14 0
BBX 10 11 2 -1
BITMAP
00C0
03C0
06C0
1CC0
30C0
E0C0
60C0
38C0
0CC0
07C0
01C0
ENDCHAR
STARTCHAR C021070
ENCODING 8760
SWIDTH 1400 0
DWIDTH 14 0
BBX 10 11 2 -1
BITMAP
00C0
03C0
07C0
1FC0
3FC0
FFC0
3FC0
1FC0
07C0
03C0
00C0
ENDCHAR
STARTCHAR C021071
ENCODING 8761
SWIDTH 1400 0
DWIDTH 14 0
BBX 10 11 3 -1
BITMAP
C000
E000
F800
CE00
C300
C1C0
C380
C600
DC00
F000
C000
ENDCHAR
STARTCHAR C021072
ENCODING 8762
SWIDTH 1400 0
DWIDTH 14 0
BBX 10 11 3 -1
BITMAP
C000
F000
F800
FE00
FF00
FFC0
FF00
FE00
F800
F000
C000
ENDCHAR
STARTCHAR C021073
ENCODING 8763
SWIDTH 1400 0
DWIDTH 14 0
BBX 11 12 2 -2
BITMAP
0C00
1E00
3300
3180
60C0
C0C0
C060
C060
CC60
7BC0
1B00
1F00
ENDCHAR
STARTCHAR C021074
ENCODING 8764
SWIDTH 1400 0
DWIDTH 14 0
BBX 11 11 2 -2
BITMAP
0E00
1F00
3F80
7FC0
7FC0
FFE0
FFE0
FFE0
7FC0
0E00
1F00
ENDCHAR
STARTCHAR C021075
ENCODING 8765
SWIDTH 1400 0
DWIDTH 14 0
BBX 11 12 2 -2
BITMAP
7BC0
CE60
C060
0060
C060
C0C0
C0C0
6180
3180
3300
1E00
0C00
ENDCHAR
STARTCHAR C021076
ENCODING 8766
SWIDTH 1400 0
DWIDTH 14 0
BBX 13 12 1 -2
BITMAP
3DE0
7FF0
7FF0
FFF8
7FF0
7FF0
3FE0
3FE0
1FC0
0F80
0780
0700
ENDCHAR
STARTCHAR C021077
ENCODING 8767
SWIDTH 1400 0
DWIDTH 14 0
BBX 13 13 1 -2
BITMAP
0F80
0D80
18C0
18C0
1980
7FF0
C198
C018
C018
C798
7FF0
0F00
0F80
ENDCHAR
STARTCHAR C021100
ENCODING 8768
SWIDTH 1400 0
DWIDTH 14 0
BBX 13 11 1 -1
BITMAP
0F80
1FC0
1FC0
0F80
7FE0
FFF8
FFF8
FFF8
7FF0
0700
0F00
ENDCHAR
STARTCHAR C021101
ENCODING 8769
SWIDTH 1400 0
DWIDTH 14 0
BBX 13 11 1 -1
BITMAP
1FC0
3860
6FB0
DFD8
FFF8
FFF8
FFF8
DFD8
6FF0
38E0
1FC0
ENDCHAR
STARTCHAR C021102
ENCODING 8770
SWIDTH 1400 0
DWIDTH 14 0
BBX 13 13 1 -2
BITMAP
0600
0700
0D80
1FC0
7FE0
DFF0
3FF8
DFF0
6FE0
37C0
1980
0F00
0600
ENDCHAR
STARTCHAR C021103
ENCODING 8771
SWIDTH 1400 0
DWIDTH 14 0
BBX 13 11 1 -1
BITMAP
FFF8
C018
C018
DFD8
DFD8
DFD8
DFD8
DFD8
DFD8
C018
FFF8
ENDCHAR
STARTCHAR C021104
ENCODING 8772
SWIDTH 1400 0
DWIDTH 14 0
BBX 13 11 1 -1
BITMAP
0FC0
3EE0
7E30
7E38
7E18
FE18
FE18
7E38
7E30
3EE0
0FC0
ENDCHAR
STARTCHAR C021105
ENCODING 8773
SWIDTH 1400 0
DWIDTH 14 0
BBX 13 11 1 -1
BITMAP
1F80
3BE0
63F0
E3F0
C3F0
C3F8
C3F0
E3F0
63F0
3BE0
1F80
ENDCHAR
STARTCHAR C021106
ENCODING 8774
SWIDTH 1400 0
DWIDTH 14 0
BBX 13 11 1 -1
BITMAP
FFF8
FFF8
FFF8
FFF8
FFF8
FFF8
FFF8
FFF8
FFF8
FFF8
FFF8
ENDCHAR
STARTCHAR C021107
ENCODING 8775
SWIDTH 1400 0
DWIDTH 14 0
BBX 12 11 2 -1
BITMAP
FFF0
0030
0030
FFF0
0030
FFF0
0030
0030
FFF0
0030
FFF0
ENDCHAR
STARTCHAR C021110
ENCODING 8776
SWIDTH 1400 0
DWIDTH 14 0
BBX 13 11 1 -1
BITMAP
FFF8
DBD8
DBD8
DBD8
DBD8
DBD8
DBD8
DBD8
DBD8
DBD8
FFF8
ENDCHAR
STARTCHAR C021111
ENCODING 8777
SWIDTH 1400 0
DWIDTH 14 0
BBX 12 11 2 -1
BITMAP
FFF0
0CF0
19B0
3330
E630
0C70
18F0
31B0
6330
C630
FFF0
ENDCHAR
STARTCHAR C021112
ENCODING 8778
SWIDTH 1400 0
DWIDTH 14 0
BBX 13 11 1 -1
BITMAP
FFF8
E318
F198
D8D8
CC78
E638
F318
D998
CCD8
C678
FFF8
ENDCHAR
STARTCHAR C021113
ENCODING 8779
SWIDTH 1400 0
DWIDTH 14 0
BBX 12 11 2 -1
BITMAP
FFF0
37B0
37B0
FFF0
37B0
FFF0
37B0
37B0
FFF0
37B0
FFF0
ENDCHAR
STARTCHAR C021114
ENCODING 8780
SWIDTH 1400 0
DWIDTH 14 0
BBX 12 11 2 -1
BITMAP
FFF0
DEF0
73B0
73B0
DEF0
0C70
DEF0
73B0
73B0
DEF0
FFF0
ENDCHAR
STARTCHAR C021115
ENCODING 8781
SWIDTH 1400 0
DWIDTH 14 0
BBX 13 11 1 -2
BITMAP
0F00
1F80
1F80
1FC0
0FC0
0FC0
6FB0
DF98
E7F0
7FE0
1F80
ENDCHAR
STARTCHAR C021116
ENCODING 8782
SWIDTH 1400 0
DWIDTH 14 0
BBX 13 9 1 0
BITMAP
3FC0
FFF8
3FD8
FFF8
3DF0
78E0
D8F0
DDF0
FFF0
ENDCHAR
STARTCHAR C021117
ENCODING 8783
SWIDTH 1400 0
DWIDTH 14 0
BBX 13 9 1 0
BITMAP
1FC0
7FF8
FDF8
FFF8
19C0
30E0
70F0
79F0
7FF0
ENDCHAR
STARTCHAR C021120
ENCODING 8784
SWIDTH 1400 0
DWIDTH 14 0
BBX 13 6 1 1
BITMAP
FFF8
FFB8
3FD8
1F38
0FF8
0600
ENDCHAR
STARTCHAR C021121
ENCODING 8785
SWIDTH 1400 0
DWIDTH 14 0
BBX 13 6 1 1
BITMAP
1FF0
FFF8
C7C0
C7C0
FF80
0300
ENDCHAR
STARTCHAR C021122
ENCODING 8786
SWIDTH 1400 0
DWIDTH 14 0
BBX 9 12 2 -2
BITMAP
7F80
E780
C780
E780
7F80
0780
0780
0780
0780
0780
0780
0780
ENDCHAR
STARTCHAR C021123
ENCODING 8787
SWIDTH 1400 0
DWIDTH 14 0
BBX 8 13 4 -2
BITMAP
18
18
18
18
FF
18
18
18
18
18
18
18
18
ENDCHAR
STARTCHAR C021124
ENCODING 8788
SWIDTH 1400 0
DWIDTH 14 0
BBX 8 12 3 -2
BITMAP
18
FF
18
18
FF
18
18
18
18
18
18
18
ENDCHAR
STARTCHAR C021125
ENCODING 8789
SWIDTH 1400 0
DWIDTH 14 0
BBX 3 9 6 0
BITMAP
E0
C0
C0
C0
C0
C0
C0
C0
E0
ENDCHAR
STARTCHAR C021126
ENCODING 8790
SWIDTH 1400 0
DWIDTH 14 0
BBX 9 7 3 1
BITMAP
0780
0380
0780
0C00
3800
6000
C000
ENDCHAR
STARTCHAR C021127
ENCODING 8791
SWIDTH 1400 0
DWIDTH 14 0
BBX 9 9 3 0
BITMAP
0180
0300
0600
0C00
1800
1800
F000
E000
F000
ENDCHAR
STARTCHAR C021130
ENCODING 8792
SWIDTH 1400 0
DWIDTH 14 0
BBX 10 8 3 0
BITMAP
F000
E000
F000
1800
0C00
0600
0300
01C0
ENDCHAR
STARTCHAR C021131
ENCODING 8793
SWIDTH 1400 0
DWIDTH 14 0
BBX 9 8 3 0
BITMAP
C000
6000
3000
1800
0C00
0780
0380
0780
ENDCHAR
STARTCHAR C021132
ENCODING 8794
SWIDTH 1400 0
DWIDTH 14 0
BBX 5 9 5 0
BITMAP
C0
C0
C0
F8
D8
D8
D8
F0
E0
ENDCHAR
STARTCHAR C021133
ENCODING 8795
SWIDTH 1400 0
DWIDTH 14 0
BBX 4 11 5 -1
BITMAP
30
30
30
30
30
30
30
30
30
F0
E0
ENDCHAR
STARTCHAR C021134
ENCODING 8796
SWIDTH 1400 0
DWIDTH 14 0
BBX 8 11 3 -1
BITMAP
30
38
3C
3E
33
33
36
36
30
F0
E0
ENDCHAR
STARTCHAR C021135
ENCODING 8797
SWIDTH 1400 0
DWIDTH 14 0
BBX 11 10 2 -1
BITMAP
1FE0
1860
1FE0
1860
1860
1860
1860
79E0
F1C0
E180
ENDCHAR
STARTCHAR C021136
ENCODING 8798
SWIDTH 1400 0
DWIDTH 14 0
BBX 13 11 1 -1
BITMAP
1F80
38E0
6CF0
EDB0
CF00
FF78
0D98
6DB0
6CF0
38E0
0FC0
ENDCHAR
STARTCHAR C021137
ENCODING 8799
SWIDTH 1400 0
DWIDTH 14 0
BBX 13 12 1 -2
BITMAP
6000
FFF0
C1B0
C318
0FF8
7818
7FF8
C618
C630
C630
6660
0600
ENDCHAR
STARTCHAR C021140
ENCODING 8800
SWIDTH 1400 0
DWIDTH 14 0
BBX 13 10 1 -1
BITMAP
C600
E600
E600
F6F0
DF98
DF98
CF98
C798
C6F8
0060
ENDCHAR
STARTCHAR C021141
ENCODING 8801
SWIDTH 1400 0
DWIDTH 14 0
BBX 13 11 1 -1
BITMAP
3800
6E00
C600
C000
C1F0
C1B0
C1B0
C1B0
67B0
3DF8
18C0
ENDCHAR
STARTCHAR C021142
ENCODING 8802
SWIDTH 1400 0
DWIDTH 14 0
BBX 13 9 1 0
BITMAP
FF38
3FB8
33B8
33F8
33F8
33F8
33F8
33D8
3398
ENDCHAR
STARTCHAR C021143
ENCODING 8803
SWIDTH 1400 0
DWIDTH 14 0
BBX 15 8 0 -2
BITMAP
FBFA
D9FA
19FA
79FA
D9FA
FFFA
6002
0002
ENDCHAR
STARTCHAR C021144
ENCODING 8804
SWIDTH 1400 0
DWIDTH 14 0
BBX 13 8 1 -2
BITMAP
F7F0
DBF0
DBF0
DBF0
DBF0
FFF8
E000
C000
ENDCHAR
STARTCHAR C021145
ENCODING 8805
SWIDTH 1400 0
DWIDTH 14 0
BBX 13 10 1 -1
BITMAP
FE18
1B18
18D8
1BF8
1B78
1BF8
1B18
1B18
19F8
00C0
ENDCHAR
STARTCHAR C021146
ENCODING 8806
SWIDTH 1400 0
DWIDTH 14 0
BBX 0 0 0 0
BITMAP
ENDCHAR
STARTCHAR C021147
ENCODING 8807
SWIDTH 1400 0
DWIDTH 14 0
BBX 0 0 0 0
BITMAP
ENDCHAR
STARTCHAR C021150
ENCODING 8808
SWIDTH 1400 0
DWIDTH 14 0
BBX 0 0 0 0
BITMAP
ENDCHAR
STARTCHAR C021151
ENCODING 8809
SWIDTH 1400 0
DWIDTH 14 0
BBX 1 4 14 -3
BITMAP
80
00
00
80
ENDCHAR
STARTCHAR C021152
ENCODING 8810
SWIDTH 1400 0
DWIDTH 14 0
BBX 0 0 0 0
BITMAP
ENDCHAR
STARTCHAR C021153
ENCODING 8811
SWIDTH 1400 0
DWIDTH 14 0
BBX 0 0 0 0
BITMAP
ENDCHAR
STARTCHAR C021154
ENCODING 8812
SWIDTH 1400 0
DWIDTH 14 0
BBX 0 0 0 0
BITMAP
ENDCHAR
STARTCHAR C021155
ENCODING 8813
SWIDTH 1400 0
DWIDTH 14 0
BBX 0 0 0 0
BITMAP
ENDCHAR
STARTCHAR C021156
ENCODING 8814
SWIDTH 1400 0
DWIDTH 14 0
BBX 1 12 14 -2
BITMAP
80
80
80
80
00
00
00
00
00
00
00
80
ENDCHAR
STARTCHAR C021157
ENCODING 8815
SWIDTH 1400 0
DWIDTH 14 0
BBX 0 0 0 0
BITMAP
ENDCHAR
STARTCHAR C021160
ENCODING 8816
SWIDTH 1400 0
DWIDTH 14 0
BBX 0 0 0 0
BITMAP
ENDCHAR
STARTCHAR C021161
ENCODING 8817
SWIDTH 1400 0
DWIDTH 14 0
BBX 0 0 0 0
BITMAP
ENDCHAR
STARTCHAR C021162
ENCODING 8818
SWIDTH 1400 0
DWIDTH 14 0
BBX 0 0 0 0
BITMAP
ENDCHAR
STARTCHAR C021163
ENCODING 8819
SWIDTH 1400 0
DWIDTH 14 0
BBX 1 7 14 4
BITMAP
80
00
00
00
00
00
80
ENDCHAR
STARTCHAR C021164
ENCODING 8820
SWIDTH 1400 0
DWIDTH 14 0
BBX 0 0 0 0
BITMAP
ENDCHAR
STARTCHAR C021165
ENCODING 8821
SWIDTH 1400 0
DWIDTH 14 0
BBX 0 0 0 0
BITMAP
ENDCHAR
STARTCHAR C021166
ENCODING 8822
SWIDTH 1400 0
DWIDTH 14 0
BBX 0 0 0 0
BITMAP
ENDCHAR
STARTCHAR C021167
ENCODING 8823
SWIDTH 1400 0
DWIDTH 14 0
BBX 0 0 0 0
BITMAP
ENDCHAR
STARTCHAR C021170
ENCODING 8824
SWIDTH 1400 0
DWIDTH 14 0
BBX 1 4 14 -3
BITMAP
80
00
00
80
ENDCHAR
STARTCHAR C021171
ENCODING 8825
SWIDTH 1400 0
DWIDTH 14 0
BBX 0 0 0 0
BITMAP
ENDCHAR
STARTCHAR C021172
ENCODING 8826
SWIDTH 1400 0
DWIDTH 14 0
BBX 0 0 0 0
BITMAP
ENDCHAR
STARTCHAR C021173
ENCODING 8827
SWIDTH 1400 0
DWIDTH 14 0
BBX 0 0 0 0
BITMAP
ENDCHAR
STARTCHAR C021174
ENCODING 8828
SWIDTH 1400 0
DWIDTH 14 0
BBX 0 0 0 0
BITMAP
ENDCHAR
STARTCHAR C021175
ENCODING 8829
SWIDTH 1400 0
DWIDTH 14 0
BBX 1 12 14 -2
BITMAP
80
80
80
80
00
00
00
00
00
00
00
80
ENDCHAR
STARTCHAR C021176
ENCODING 8830
SWIDTH 1400 0
DWIDTH 14 0
BBX 0 0 0 0
BITMAP
ENDCHAR
STARTCHAR C021177
ENCODING 8831
SWIDTH 1400 0
DWIDTH 14 0
BBX 0 0 0 0
BITMAP
ENDCHAR
STARTCHAR C021440
ENCODING 8992
SWIDTH 1400 0
DWIDTH 14 0
BBX 1 9 14 0
BITMAP
80
80
00
00
00
00
00
00
80
ENDCHAR
STARTCHAR C021441
ENCODING 8993
SWIDTH 1400 0
DWIDTH 14 0
BBX 3 9 6 0
BITMAP
C0
C0
60
60
60
00
00
00
C0
ENDCHAR
STARTCHAR C021442
ENCODING 8994
SWIDTH 1400 0
DWIDTH 14 0
BBX 5 2 5 9
BITMAP
78
F0
ENDCHAR
STARTCHAR C021443
ENCODING 8995
SWIDTH 1400 0
DWIDTH 14 0
BBX 7 12 4 -2
BITMAP
30
3C
3C
FE
6C
6C
78
FE
78
D8
18
18
ENDCHAR
STARTCHAR C021444
ENCODING 8996
SWIDTH 1400 0
DWIDTH 14 0
BBX 8 12 3 -2
BITMAP
1C
7E
DF
7C
7C
3E
1F
1F
1F
7F
3E
1C
ENDCHAR
STARTCHAR C021445
ENCODING 8997
SWIDTH 1400 0
DWIDTH 14 0
BBX 12 12 2 -2
BITMAP
7830
CC60
CCC0
CD80
CF00
7E00
3FC0
1E60
3660
6660
C360
03C0
ENDCHAR
STARTCHAR C021446
ENCODING 8998
SWIDTH 1400 0
DWIDTH 14 0
BBX 11 10 2 -1
BITMAP
3E00
3600
3600
3C00
7BE0
CD80
CD80
C780
E300
7FC0
ENDCHAR
STARTCHAR C021447
ENCODING 8999
SWIDTH 1400 0
DWIDTH 14 0
BBX 3 3 6 8
BITMAP
E0
C0
C0
ENDCHAR
STARTCHAR C021450
ENCODING 9000
SWIDTH 1400 0
DWIDTH 14 0
BBX 4 12 10 -2
BITMAP
60
60
C0
C0
C0
C0
C0
C0
C0
C0
60
30
ENDCHAR
STARTCHAR C021451
ENCODING 9001
SWIDTH 1400 0
DWIDTH 14 0
BBX 4 12 1 -2
BITMAP
C0
60
60
30
30
30
30
30
30
60
60
C0
ENDCHAR
STARTCHAR C021452
ENCODING 9002
SWIDTH 1400 0
DWIDTH 14 0
BBX 5 5 5 2
BITMAP
30
F8
70
F8
30
ENDCHAR
STARTCHAR C021453
ENCODING 9003
SWIDTH 1400 0
DWIDTH 14 0
BBX 10 9 2 0
BITMAP
0C00
0C00
0C00
0C00
FFC0
0C00
0C00
0C00
0C00
ENDCHAR
STARTCHAR C021454
ENCODING 9004
SWIDTH 1400 0
DWIDTH 14 0
BBX 2 3 1 -2
BITMAP
C0
C0
C0
ENDCHAR
STARTCHAR C021455
ENCODING 9005
SWIDTH 1400 0
DWIDTH 14 0
BBX 11 1 2 4
BITMAP
FFE0
ENDCHAR
STARTCHAR C021456
ENCODING 9006
SWIDTH 1400 0
DWIDTH 14 0
BBX 2 1 1 0
BITMAP
C0
ENDCHAR
STARTCHAR C021457
ENCODING 9007
SWIDTH 1400 0
DWIDTH 14 0
BBX 12 10 2 -1
BITMAP
0070
00C0
0180
0300
0600
0C00
1800
3000
6000
C000
ENDCHAR
STARTCHAR C021460
ENCODING 9008
SWIDTH 1400 0
DWIDTH 14 0
BBX 7 11 4 -1
BITMAP
7C
6C
C6
C6
C6
C6
C6
C6
CC
6C
38
ENDCHAR
STARTCHAR C021461
ENCODING 9009
SWIDTH 1400 0
DWIDTH 14 0
BBX 6 10 5 0
BITMAP
F0
30
30
30
30
30
30
30
30
FC
ENDCHAR
STARTCHAR C021462
ENCODING 9010
SWIDTH 1400 0
DWIDTH 14 0
BBX 6 10 5 0
BITMAP
70
D8
CC
18
18
30
60
C0
C0
F8
ENDCHAR
STARTCHAR C021463
ENCODING 9011
SWIDTH 1400 0
DWIDTH 14 0
BBX 7 11 4 -1
BITMAP
18
7E
66
06
0C
1C
06
06
E6
6E
3C
ENDCHAR
STARTCHAR C021464
ENCODING 9012
SWIDTH 1400 0
DWIDTH 14 0
BBX 5 10 5 0
BITMAP
18
18
38
78
78
D8
D8
78
18
18
ENDCHAR
STARTCHAR C021465
ENCODING 9013
SWIDTH 1400 0
DWIDTH 14 0
BBX 6 10 5 0
BITMAP
F8
C0
C0
C0
F8
0C
0C
CC
CC
78
ENDCHAR
STARTCHAR C021466
ENCODING 9014
SWIDTH 1400 0
DWIDTH 14 0
BBX 7 10 4 0
BITMAP
3C
6C
C0
C0
FC
C6
C6
C6
6E
3C
ENDCHAR
STARTCHAR C021467
ENCODING 9015
SWIDTH 1400 0
DWIDTH 14 0
BBX 7 10 4 0
BITMAP
7E
CC
CC
18
18
30
30
30
30
30
ENDCHAR
STARTCHAR C021470
ENCODING 9016
SWIDTH 1400 0
DWIDTH 14 0
BBX 7 10 4 0
BITMAP
7C
6C
CC
6C
38
6C
C6
C6
EE
7C
ENDCHAR
STARTCHAR C021471
ENCODING 9017
SWIDTH 1400 0
DWIDTH 14 0
BBX 7 10 4 0
BITMAP
7C
EC
C6
C6
C6
DE
76
0C
6C
78
ENDCHAR
STARTCHAR C021472
ENCODING 9018
SWIDTH 1400 0
DWIDTH 14 0
BBX 2 6 7 0
BITMAP
C0
00
00
00
00
C0
ENDCHAR
STARTCHAR C021473
ENCODING 9019
SWIDTH 1400 0
DWIDTH 14 0
BBX 3 8 6 -2
BITMAP
C0
00
00
00
00
E0
60
C0
ENDCHAR
STARTCHAR C021474
ENCODING 9020
SWIDTH 1400 0
DWIDTH 14 0
BBX 9 8 3 0
BITMAP
0180
0700
1C00
F000
E000
3800
0E00
0380
ENDCHAR
STARTCHAR C021475
ENCODING 9021
SWIDTH 1400 0
DWIDTH 14 0
BBX 11 4 2 2
BITMAP
FFE0
0000
0000
FFE0
ENDCHAR
STARTCHAR C021476
ENCODING 9022
SWIDTH 1400 0
DWIDTH 14 0
BBX 9 8 3 0
BITMAP
C000
7000
1C00
0780
0380
0E00
3800
E000
ENDCHAR
STARTCHAR C021477
ENCODING 9023
SWIDTH 1400 0
DWIDTH 14 0
BBX 7 10 4 -1
BITMAP
7C
EC
EE
0C
18
30
00
00
30
30
ENDCHAR
STARTCHAR C021500
ENCODING 9024
SWIDTH 1400 0
DWIDTH 14 0
BBX 10 10 3 -1
BITMAP
1F00
3180
60C0
DEC0
F3C0
F7C0
FF80
7BC0
3180
1F00
ENDCHAR
STARTCHAR C021501
ENCODING 9025
SWIDTH 1400 0
DWIDTH 14 0
BBX 9 9 3 0
BITMAP
1C00
3C00
3C00
3600
6600
7F00
C300
C300
E380
ENDCHAR
STARTCHAR C021502
ENCODING 9026
SWIDTH 1400 0
DWIDTH 14 0
BBX 9 10 4 -1
BITMAP
FF00
C300
C300
C600
FE00
C300
C380
C300
E600
3C00
ENDCHAR
STARTCHAR C021503
ENCODING 9027
SWIDTH 1400 0
DWIDTH 14 0
BBX 9 11 3 -1
BITMAP
1E00
7380
6000
C000
C000
C000
C000
C000
6180
3F00
0C00
ENDCHAR
STARTCHAR C021504
ENCODING 9028
SWIDTH 1400 0
DWIDTH 14 0
BBX 10 10 3 0
BITMAP
FE00
6380
61C0
60C0
60C0
60C0
60C0
6180
6380
FE00
ENDCHAR
STARTCHAR C021505
ENCODING 9029
SWIDTH 1400 0
DWIDTH 14 0
BBX 9 10 3 0
BITMAP
FF00
6300
6180
6600
6600
7E00
6600
6780
6380
FF00
ENDCHAR
STARTCHAR C021506
ENCODING 9030
SWIDTH 1400 0
DWIDTH 14 0
BBX 9 9 4 0
BITMAP
FF00
6180
6600
6600
7E00
6600
6000
6000
F000
ENDCHAR
STARTCHAR C021507
ENCODING 9031
SWIDTH 1400 0
DWIDTH 14 0
BBX 10 11 3 -1
BITMAP
0C00
3F80
6000
C000
C000
C000
C3C0
C180
6180
3380
1E00
ENDCHAR
STARTCHAR C021510
ENCODING 9032
SWIDTH 1400 0
DWIDTH 14 0
BBX 11 11 2 -1
BITMAP
7FE0
3180
3180
3180
3180
3F80
3180
3180
3180
FDC0
0300
ENDCHAR
STARTCHAR C021511
ENCODING 9033
SWIDTH 1400 0
DWIDTH 14 0
BBX 4 9 6 0
BITMAP
F0
60
60
60
60
60
60
60
F0
ENDCHAR
STARTCHAR C021512
ENCODING 9034
SWIDTH 1400 0
DWIDTH 14 0
BBX 7 12 4 -2
BITMAP
7E
18
18
18
18
18
18
18
18
18
F0
E0
ENDCHAR
STARTCHAR C021513
ENCODING 9035
SWIDTH 1400 0
DWIDTH 14 0
BBX 10 10 2 -1
BITMAP
7380
6600
6C00
7800
7C00
6600
6300
6300
F1C0
0300
ENDCHAR
STARTCHAR C021514
ENCODING 9036
SWIDTH 1400 0
DWIDTH 14 0
BBX 10 10 3 0
BITMAP
FC00
3000
3000
3000
3000
3000
3000
30C0
3180
7F80
ENDCHAR
STARTCHAR C021515
ENCODING 9037
SWIDTH 1400 0
DWIDTH 14 0
BBX 13 10 1 0
BITMAP
E078
70E0
71E0
79E0
7B60
7B60
6F60
6E60
6660
F7F0
ENDCHAR
STARTCHAR C021516
ENCODING 9038
SWIDTH 1400 0
DWIDTH 14 0
BBX 11 10 2 0
BITMAP
E1E0
70C0
70C0
78C0
6CC0
66C0
66C0
63C0
61C0
F0C0
ENDCHAR
STARTCHAR C021517
ENCODING 9039
SWIDTH 1400 0
DWIDTH 14 0
BBX 11 10 2 0
BITMAP
3F80
71C0
E0E0
C060
C060
C060
C060
E0E0
71C0
3F80
ENDCHAR
STARTCHAR C021520
ENCODING 9040
SWIDTH 1400 0
DWIDTH 14 0
BBX 9 10 3 0
BITMAP
7F00
3380
3180
3180
3380
3F00
3000
3000
3000
FC00
ENDCHAR
STARTCHAR C021521
ENCODING 9041
SWIDTH 1400 0
DWIDTH 14 0
BBX 11 12 2 -2
BITMAP
1F00
3180
60C0
60C0
60C0
C060
C0C0
60C0
3F80
3300
1F80
00C0
ENDCHAR
STARTCHAR C021522
ENCODING 9042
SWIDTH 1400 0
DWIDTH 14 0
BBX 9 10 3 0
BITMAP
FF00
6380
6180
6180
6300
7E00
6E00
6600
6300
F980
ENDCHAR
STARTCHAR C021523
ENCODING 9043
SWIDTH 1400 0
DWIDTH 14 0
BBX 8 11 3 -1
BITMAP
3C
67
C3
60
78
0E
03
03
63
76
1C
ENDCHAR
STARTCHAR C021524
ENCODING 9044
SWIDTH 1400 0
DWIDTH 14 0
BBX 10 10 3 -1
BITMAP
FFC0
0CC0
0C00
0C00
0C00
0C00
0C00
0C00
1C00
0600
ENDCHAR
STARTCHAR C021525
ENCODING 9045
SWIDTH 1400 0
DWIDTH 14 0
BBX 9 10 3 0
BITMAP
0380
C180
C180
C180
C180
C180
C180
C180
E380
7E00
ENDCHAR
STARTCHAR C021526
ENCODING 9046
SWIDTH 1400 0
DWIDTH 14 0
BBX 9 8 3 1
BITMAP
E380
6300
6300
6600
3600
3600
1C00
1C00
ENDCHAR
STARTCHAR C021527
ENCODING 9047
SWIDTH 1400 0
DWIDTH 14 0
BBX 15 10 0 0
BITMAP
FFFC
6318
3198
3398
37B0
1EF0
1EF0
1CE0
0C60
0C62
ENDCHAR
STARTCHAR C021530
ENCODING 9048
SWIDTH 1400 0
DWIDTH 14 0
BBX 10 10 2 0
BITMAP
7BC0
3300
1B00
1E00
0C00
1E00
1E00
3300
3180
FBC0
ENDCHAR
STARTCHAR C021531
ENCODING 9049
SWIDTH 1400 0
DWIDTH 14 0
BBX 10 10 3 0
BITMAP
F3C0
6180
6300
3600
1E00
1C00
0C00
0C00
0C00
3F00
ENDCHAR
STARTCHAR C021532
ENCODING 9050
SWIDTH 1400 0
DWIDTH 14 0
BBX 7 10 4 -1
BITMAP
FE
0C
0C
18
30
30
60
C0
0E
F8
ENDCHAR
STARTCHAR C021533
ENCODING 9051
SWIDTH 1400 0
DWIDTH 14 0
BBX 5 14 10 -3
BITMAP
F0
C0
C0
C0
C0
C0
C0
C0
C0
C0
C0
C0
C0
60
ENDCHAR
STARTCHAR C021534
ENCODING 9052
SWIDTH 1400 0
DWIDTH 14 0
BBX 14 12 1 -1
BITMAP
0004
0000
CF38
C630
6330
FFF8
6F60
FFF8
3DE0
39C0
39C0
18C0
ENDCHAR
STARTCHAR C021535
ENCODING 9053
SWIDTH 1400 0
DWIDTH 14 0
BBX 4 14 1 -3
BITMAP
F0
30
30
30
30
30
30
30
30
30
30
30
30
60
ENDCHAR
STARTCHAR C021536
ENCODING 9054
SWIDTH 1400 0
DWIDTH 14 0
BBX 5 2 5 9
BITMAP
70
F8
ENDCHAR
STARTCHAR C021537
ENCODING 9055
SWIDTH 1400 0
DWIDTH 14 0
BBX 15 13 0 -2
BITMAP
0002
0000
0000
0000
0000
0000
0000
0000
0000
0000
0000
0000
FFFC
ENDCHAR
STARTCHAR C021540
ENCODING 9056
SWIDTH 1400 0
DWIDTH 14 0
BBX 4 5 5 6
BITMAP
E0
60
30
30
30
ENDCHAR
STARTCHAR C021541
ENCODING 9057
SWIDTH 1400 0
DWIDTH 14 0
BBX 7 7 4 -1
BITMAP
FC
CC
1C
FC
CC
DE
70
ENDCHAR
STARTCHAR C021542
ENCODING 9058
SWIDTH 1400 0
DWIDTH 14 0
BBX 7 11 4 -1
BITMAP
C0
C0
C0
C0
FC
C6
C6
C6
C6
EC
38
ENDCHAR
STARTCHAR C021543
ENCODING 9059
SWIDTH 1400 0
DWIDTH 14 0
BBX 7 7 4 -1
BITMAP
7C
C0
C0
C0
C0
6E
38
ENDCHAR
STARTCHAR C021544
ENCODING 9060
SWIDTH 1400 0
DWIDTH 14 0
BBX 7 11 4 -1
BITMAP
06
06
06
06
7E
C6
C6
C6
C6
6E
38
ENDCHAR
STARTCHAR C021545
ENCODING 9061
SWIDTH 1400 0
DWIDTH 14 0
BBX 7 8 4 -1
BITMAP
3C
6E
C6
FE
C0
C0
66
3C
ENDCHAR
STARTCHAR C021546
ENCODING 9062
SWIDTH 1400 0
DWIDTH 14 0
BBX 6 10 4 0
BITMAP
0C
3C
30
30
FC
30
30
30
30
78
ENDCHAR
STARTCHAR C021547
ENCODING 9063
SWIDTH 1400 0
DWIDTH 14 0
BBX 8 10 3 -3
BITMAP
3F
66
66
66
3C
78
7C
67
C3
7E
ENDCHAR
STARTCHAR C021550
ENCODING 9064
SWIDTH 1400 0
DWIDTH 14 0
BBX 8 10 3 0
BITMAP
E0
60
60
7E
73
63
63
63
63
F3
ENDCHAR
STARTCHAR C021551
ENCODING 9065
SWIDTH 1400 0
DWIDTH 14 0
BBX 4 10 5 0
BITMAP
60
00
00
E0
60
60
60
60
60
F0
ENDCHAR
STARTCHAR C021552
ENCODING 9066
SWIDTH 1400 0
DWIDTH 14 0
BBX 4 12 5 -2
BITMAP
30
00
00
00
70
30
30
30
30
30
30
E0
ENDCHAR
STARTCHAR C021553
ENCODING 9067
SWIDTH 1400 0
DWIDTH 14 0
BBX 7 9 4 0
BITMAP
C0
C0
C0
DE
D8
F0
F0
D8
CC
ENDCHAR
STARTCHAR C021554
ENCODING 9068
SWIDTH 1400 0
DWIDTH 14 0
BBX 2 10 7 0
BITMAP
C0
C0
C0
C0
C0
C0
C0
C0
C0
C0
ENDCHAR
STARTCHAR C021555
ENCODING 9069
SWIDTH 1400 0
DWIDTH 14 0
BBX 12 7 2 0
BITMAP
FFE0
7760
6660
6660
6660
6660
FFF0
ENDCHAR
STARTCHAR C021556
ENCODING 9070
SWIDTH 1400 0
DWIDTH 14 0
BBX 8 7 4 0
BITMAP
FE
76
66
66
66
66
FF
ENDCHAR
STARTCHAR C021557
ENCODING 9071
SWIDTH 1400 0
DWIDTH 14 0
BBX 7 8 4 -1
BITMAP
7C
6C
C6
C6
C6
C6
6C
7C
ENDCHAR
STARTCHAR C021560
ENCODING 9072
SWIDTH 1400 0
DWIDTH 14 0
BBX 7 9 4 -2
BITMAP
38
EC
C6
C6
C6
C6
EC
F8
C0
ENDCHAR
STARTCHAR C021561
ENCODING 9073
SWIDTH 1400 0
DWIDTH 14 0
BBX 8 9 4 -3
BITMAP
7E
C6
C6
C6
C6
6E
3E
06
0F
ENDCHAR
STARTCHAR C021562
ENCODING 9074
SWIDTH 1400 0
DWIDTH 14 0
BBX 6 6 4 0
BITMAP
FC
60
60
60
60
60
ENDCHAR
STARTCHAR C021563
ENCODING 9075
SWIDTH 1400 0
DWIDTH 14 0
BBX 6 8 5 -1
BITMAP
60
F8
C0
78
1C
0C
F8
30
ENDCHAR
STARTCHAR C021564
ENCODING 9076
SWIDTH 1400 0
DWIDTH 14 0
BBX 5 9 5 -1
BITMAP
60
60
F8
60
60
60
60
60
78
ENDCHAR
STARTCHAR C021565
ENCODING 9077
SWIDTH 1400 0
DWIDTH 14 0
BBX 7 7 4 -1
BITMAP
EE
66
66
66
66
7E
18
ENDCHAR
STARTCHAR C021566
ENCODING 9078
SWIDTH 1400 0
DWIDTH 14 0
BBX 7 5 4 1
BITMAP
E6
6C
6C
38
38
ENDCHAR
STARTCHAR C021567
ENCODING 9079
SWIDTH 1400 0
DWIDTH 14 0
BBX 10 5 3 1
BITMAP
DCC0
CD80
7D80
7700
7700
ENDCHAR
STARTCHAR C021570
ENCODING 9080
SWIDTH 1400 0
DWIDTH 14 0
BBX 9 6 3 0
BITMAP
7F00
3600
1C00
3C00
6600
F780
ENDCHAR
STARTCHAR C021571
ENCODING 9081
SWIDTH 1400 0
DWIDTH 14 0
BBX 7 9 4 -2
BITMAP
C6
6C
6C
78
38
38
30
30
E0
ENDCHAR
STARTCHAR C021572
ENCODING 9082
SWIDTH 1400 0
DWIDTH 14 0
BBX 7 7 4 -1
BITMAP
7C
0C
18
30
66
CC
78
ENDCHAR
STARTCHAR C021573
ENCODING 9083
SWIDTH 1400 0
DWIDTH 14 0
BBX 4 13 10 -2
BITMAP
30
60
60
60
60
60
C0
60
60
60
60
60
30
ENDCHAR
STARTCHAR C021574
ENCODING 9084
SWIDTH 1400 0
DWIDTH 14 0
BBX 0 0 0 0
BITMAP
ENDCHAR
STARTCHAR C021575
ENCODING 9085
SWIDTH 1400 0
DWIDTH 14 0
BBX 4 12 1 -1
BITMAP
C0
60
60
60
60
60
30
60
60
60
60
60
ENDCHAR
STARTCHAR C021576
ENCODING 9086
SWIDTH 1400 0
DWIDTH 14 0
BBX 6 1 5 9
BITMAP
FC
ENDCHAR
STARTCHAR C021577
ENCODING 9087
SWIDTH 1400 0
DWIDTH 14 0
BBX 0 0 0 0
BITMAP
ENDCHAR
STARTCHAR C022040
ENCODING 9248
SWIDTH 1400 0
DWIDTH 14 0
BBX 1 1 14 7
BITMAP
80
ENDCHAR
STARTCHAR C022041
ENCODING 9249
SWIDTH 1400 0
DWIDTH 14 0
BBX 10 7 2 1
BITMAP
FFC0
60C0
00C0
00C0
00C0
00C0
00C0
ENDCHAR
STARTCHAR C022042
ENCODING 9250
SWIDTH 1400 0
DWIDTH 14 0
BBX 11 7 2 1
BITMAP
FBE0
1860
1860
1860
1860
1860
1860
ENDCHAR
STARTCHAR C022043
ENCODING 9251
SWIDTH 1400 0
DWIDTH 14 0
BBX 12 7 2 1
BITMAP
F980
1980
1980
1980
1BC0
1E60
1830
ENDCHAR
STARTCHAR C022044
ENCODING 9252
SWIDTH 1400 0
DWIDTH 14 0
BBX 10 6 3 2
BITMAP
C000
C000
C000
C000
C180
7FC0
ENDCHAR
STARTCHAR C022045
ENCODING 9253
SWIDTH 1400 0
DWIDTH 14 0
BBX 12 7 2 1
BITMAP
CFE0
C180
C180
C180
CFC0
FB60
0630
ENDCHAR
STARTCHAR C022046
ENCODING 9254
SWIDTH 1400 0
DWIDTH 14 0
BBX 12 8 2 0
BITMAP
03C0
C030
CFE0
C3C0
C660
DE60
F660
03C0
ENDCHAR
STARTCHAR C022047
ENCODING 9255
SWIDTH 1400 0
DWIDTH 14 0
BBX 10 6 3 1
BITMAP
FF80
C000
C000
C000
C1C0
FFC0
ENDCHAR
STARTCHAR C022050
ENCODING 9256
SWIDTH 1400 0
DWIDTH 14 0
BBX 13 8 1 0
BITMAP
E1F8
7D80
6180
6180
6180
6180
7DF8
7000
ENDCHAR
STARTCHAR C022051
ENCODING 9257
SWIDTH 1400 0
DWIDTH 14 0
BBX 11 7 2 1
BITMAP
FFC0
00C0
0180
7FC0
6000
60C0
7FE0
ENDCHAR
STARTCHAR C022052
ENCODING 9258
SWIDTH 1400 0
DWIDTH 14 0
BBX 12 6 1 1
BITMAP
7DF0
0C30
FC30
6030
6030
7E30
ENDCHAR
STARTCHAR C022053
ENCODING 9259
SWIDTH 1400 0
DWIDTH 14 0
BBX 12 8 1 0
BITMAP
7DF0
0DB0
0DB0
FDB0
61B0
61B0
6FF0
3800
ENDCHAR
STARTCHAR C022054
ENCODING 9260
SWIDTH 1400 0
DWIDTH 14 0
BBX 12 9 1 0
BITMAP
0030
FDB0
0DB0
0DF0
FDB0
61B0
61B0
6FF0
3830
ENDCHAR
STARTCHAR C022055
ENCODING 9261
SWIDTH 1400 0
DWIDTH 14 0
BBX 11 8 2 0
BITMAP
F980
1980
1980
F980
C3C0
C360
DE60
7000
ENDCHAR
STARTCHAR C022056
ENCODING 9262
SWIDTH 1400 0
DWIDTH 14 0
BBX 12 8 1 0
BITMAP
FFF0
0F00
0F00
FFE0
6300
6300
6FF0
3800
ENDCHAR
STARTCHAR C022057
ENCODING 9263
SWIDTH 1400 0
DWIDTH 14 0
BBX 13 8 1 0
BITMAP
7C38
0FE0
0C30
FC30
61E0
61E0
7CC0
77F8
ENDCHAR
STARTCHAR C022060
ENCODING 9264
SWIDTH 1400 0
DWIDTH 14 0
BBX 13 8 1 0
BITMAP
FDE0
0C00
1FF8
FDE0
7330
6330
6F30
79E0
ENDCHAR
STARTCHAR C022061
ENCODING 9265
SWIDTH 1400 0
DWIDTH 14 0
BBX 10 7 2 1
BITMAP
FFC0
60C0
60C0
60C0
6180
6180
7FC0
ENDCHAR
STARTCHAR C022062
ENCODING 9266
SWIDTH 1400 0
DWIDTH 14 0
BBX 9 8 3 0
BITMAP
0180
C180
C180
FF80
C180
C180
FF80
C180
ENDCHAR
STARTCHAR C022063
ENCODING 9267
SWIDTH 1400 0
DWIDTH 14 0
BBX 12 8 1 0
BITMAP
CF30
6DB0
6DB0
7DF0
6DB0
6DB0
7DF0
61B0
ENDCHAR
STARTCHAR C022064
ENCODING 9268
SWIDTH 1400 0
DWIDTH 14 0
BBX 11 8 2 0
BITMAP
0D80
CD80
CD80
FD80
CFC0
CE60
FE60
C000
ENDCHAR
STARTCHAR C022065
ENCODING 9269
SWIDTH 1400 0
DWIDTH 14 0
BBX 10 7 3 1
BITMAP
1C00
0C00
1800
1E00
3300
61C0
C0C0
ENDCHAR
STARTCHAR C022066
ENCODING 9270
SWIDTH 1400 0
DWIDTH 14 0
BBX 12 7 2 1
BITMAP
1980
19C0
3180
3B80
6FC0
C660
0C30
ENDCHAR
STARTCHAR C022067
ENCODING 9271
SWIDTH 1400 0
DWIDTH 14 0
BBX 9 8 3 1
BITMAP
0C00
7E00
E380
C180
C180
C180
6300
3E00
ENDCHAR
STARTCHAR C022070
ENCODING 9272
SWIDTH 1400 0
DWIDTH 14 0
BBX 11 7 2 1
BITMAP
7FC0
0600
0E00
0F00
1980
30E0
E060
ENDCHAR
STARTCHAR C022071
ENCODING 9273
SWIDTH 1400 0
DWIDTH 14 0
BBX 12 7 2 1
BITMAP
FFF0
31C0
3180
7980
6FE0
CE30
0C00
ENDCHAR
STARTCHAR C022072
ENCODING 9274
SWIDTH 1400 0
DWIDTH 14 0
BBX 11 8 2 0
BITMAP
1F00
0000
FFC0
6600
0C00
1F00
31C0
6060
ENDCHAR
STARTCHAR C022073
ENCODING 9275
SWIDTH 1400 0
DWIDTH 14 0
BBX 9 9 3 0
BITMAP
0180
FF80
6180
0180
0F80
F980
0300
0300
0300
ENDCHAR
STARTCHAR C022074
ENCODING 9276
SWIDTH 1400 0
DWIDTH 14 0
BBX 10 7 3 1
BITMAP
FF80
C000
C000
FF80
C000
C1C0
FFC0
ENDCHAR
STARTCHAR C022075
ENCODING 9277
SWIDTH 1400 0
DWIDTH 14 0
BBX 11 7 2 1
BITMAP
00C0
FFC0
0180
3180
1B00
1B00
FFE0
ENDCHAR
STARTCHAR C022076
ENCODING 9278
SWIDTH 1400 0
DWIDTH 14 0
BBX 11 8 2 0
BITMAP
1F00
03E0
FE00
0700
3D80
3180
3180
1F00
ENDCHAR
STARTCHAR C022077
ENCODING 9279
SWIDTH 1400 0
DWIDTH 14 0
BBX 6 12 5 -2
BITMAP
E0
60
60
60
60
7C
60
60
60
60
60
60
ENDCHAR
STARTCHAR C022100
ENCODING 9280
SWIDTH 1400 0
DWIDTH 14 0
BBX 7 12 4 -2
BITMAP
EE
66
66
66
66
7E
66
66
66
66
66
06
ENDCHAR
STARTCHAR C022101
ENCODING 9281
SWIDTH 1400 0
DWIDTH 14 0
BBX 6 12 5 -2
BITMAP
E0
60
60
60
7C
60
60
7C
60
60
60
60
ENDCHAR
STARTCHAR C022102
ENCODING 9282
SWIDTH 1400 0
DWIDTH 14 0
BBX 7 12 4 -2
BITMAP
EE
66
66
7E
66
66
7E
66
66
66
66
06
ENDCHAR
STARTCHAR C022103
ENCODING 9283
SWIDTH 1400 0
DWIDTH 14 0
BBX 6 12 4 -2
BITMAP
1C
0C
0C
0C
0C
FC
0C
0C
0C
0C
0C
0C
ENDCHAR
STARTCHAR C022104
ENCODING 9284
SWIDTH 1400 0
DWIDTH 14 0
BBX 8 12 3 -2
BITMAP
07
1B
1B
1B
1B
FB
1B
1B
1B
1B
1B
03
ENDCHAR
STARTCHAR C022105
ENCODING 9285
SWIDTH 1400 0
DWIDTH 14 0
BBX 6 12 4 -2
BITMAP
1C
0C
0C
FC
0C
0C
0C
FC
0C
0C
0C
0C
ENDCHAR
STARTCHAR C022106
ENCODING 9286
SWIDTH 1400 0
DWIDTH 14 0
BBX 8 12 3 -2
BITMAP
3F
1B
1B
FB
1B
1B
1B
FB
1B
1B
1B
03
ENDCHAR
STARTCHAR C022107
ENCODING 9287
SWIDTH 1400 0
DWIDTH 14 0
BBX 12 7 2 1
BITMAP
0E00
0600
0600
0600
0600
0600
FFF0
ENDCHAR
STARTCHAR C022110
ENCODING 9288
SWIDTH 1400 0
DWIDTH 14 0
BBX 13 12 1 -2
BITMAP
01C0
00C0
00C0
0CC0
0CC0
0CD8
0CF0
0FC0
FEC0
00C0
00C0
00C0
ENDCHAR
STARTCHAR C022111
ENCODING 9289
SWIDTH 1400 0
DWIDTH 14 0
BBX 12 13 1 -2
BITMAP
0070
03B0
01B0
19B0
19B0
19B0
19F0
1BB0
FFB0
61B0
01B0
01B0
0030
ENDCHAR
STARTCHAR C022112
ENCODING 9290
SWIDTH 1400 0
DWIDTH 14 0
BBX 11 12 1 -2
BITMAP
00E0
0060
1860
0C60
0C60
0C60
0C60
0FE0
FE60
0060
0060
0060
ENDCHAR
STARTCHAR C022113
ENCODING 9291
SWIDTH 1400 0
DWIDTH 14 0
BBX 13 7 1 1
BITMAP
01C0
38C0
1980
1980
1980
1980
FFF8
ENDCHAR
STARTCHAR C022114
ENCODING 9292
SWIDTH 1400 0
DWIDTH 14 0
BBX 13 9 1 -2
BITMAP
FFF8
6300
0300
0300
0300
0300
0300
0300
0300
ENDCHAR
STARTCHAR C022115
ENCODING 9293
SWIDTH 1400 0
DWIDTH 14 0
BBX 10 12 2 -2
BITMAP
01C0
00C0
00C0
0EC0
F8C0
18C0
1FC0
18C0
18C0
18C0
00C0
00C0
ENDCHAR
STARTCHAR C022116
ENCODING 9294
SWIDTH 1400 0
DWIDTH 14 0
BBX 12 12 1 -2
BITMAP
0070
00F0
00F0
00F0
FEF0
18F0
1BF0
18F0
18F0
00F0
0030
0030
ENDCHAR
STARTCHAR C022117
ENCODING 9295
SWIDTH 1400 0
DWIDTH 14 0
BBX 10 12 2 -2
BITMAP
01C0
00C0
00C0
00C0
0FC0
F8C0
18C0
18C0
18C0
18C0
00C0
00C0
ENDCHAR
STARTCHAR C022120
ENCODING 9296
SWIDTH 1400 0
DWIDTH 14 0
BBX 13 10 1 -2
BITMAP
0018
FFF8
78C0
18C0
18C0
18C0
18C0
18C0
18C0
18C0
ENDCHAR
STARTCHAR C022121
ENCODING 9297
SWIDTH 1400 0
DWIDTH 14 0
BBX 13 2 1 4
BITMAP
0038
FFF8
ENDCHAR
STARTCHAR C022122
ENCODING 9298
SWIDTH 1400 0
DWIDTH 14 0
BBX 11 12 1 -2
BITMAP
00E0
0060
0060
0060
0060
0060
03E0
FE60
0060
0060
0060
0060
ENDCHAR
STARTCHAR C022123
ENCODING 9299
SWIDTH 1400 0
DWIDTH 14 0
BBX 3 12 6 -2
BITMAP
E0
60
60
60
60
60
60
60
60
60
60
60
ENDCHAR
STARTCHAR C022124
ENCODING 9300
SWIDTH 1400 0
DWIDTH 14 0
BBX 0 0 0 0
BITMAP
ENDCHAR
STARTCHAR C022125
ENCODING 9301
SWIDTH 1400 0
DWIDTH 14 0
BBX 12 7 2 1
BITMAP
0700
C300
C300
C300
C300
DB00
F3F0
ENDCHAR
STARTCHAR C022126
ENCODING 9302
SWIDTH 1400 0
DWIDTH 14 0
BBX 11 7 2 1
BITMAP
07E0
C600
C600
C600
C600
DE60
F7E0
ENDCHAR
STARTCHAR C022127
ENCODING 9303
SWIDTH 1400 0
DWIDTH 14 0
BBX 12 7 1 1
BITMAP
E0C0
60C0
6180
61C0
6360
7E30
7030
ENDCHAR
STARTCHAR C022130
ENCODING 9304
SWIDTH 1400 0
DWIDTH 14 0
BBX 13 7 1 1
BITMAP
C0C0
61C0
61E0
6360
6330
6F30
7FF8
ENDCHAR
STARTCHAR C022131
ENCODING 9305
SWIDTH 1400 0
DWIDTH 14 0
BBX 13 7 1 1
BITMAP
FF60
1B60
1B60
7B60
63F0
6398
7B98
ENDCHAR
STARTCHAR C022132
ENCODING 9306
SWIDTH 1400 0
DWIDTH 14 0
BBX 13 8 1 0
BITMAP
7FF0
0F00
0F00
FF00
6300
6300
6FF8
3800
ENDCHAR
STARTCHAR C022133
ENCODING 9307
SWIDTH 1400 0
DWIDTH 14 0
BBX 12 8 2 0
BITMAP
33C0
7F60
3F60
EFC0
CFE0
CFB0
FFB0
0F00
ENDCHAR
STARTCHAR C022134
ENCODING 9308
SWIDTH 1400 0
DWIDTH 14 0
BBX 13 7 1 1
BITMAP
FE00
0CE0
0DE0
7DE0
61B0
6730
7FF8
ENDCHAR
STARTCHAR C022135
ENCODING 9309
SWIDTH 1400 0
DWIDTH 14 0
BBX 13 8 1 0
BITMAP
FC00
0FF8
0CC0
FDE0
6330
6330
6DE0
7800
ENDCHAR
STARTCHAR C022136
ENCODING 9310
SWIDTH 1400 0
DWIDTH 14 0
BBX 12 8 2 0
BITMAP
0630
FB30
DB30
DBF0
DB30
DB30
FBF0
0330
ENDCHAR
STARTCHAR C022137
ENCODING 9311
SWIDTH 1400 0
DWIDTH 14 0
BBX 11 8 2 0
BITMAP
0300
F980
D980
D980
DB80
DEE0
FE60
CC00
ENDCHAR
STARTCHAR C022140
ENCODING 9312
SWIDTH 1400 0
DWIDTH 14 0
BBX 11 7 2 1
BITMAP
0180
F980
DBC0
DBC0
DB60
DE60
FFE0
ENDCHAR
STARTCHAR C022141
ENCODING 9313
SWIDTH 1400 0
DWIDTH 14 0
BBX 7 10 4 -1
BITMAP
FE
C6
C6
C6
FE
7C
C6
C6
C6
7C
ENDCHAR
STARTCHAR C022142
ENCODING 9314
SWIDTH 1400 0
DWIDTH 14 0
BBX 11 8 2 0
BITMAP
0C00
CFE0
CC60
FC60
CC60
CC60
FC60
C000
ENDCHAR
STARTCHAR C022143
ENCODING 9315
SWIDTH 1400 0
DWIDTH 14 0
BBX 12 8 2 0
BITMAP
CC00
CFE0
FF00
CF00
CF00
CF00
FF00
CFF0
ENDCHAR
STARTCHAR C022144
ENCODING 9316
SWIDTH 1400 0
DWIDTH 14 0
BBX 13 7 1 1
BITMAP
DB18
7B78
7B18
7B18
7F98
7ED8
7CD8
ENDCHAR
STARTCHAR C022145
ENCODING 9317
SWIDTH 1400 0
DWIDTH 14 0
BBX 13 8 1 0
BITMAP
DB30
7BE0
7BC0
7FC0
7FC0
7DC0
7CF8
0060
ENDCHAR
STARTCHAR C022146
ENCODING 9318
SWIDTH 1400 0
DWIDTH 14 0
BBX 11 8 2 0
BITMAP
1FE0
D980
D980
F980
DBC0
DB60
FE60
CC00
ENDCHAR
STARTCHAR C022147
ENCODING 9319
SWIDTH 1400 0
DWIDTH 14 0
BBX 12 9 1 0
BITMAP
0030
CFF0
6F00
6F00
7FE0
6F00
6F00
7FF0
6000
ENDCHAR
STARTCHAR C022150
ENCODING 9320
SWIDTH 1400 0
DWIDTH 14 0
BBX 9 12 3 -2
BITMAP
E180
6180
7F80
6180
6180
7F80
7E00
6300
6300
6300
7300
3E00
ENDCHAR
STARTCHAR C022151
ENCODING 9321
SWIDTH 1400 0
DWIDTH 14 0
BBX 9 12 3 -2
BITMAP
7780
F780
F780
F780
F780
F000
3E00
6700
6300
6300
6700
3E00
ENDCHAR
STARTCHAR C022152
ENCODING 9322
SWIDTH 1400 0
DWIDTH 14 0
BBX 11 7 2 1
BITMAP
3060
1BE0
1860
3860
7860
CC60
0660
ENDCHAR
STARTCHAR C022153
ENCODING 9323
SWIDTH 1400 0
DWIDTH 14 0
BBX 13 7 1 1
BITMAP
1980
1980
1980
1980
3D80
6780
C1F8
ENDCHAR
STARTCHAR C022154
ENCODING 9324
SWIDTH 1400 0
DWIDTH 14 0
BBX 13 7 1 1
BITMAP
19F8
1980
1980
3980
3D80
6780
C7F8
ENDCHAR
STARTCHAR C022155
ENCODING 9325
SWIDTH 1400 0
DWIDTH 14 0
BBX 12 7 1 1
BITMAP
1C30
19B0
19B0
39F0
3DB0
67B0
C1F0
ENDCHAR
STARTCHAR C022156
ENCODING 9326
SWIDTH 1400 0
DWIDTH 14 0
BBX 12 7 1 1
BITMAP
1BF0
18C0
18C0
38C0
3DE0
67B0
C300
ENDCHAR
STARTCHAR C022157
ENCODING 9327
SWIDTH 1400 0
DWIDTH 14 0
BBX 9 8 3 1
BITMAP
1800
0C00
1C00
3600
3600
6300
C180
FF80
ENDCHAR
STARTCHAR C022160
ENCODING 9328
SWIDTH 1400 0
DWIDTH 14 0
BBX 12 6 1 1
BITMAP
79E0
6DB0
CF30
C730
6DB0
7DF0
ENDCHAR
STARTCHAR C022161
ENCODING 9329
SWIDTH 1400 0
DWIDTH 14 0
BBX 7 8 4 0
BITMAP
18
7C
EE
C6
C6
C6
EE
7C
ENDCHAR
STARTCHAR C022162
ENCODING 9330
SWIDTH 1400 0
DWIDTH 14 0
BBX 13 8 1 1
BITMAP
3800
18C0
7CC0
E6C0
C7C0
C7E0
E730
7C18
ENDCHAR
STARTCHAR C022163
ENCODING 9331
SWIDTH 1400 0
DWIDTH 14 0
BBX 13 9 1 0
BITMAP
3800
18C0
7DE0
EFE0
C7E0
C730
C730
EFF8
7C00
ENDCHAR
STARTCHAR C022164
ENCODING 9332
SWIDTH 1400 0
DWIDTH 14 0
BBX 10 11 3 -1
BITMAP
0380
FF80
3300
3600
0600
FFC0
3E00
6300
6300
6300
3E00
ENDCHAR
STARTCHAR C022165
ENCODING 9333
SWIDTH 1400 0
DWIDTH 14 0
BBX 13 8 1 0
BITMAP
3CE0
0000
FFF8
1860
7DF0
6DB0
6DB0
38E0
ENDCHAR
STARTCHAR C022166
ENCODING 9334
SWIDTH 1400 0
DWIDTH 14 0
BBX 11 8 2 0
BITMAP
FFE0
0000
0000
1F00
3180
3180
3180
1F00
ENDCHAR
STARTCHAR C022167
ENCODING 9335
SWIDTH 1400 0
DWIDTH 14 0
BBX 13 12 1 -2
BITMAP
00E0
0060
0760
7360
3378
3360
3360
33F8
FE70
0060
0060
0060
ENDCHAR
STARTCHAR C022170
ENCODING 9336
SWIDTH 1400 0
DWIDTH 14 0
BBX 10 12 2 -2
BITMAP
07C0
03C0
0FC0
6FC0
6FC0
6FC0
6FC0
3BC0
E3C0
03C0
03C0
00C0
ENDCHAR
STARTCHAR C022171
ENCODING 9337
SWIDTH 1400 0
DWIDTH 14 0
BBX 10 12 2 -2
BITMAP
01C0
00C0
0EC0
76C0
36C0
36C0
36C0
3FC0
F8C0
00C0
00C0
00C0
ENDCHAR
STARTCHAR C022172
ENCODING 9338
SWIDTH 1400 0
DWIDTH 14 0
BBX 10 12 2 -2
BITMAP
01C0
00C0
00C0
0EC0
FCC0
3FC0
3CC0
3CC0
3FC0
3CC0
00C0
00C0
ENDCHAR
STARTCHAR C022173
ENCODING 9339
SWIDTH 1400 0
DWIDTH 14 0
BBX 12 12 1 -2
BITMAP
0070
00F0
00F0
00F0
FEF0
3FF0
3CF0
3FF0
3CF0
0CF0
0030
0030
ENDCHAR
STARTCHAR C022174
ENCODING 9340
SWIDTH 1400 0
DWIDTH 14 0
BBX 11 12 1 -2
BITMAP
00E0
0060
0060
0060
FFE0
1B60
1B60
1B60
1B60
1B60
0060
0060
ENDCHAR
STARTCHAR C022175
ENCODING 9341
SWIDTH 1400 0
DWIDTH 14 0
BBX 3 2 6 3
BITMAP
E0
E0
ENDCHAR
STARTCHAR C022176
ENCODING 9342
SWIDTH 1400 0
DWIDTH 14 0
BBX 8 12 4 -2
BITMAP
07
03
03
03
E3
E3
03
03
03
03
03
03
ENDCHAR
STARTCHAR C022177
ENCODING 9343
SWIDTH 1400 0
DWIDTH 14 0
BBX 0 0 0 0
BITMAP
ENDCHAR
STARTCHAR C022440
ENCODING 9504
SWIDTH 1400 0
DWIDTH 14 0
BBX 1 12 14 -2
BITMAP
80
80
80
80
00
00
00
00
00
00
00
80
ENDCHAR
STARTCHAR C022441
ENCODING 9505
SWIDTH 1400 0
DWIDTH 14 0
BBX 3 10 6 0
BITMAP
60
00
00
00
E0
60
60
60
60
60
ENDCHAR
STARTCHAR C022442
ENCODING 9506
SWIDTH 1400 0
DWIDTH 14 0
BBX 8 10 3 0
BITMAP
63
63
00
00
E7
63
63
63
63
63
ENDCHAR
STARTCHAR C022443
ENCODING 9507
SWIDTH 1400 0
DWIDTH 14 0
BBX 10 10 2 0
BITMAP
66C0
66C0
0000
0000
EFC0
66C0
66C0
66C0
66C0
66C0
ENDCHAR
STARTCHAR C022444
ENCODING 9508
SWIDTH 1400 0
DWIDTH 14 0
BBX 9 10 3 0
BITMAP
6000
0000
0000
0000
F980
7980
6F00
6F00
6600
6600
ENDCHAR
STARTCHAR C022445
ENCODING 9509
SWIDTH 1400 0
DWIDTH 14 0
BBX 6 6 5 0
BITMAP
CC
D8
78
70
30
30
ENDCHAR
STARTCHAR C022446
ENCODING 9510
SWIDTH 1400 0
DWIDTH 14 0
BBX 9 10 3 0
BITMAP
0180
0000
0000
0000
CD80
7980
7980
7980
3180
3180
ENDCHAR
STARTCHAR C022447
ENCODING 9511
SWIDTH 1400 0
DWIDTH 14 0
BBX 11 10 2 0
BITMAP
0360
0000
0000
0000
CF60
7B60
7B60
7360
3360
3360
ENDCHAR
STARTCHAR C022450
ENCODING 9512
SWIDTH 1400 0
DWIDTH 14 0
BBX 12 11 2 -1
BITMAP
06F0
0000
0000
0000
DFB0
DFB0
F7B0
77B0
67B0
67B0
03E0
ENDCHAR
STARTCHAR C022451
ENCODING 9513
SWIDTH 1400 0
DWIDTH 14 0
BBX 10 10 2 0
BITMAP
6000
0000
0000
E000
7FC0
6D80
6700
6F00
7980
FFC0
ENDCHAR
STARTCHAR C022452
ENCODING 9514
SWIDTH 1400 0
DWIDTH 14 0
BBX 7 6 4 0
BITMAP
60
7C
30
78
6C
CE
ENDCHAR
STARTCHAR C022453
ENCODING 9515
SWIDTH 1400 0
DWIDTH 14 0
BBX 0 0 0 0
BITMAP
ENDCHAR
STARTCHAR C022454
ENCODING 9516
SWIDTH 1400 0
DWIDTH 14 0
BBX 0 0 0 0
BITMAP
ENDCHAR
STARTCHAR C022455
ENCODING 9517
SWIDTH 1400 0
DWIDTH 14 0
BBX 0 0 0 0
BITMAP
ENDCHAR
STARTCHAR C022456
ENCODING 9518
SWIDTH 1400 0
DWIDTH 14 0
BBX 0 0 0 0
BITMAP
ENDCHAR
STARTCHAR C022457
ENCODING 9519
SWIDTH 1400 0
DWIDTH 14 0
BBX 1 12 14 -2
BITMAP
80
80
80
80
00
00
00
00
00
00
00
80
ENDCHAR
STARTCHAR C022460
ENCODING 9520
SWIDTH 1400 0
DWIDTH 14 0
BBX 5 10 5 0
BITMAP
F8
60
60
60
60
60
60
60
60
F0
ENDCHAR
STARTCHAR C022461
ENCODING 9521
SWIDTH 1400 0
DWIDTH 14 0
BBX 9 10 3 0
BITMAP
FF80
6300
6300
6300
6300
6300
6300
6300
6300
FF80
ENDCHAR
STARTCHAR C022462
ENCODING 9522
SWIDTH 1400 0
DWIDTH 14 0
BBX 11 10 2 -1
BITMAP
7FC0
66C0
66C0
66C0
66C0
66C0
66C0
66C0
FEE0
1B80
ENDCHAR
STARTCHAR C022463
ENCODING 9523
SWIDTH 1400 0
DWIDTH 14 0
BBX 11 9 2 0
BITMAP
7C60
6C60
6CC0
66C0
66C0
6780
6380
6380
F300
ENDCHAR
STARTCHAR C022464
ENCODING 9524
SWIDTH 1400 0
DWIDTH 14 0
BBX 11 10 2 0
BITMAP
F9E0
70C0
3180
3180
1B00
1B00
1E00
0E00
0E00
0C00
ENDCHAR
STARTCHAR C022465
ENCODING 9525
SWIDTH 1400 0
DWIDTH 14 0
BBX 11 9 2 0
BITMAP
C7E0
C6C0
6CC0
6CC0
6CC0
78C0
38C0
38C0
31E0
ENDCHAR
STARTCHAR C022466
ENCODING 9526
SWIDTH 1400 0
DWIDTH 14 0
BBX 13 10 1 0
BITMAP
FFF8
C7B0
6DB0
6DB0
6DB0
6DB0
39B0
39B0
39B0
03F8
ENDCHAR
STARTCHAR C022467
ENCODING 9527
SWIDTH 1400 0
DWIDTH 14 0
BBX 13 10 1 -1
BITMAP
CFF8
CFD8
DBD8
7BD8
7BD8
73D8
73D8
33D8
37D8
01F0
ENDCHAR
STARTCHAR C022470
ENCODING 9528
SWIDTH 1400 0
DWIDTH 14 0
BBX 11 9 2 0
BITMAP
7C60
66C0
6780
6300
6300
6780
6CC0
6CC0
FCE0
ENDCHAR
STARTCHAR C022471
ENCODING 9529
SWIDTH 1400 0
DWIDTH 14 0
BBX 11 10 2 0
BITMAP
7BC0
3180
1B00
1E00
0C00
1E00
1B00
3300
6180
FBE0
ENDCHAR
STARTCHAR C022472
ENCODING 9530
SWIDTH 1400 0
DWIDTH 14 0
BBX 0 0 0 0
BITMAP
ENDCHAR
STARTCHAR C022473
ENCODING 9531
SWIDTH 1400 0
DWIDTH 14 0
BBX 0 0 0 0
BITMAP
ENDCHAR
STARTCHAR C022474
ENCODING 9532
SWIDTH 1400 0
DWIDTH 14 0
BBX 0 0 0 0
BITMAP
ENDCHAR
STARTCHAR C022475
ENCODING 9533
SWIDTH 1400 0
DWIDTH 14 0
BBX 0 0 0 0
BITMAP
ENDCHAR
STARTCHAR C022476
ENCODING 9534
SWIDTH 1400 0
DWIDTH 14 0
BBX 1 12 14 -2
BITMAP
80
80
80
80
00
00
00
00
00
00
00
80
ENDCHAR
STARTCHAR C022477
ENCODING 9535
SWIDTH 1400 0
DWIDTH 14 0
BBX 0 0 0 0
BITMAP
ENDCHAR
STARTCHAR C022500
ENCODING 9536
SWIDTH 1400 0
DWIDTH 14 0
BBX 0 0 0 0
BITMAP
ENDCHAR
STARTCHAR C022501
ENCODING 9537
SWIDTH 1400 0
DWIDTH 14 0
BBX 11 9 2 0
BITMAP
0180
0780
0780
0D80
18C0
1FC0
30C0
60C0
E0E0
ENDCHAR
STARTCHAR C022502
ENCODING 9538
SWIDTH 1400 0
DWIDTH 14 0
BBX 10 10 3 -1
BITMAP
3FC0
30C0
30C0
3380
7F00
6180
6180
C180
E700
3C00
ENDCHAR
STARTCHAR C022503
ENCODING 9539
SWIDTH 1400 0
DWIDTH 14 0
BBX 10 9 3 0
BITMAP
1FC0
30C0
3000
3000
3000
6000
6000
6000
E000
ENDCHAR
STARTCHAR C022504
ENCODING 9540
SWIDTH 1400 0
DWIDTH 14 0
BBX 10 9 2 0
BITMAP
01C0
03C0
06C0
06C0
0CC0
18C0
30C0
6180
FF80
ENDCHAR
STARTCHAR C022505
ENCODING 9541
SWIDTH 1400 0
DWIDTH 14 0
BBX 11 10 2 -1
BITMAP
1FE0
1800
1800
1B00
3F00
3300
3000
60C0
F380
1E00
ENDCHAR
STARTCHAR C022506
ENCODING 9542
SWIDTH 1400 0
DWIDTH 14 0
BBX 10 10 3 0
BITMAP
3FC0
3180
6300
0600
0C00
1800
3000
6000
C700
FE00
ENDCHAR
STARTCHAR C022507
ENCODING 9543
SWIDTH 1400 0
DWIDTH 14 0
BBX 11 9 2 0
BITMAP
38E0
30C0
30C0
30C0
7F80
6180
6180
C300
E780
ENDCHAR
STARTCHAR C022510
ENCODING 9544
SWIDTH 1400 0
DWIDTH 14 0
BBX 10 11 2 -1
BITMAP
0F80
18C0
30C0
60C0
7FC0
7FC0
C0C0
6180
6180
3700
1C00
ENDCHAR
STARTCHAR C022511
ENCODING 9545
SWIDTH 1400 0
DWIDTH 14 0
BBX 5 9 5 0
BITMAP
38
30
30
30
60
60
60
C0
E0
ENDCHAR
STARTCHAR C022512
ENCODING 9546
SWIDTH 1400 0
DWIDTH 14 0
BBX 13 10 1 0
BITMAP
1FF8
0C60
0CC0
1B80
1F00
1B00
3180
3180
30C0
FBE0
ENDCHAR
STARTCHAR C022513
ENCODING 9547
SWIDTH 1400 0
DWIDTH 14 0
BBX 11 10 2 -1
BITMAP
0780
0780
0D80
1980
1980
3180
6180
6180
E3C0
0060
ENDCHAR
STARTCHAR C022514
ENCODING 9548
SWIDTH 1400 0
DWIDTH 14 0
BBX 14 9 1 0
BITMAP
1C78
3C70
3CF0
3DB0
6DE0
6F60
6E60
CEC0
EDE4
ENDCHAR
STARTCHAR C022515
ENCODING 9549
SWIDTH 1400 0
DWIDTH 14 0
BBX 13 9 1 0
BITMAP
1C38
1C60
1E60
3660
33C0
33C0
33C0
6180
F180
ENDCHAR
STARTCHAR C022516
ENCODING 9550
SWIDTH 1400 0
DWIDTH 14 0
BBX 11 9 2 0
BITMAP
3FE0
3000
0000
1980
1F00
3000
0000
C180
FF80
ENDCHAR
STARTCHAR C022517
ENCODING 9551
SWIDTH 1400 0
DWIDTH 14 0
BBX 9 11 3 -1
BITMAP
0F00
3980
6180
6180
C180
C180
C180
C300
C600
6C00
3800
ENDCHAR
STARTCHAR C022520
ENCODING 9552
SWIDTH 1400 0
DWIDTH 14 0
BBX 11 9 2 0
BITMAP
1FE0
18C0
30C0
3180
3180
6180
6300
6300
E700
ENDCHAR
STARTCHAR C022521
ENCODING 9553
SWIDTH 1400 0
DWIDTH 14 0
BBX 11 10 2 0
BITMAP
0FC0
0C60
0C60
1860
18C0
1F80
3000
3000
3000
F800
ENDCHAR
STARTCHAR C022522
ENCODING 9554
SWIDTH 1400 0
DWIDTH 14 0
BBX 11 9 2 0
BITMAP
1FE0
0C00
0C00
0600
0600
0C00
1800
7180
FF80
ENDCHAR
STARTCHAR C022523
ENCODING 9555
SWIDTH 1400 0
DWIDTH 14 0
BBX 10 10 3 0
BITMAP
FFC0
CCC0
18C0
1800
1800
3000
3000
3000
6000
F800
ENDCHAR
STARTCHAR C022524
ENCODING 9556
SWIDTH 1400 0
DWIDTH 14 0
BBX 11 10 2 0
BITMAP
79E0
0F00
0C00
0C00
1800
1800
1800
3000
3000
F800
ENDCHAR
STARTCHAR C022525
ENCODING 9557
SWIDTH 1400 0
DWIDTH 14 0
BBX 9 10 3 0
BITMAP
0F00
1E00
7F00
6D80
CD80
D980
D980
DB00
7700
3C00
ENDCHAR
STARTCHAR C022526
ENCODING 9558
SWIDTH 1400 0
DWIDTH 14 0
BBX 12 10 1 0
BITMAP
1E70
0C60
0CC0
0780
0700
0F00
1980
3180
60C0
F3E0
ENDCHAR
STARTCHAR C022527
ENCODING 9559
SWIDTH 1400 0
DWIDTH 14 0
BBX 11 10 2 0
BITMAP
7FE0
37E0
3D80
6D80
6D80
DB80
7B00
3E00
3000
7C00
ENDCHAR
STARTCHAR C022530
ENCODING 9560
SWIDTH 1400 0
DWIDTH 14 0
BBX 11 10 2 0
BITMAP
0780
1CE0
3060
3060
6060
60C0
30C0
1F80
DCC0
FFC0
ENDCHAR
STARTCHAR C022531
ENCODING 9561
SWIDTH 1400 0
DWIDTH 14 0
BBX 0 0 0 0
BITMAP
ENDCHAR
STARTCHAR C022532
ENCODING 9562
SWIDTH 1400 0
DWIDTH 14 0
BBX 0 0 0 0
BITMAP
ENDCHAR
STARTCHAR C022533
ENCODING 9563
SWIDTH 1400 0
DWIDTH 14 0
BBX 0 0 0 0
BITMAP
ENDCHAR
STARTCHAR C022534
ENCODING 9564
SWIDTH 1400 0
DWIDTH 14 0
BBX 1 12 14 -2
BITMAP
80
80
80
80
00
00
00
00
00
00
00
80
ENDCHAR
STARTCHAR C022535
ENCODING 9565
SWIDTH 1400 0
DWIDTH 14 0
BBX 0 0 0 0
BITMAP
ENDCHAR
STARTCHAR C022536
ENCODING 9566
SWIDTH 1400 0
DWIDTH 14 0
BBX 0 0 0 0
BITMAP
ENDCHAR
STARTCHAR C022537
ENCODING 9567
SWIDTH 1400 0
DWIDTH 14 0
BBX 0 0 0 0
BITMAP
ENDCHAR
STARTCHAR C022540
ENCODING 9568
SWIDTH 1400 0
DWIDTH 14 0
BBX 1 2 14 1
BITMAP
80
80
ENDCHAR
STARTCHAR C022541
ENCODING 9569
SWIDTH 1400 0
DWIDTH 14 0
BBX 8 6 3 0
BITMAP
3F
67
6E
C6
CC
7E
ENDCHAR
STARTCHAR C022542
ENCODING 9570
SWIDTH 1400 0
DWIDTH 14 0
BBX 9 12 3 -2
BITMAP
0700
1D80
1980
3180
3300
3600
6300
6300
6300
7E00
C000
C000
ENDCHAR
STARTCHAR C022543
ENCODING 9571
SWIDTH 1400 0
DWIDTH 14 0
BBX 7 8 4 -2
BITMAP
F6
3C
38
30
60
60
C0
C0
ENDCHAR
STARTCHAR C022544
ENCODING 9572
SWIDTH 1400 0
DWIDTH 14 0
BBX 7 10 4 0
BITMAP
18
3C
36
18
78
CC
CC
CC
DC
78
ENDCHAR
STARTCHAR C022545
ENCODING 9573
SWIDTH 1400 0
DWIDTH 14 0
BBX 7 6 4 0
BITMAP
7E
60
78
C0
C0
7C
ENDCHAR
STARTCHAR C022546
ENCODING 9574
SWIDTH 1400 0
DWIDTH 14 0
BBX 7 12 4 -2
BITMAP
70
6E
7C
70
C0
C0
C0
C0
78
18
78
70
ENDCHAR
STARTCHAR C022547
ENCODING 9575
SWIDTH 1400 0
DWIDTH 14 0
BBX 7 8 4 -2
BITMAP
FE
36
6C
6C
CC
18
18
30
ENDCHAR
STARTCHAR C022550
ENCODING 9576
SWIDTH 1400 0
DWIDTH 14 0
BBX 7 11 4 -1
BITMAP
1C
36
66
66
C6
FE
CC
CC
D8
F0
60
ENDCHAR
STARTCHAR C022551
ENCODING 9577
SWIDTH 1400 0
DWIDTH 14 0
BBX 5 6 5 0
BITMAP
30
70
60
C0
D8
70
ENDCHAR
STARTCHAR C022552
ENCODING 9578
SWIDTH 1400 0
DWIDTH 14 0
BBX 7 6 4 0
BITMAP
3E
78
70
78
D8
DC
ENDCHAR
STARTCHAR C022553
ENCODING 9579
SWIDTH 1400 0
DWIDTH 14 0
BBX 7 9 4 0
BITMAP
0E
06
06
0C
3C
3C
6C
CC
CE
ENDCHAR
STARTCHAR C022554
ENCODING 9580
SWIDTH 1400 0
DWIDTH 14 0
BBX 8 8 4 -2
BITMAP
33
37
66
66
CC
FE
F0
C0
ENDCHAR
STARTCHAR C022555
ENCODING 9581
SWIDTH 1400 0
DWIDTH 14 0
BBX 7 6 4 0
BITMAP
66
66
6C
CC
F8
E0
ENDCHAR
STARTCHAR C022556
ENCODING 9582
SWIDTH 1400 0
DWIDTH 14 0
BBX 8 12 3 -2
BITMAP
0E
18
1F
30
60
3F
70
C0
C0
7C
0C
1C
ENDCHAR
STARTCHAR C022557
ENCODING 9583
SWIDTH 1400 0
DWIDTH 14 0
BBX 7 7 4 -1
BITMAP
7C
66
C6
CC
CC
D8
70
ENDCHAR
STARTCHAR C022560
ENCODING 9584
SWIDTH 1400 0
DWIDTH 14 0
BBX 9 6 3 0
BITMAP
7F80
3C00
3C00
6C00
6C00
EE00
ENDCHAR
STARTCHAR C022561
ENCODING 9585
SWIDTH 1400 0
DWIDTH 14 0
BBX 7 8 4 -2
BITMAP
1C
36
66
66
E6
EC
F8
C0
ENDCHAR
STARTCHAR C022562
ENCODING 9586
SWIDTH 1400 0
DWIDTH 14 0
BBX 8 8 3 -1
BITMAP
0F
3C
66
66
C6
66
6C
38
ENDCHAR
STARTCHAR C022563
ENCODING 9587
SWIDTH 1400 0
DWIDTH 14 0
BBX 6 6 5 0
BITMAP
FC
60
C0
C0
C0
E0
ENDCHAR
STARTCHAR C022564
ENCODING 9588
SWIDTH 1400 0
DWIDTH 14 0
BBX 7 7 4 -1
BITMAP
76
66
6C
CC
D8
F0
60
ENDCHAR
STARTCHAR C022565
ENCODING 9589
SWIDTH 1400 0
DWIDTH 14 0
BBX 9 8 3 -2
BITMAP
1F00
7F00
D980
DB00
DB00
7E00
3000
3000
ENDCHAR
STARTCHAR C022566
ENCODING 9590
SWIDTH 1400 0
DWIDTH 14 0
BBX 9 8 3 -2
BITMAP
3980
0F00
0E00
0C00
1C00
3C00
6C00
E700
ENDCHAR
STARTCHAR C022567
ENCODING 9591
SWIDTH 1400 0
DWIDTH 14 0
BBX 8 12 3 -2
BITMAP
06
06
06
0C
3F
7B
DB
DB
76
3C
30
70
ENDCHAR
STARTCHAR C022570
ENCODING 9592
SWIDTH 1400 0
DWIDTH 14 0
BBX 9 7 3 -1
BITMAP
6180
CD80
DD80
1980
F300
FE00
0C00
ENDCHAR
STARTCHAR C022571
ENCODING 9593
SWIDTH 1400 0
DWIDTH 14 0
BBX 0 0 0 0
BITMAP
ENDCHAR
STARTCHAR C022572
ENCODING 9594
SWIDTH 1400 0
DWIDTH 14 0
BBX 1 12 14 -2
BITMAP
80
80
80
80
00
00
00
00
00
00
00
80
ENDCHAR
STARTCHAR C022573
ENCODING 9595
SWIDTH 1400 0
DWIDTH 14 0
BBX 0 0 0 0
BITMAP
ENDCHAR
STARTCHAR C022574
ENCODING 9596
SWIDTH 1400 0
DWIDTH 14 0
BBX 0 0 0 0
BITMAP
ENDCHAR
STARTCHAR C022575
ENCODING 9597
SWIDTH 1400 0
DWIDTH 14 0
BBX 0 0 0 0
BITMAP
ENDCHAR
STARTCHAR C022576
ENCODING 9598
SWIDTH 1400 0
DWIDTH 14 0
BBX 0 0 0 0
BITMAP
ENDCHAR
STARTCHAR C022577
ENCODING 9599
SWIDTH 1400 0
DWIDTH 14 0
BBX 1 7 14 4
BITMAP
80
00
00
00
00
00
80
ENDCHAR
STARTCHAR C023040
ENCODING 9760
SWIDTH 1400 0
DWIDTH 14 0
BBX 1 1 14 4
BITMAP
80
ENDCHAR
STARTCHAR C023041
ENCODING 9761
SWIDTH 1400 0
DWIDTH 14 0
BBX 14 1 0 4
BITMAP
FFFC
ENDCHAR
STARTCHAR C023042
ENCODING 9762
SWIDTH 1400 0
DWIDTH 14 0
BBX 0 0 0 0
BITMAP
ENDCHAR
STARTCHAR C023043
ENCODING 9763
SWIDTH 1400 0
DWIDTH 14 0
BBX 7 1 7 4
BITMAP
FE
ENDCHAR
STARTCHAR C023044
ENCODING 9764
SWIDTH 1400 0
DWIDTH 14 0
BBX 15 8 0 -3
BITMAP
FF00
0300
0300
0300
0302
0300
0300
0302
ENDCHAR
STARTCHAR C023045
ENCODING 9765
SWIDTH 1400 0
DWIDTH 14 0
BBX 15 7 0 4
BITMAP
0300
0300
0300
0300
0300
0300
FF02
ENDCHAR
STARTCHAR C023046
ENCODING 9766
SWIDTH 1400 0
DWIDTH 14 0
BBX 7 1 7 4
BITMAP
FE
ENDCHAR
STARTCHAR C023047
ENCODING 9767
SWIDTH 1400 0
DWIDTH 14 0
BBX 7 1 7 4
BITMAP
FE
ENDCHAR
STARTCHAR C023050
ENCODING 9768
SWIDTH 1400 0
DWIDTH 14 0
BBX 15 8 0 -3
BITMAP
FFFE
0300
0300
0300
0300
0300
0300
0300
ENDCHAR
STARTCHAR C023051
ENCODING 9769
SWIDTH 1400 0
DWIDTH 14 0
BBX 15 14 0 -3
BITMAP
0300
0302
0302
0302
0302
0300
FF00
0300
0300
0300
0300
0300
0302
0300
ENDCHAR
STARTCHAR C023052
ENCODING 9770
SWIDTH 1400 0
DWIDTH 14 0
BBX 15 7 0 4
BITMAP
0300
0300
0300
0300
0300
0300
FFFE
ENDCHAR
STARTCHAR C023053
ENCODING 9771
SWIDTH 1400 0
DWIDTH 14 0
BBX 15 14 0 -3
BITMAP
0300
0300
0300
0300
0300
0300
FFFE
0300
0300
0300
0300
0300
0300
0300
ENDCHAR
STARTCHAR C023054
ENCODING 9772
SWIDTH 1400 0
DWIDTH 14 0
BBX 15 14 0 -3
BITMAP
0002
0002
0002
0002
0002
0002
FFFE
0002
0002
0002
0002
0002
0002
0002
ENDCHAR
STARTCHAR C023055
ENCODING 9773
SWIDTH 1400 0
DWIDTH 14 0
BBX 2 14 6 -3
BITMAP
C0
C0
C0
C0
C0
C0
C0
C0
C0
C0
C0
C0
C0
C0
ENDCHAR
STARTCHAR C023056
ENCODING 9774
SWIDTH 1400 0
DWIDTH 14 0
BBX 8 8 6 -3
BITMAP
FF
C0
C0
C0
C0
C0
C0
C0
ENDCHAR
STARTCHAR C023057
ENCODING 9775
SWIDTH 1400 0
DWIDTH 14 0
BBX 15 8 0 -3
BITMAP
FF02
0300
0300
0300
0300
0300
0300
0300
ENDCHAR
STARTCHAR C023060
ENCODING 9776
SWIDTH 1400 0
DWIDTH 14 0
BBX 15 7 0 4
BITMAP
0302
0302
0302
0302
0302
0302
FF02
ENDCHAR
STARTCHAR C023061
ENCODING 9777
SWIDTH 1400 0
DWIDTH 14 0
BBX 8 7 6 4
BITMAP
C0
C0
C0
C0
C0
C0
FF
ENDCHAR
STARTCHAR C023062
ENCODING 9778
SWIDTH 1400 0
DWIDTH 14 0
BBX 8 14 6 -3
BITMAP
C0
C0
C0
C0
C0
C0
FF
C0
C0
C0
C0
C0
C0
C0
ENDCHAR
STARTCHAR C023063
ENCODING 9779
SWIDTH 1400 0
DWIDTH 14 0
BBX 15 8 0 -3
BITMAP
FFFC
0300
0300
0300
0302
0300
0300
0302
ENDCHAR
STARTCHAR C023064
ENCODING 9780
SWIDTH 1400 0
DWIDTH 14 0
BBX 8 14 0 -3
BITMAP
03
03
03
03
03
03
FF
03
03
03
03
03
03
03
ENDCHAR
STARTCHAR C023065
ENCODING 9781
SWIDTH 1400 0
DWIDTH 14 0
BBX 13 7 1 4
BITMAP
0300
0300
0300
0300
0300
0300
FFF8
ENDCHAR
STARTCHAR C023066
ENCODING 9782
SWIDTH 1400 0
DWIDTH 14 0
BBX 15 14 0 -3
BITMAP
0180
0180
0180
0180
0180
0180
7FFC
0180
0180
0180
0180
0180
0180
0180
ENDCHAR
STARTCHAR C023067
ENCODING 9783
SWIDTH 1400 0
DWIDTH 14 0
BBX 7 14 7 -3
BITMAP
C0
C0
C0
C0
C0
C0
FE
C0
C0
C0
C0
C0
C0
C0
ENDCHAR
STARTCHAR C023070
ENCODING 9784
SWIDTH 1400 0
DWIDTH 14 0
BBX 15 13 0 -3
BITMAP
0002
0002
0002
0002
0000
FFFC
0300
0300
0300
0300
0300
0302
0300
ENDCHAR
STARTCHAR C023071
ENCODING 9785
SWIDTH 1400 0
DWIDTH 14 0
BBX 15 14 0 -3
BITMAP
0180
0180
0180
0180
0180
0180
7F82
0180
0180
0180
0180
0180
0180
0180
ENDCHAR
STARTCHAR C023072
ENCODING 9786
SWIDTH 1400 0
DWIDTH 14 0
BBX 15 7 0 4
BITMAP
0300
0300
0300
0300
0300
0300
FFFE
ENDCHAR
STARTCHAR C023073
ENCODING 9787
SWIDTH 1400 0
DWIDTH 14 0
BBX 15 14 0 -3
BITMAP
0300
0300
0300
0300
0300
0300
FFFE
0300
0300
0300
0300
0300
0300
0300
ENDCHAR
STARTCHAR C023074
ENCODING 9788
SWIDTH 1400 0
DWIDTH 14 0
BBX 7 1 7 4
BITMAP
FE
ENDCHAR
STARTCHAR C023075
ENCODING 9789
SWIDTH 1400 0
DWIDTH 14 0
BBX 15 14 0 -3
BITMAP
0002
0000
0000
0000
0000
0000
FFFE
0300
0300
0300
0300
0300
0300
0300
ENDCHAR
STARTCHAR C023076
ENCODING 9790
SWIDTH 1400 0
DWIDTH 14 0
BBX 15 14 0 -3
BITMAP
0300
0300
0300
0300
0300
0300
FF02
0300
0300
0300
0300
0300
0300
0300
ENDCHAR
STARTCHAR C023077
ENCODING 9791
SWIDTH 1400 0
DWIDTH 14 0
BBX 15 7 0 4
BITMAP
0300
0300
0300
0300
0300
0300
FFFE
ENDCHAR
STARTCHAR C023100
ENCODING 9792
SWIDTH 1400 0
DWIDTH 14 0
BBX 15 14 0 -3
BITMAP
0300
0300
0300
0300
0300
0300
FFFE
0300
0300
0300
0300
0300
0300
0300
ENDCHAR
STARTCHAR C023101
ENCODING 9793
SWIDTH 1400 0
DWIDTH 14 0
BBX 15 8 0 -3
BITMAP
FF02
0300
0300
0300
0300
0300
0300
0300
ENDCHAR
STARTCHAR C023102
ENCODING 9794
SWIDTH 1400 0
DWIDTH 14 0
BBX 15 8 0 -3
BITMAP
FF00
0300
0300
0300
0302
0300
0300
0302
ENDCHAR
STARTCHAR C023103
ENCODING 9795
SWIDTH 1400 0
DWIDTH 14 0
BBX 14 7 1 4
BITMAP
0300
0300
0300
0300
0300
0300
FF04
ENDCHAR
STARTCHAR C023104
ENCODING 9796
SWIDTH 1400 0
DWIDTH 14 0
BBX 15 7 0 4
BITMAP
0182
0182
0182
0182
0182
0182
FF82
ENDCHAR
STARTCHAR C023105
ENCODING 9797
SWIDTH 1400 0
DWIDTH 14 0
BBX 8 7 6 4
BITMAP
C0
C0
C0
C0
C0
C0
FF
ENDCHAR
STARTCHAR C023106
ENCODING 9798
SWIDTH 1400 0
DWIDTH 14 0
BBX 7 1 7 4
BITMAP
FE
ENDCHAR
STARTCHAR C023107
ENCODING 9799
SWIDTH 1400 0
DWIDTH 14 0
BBX 7 8 7 -3
BITMAP
FE
C0
C0
C0
C0
C0
C0
C0
ENDCHAR
STARTCHAR C023110
ENCODING 9800
SWIDTH 1400 0
DWIDTH 14 0
BBX 7 1 7 4
BITMAP
FE
ENDCHAR
STARTCHAR C023111
ENCODING 9801
SWIDTH 1400 0
DWIDTH 14 0
BBX 8 14 6 -3
BITMAP
60
60
60
60
60
60
7F
C0
C0
C0
C0
C0
C0
C0
ENDCHAR
STARTCHAR C023112
ENCODING 9802
SWIDTH 1400 0
DWIDTH 14 0
BBX 7 14 7 -3
BITMAP
C0
C0
C0
C0
C0
C0
FE
C0
C0
C0
C0
C0
C0
C0
ENDCHAR
STARTCHAR C023113
ENCODING 9803
SWIDTH 1400 0
DWIDTH 14 0
BBX 8 14 6 -3
BITMAP
60
60
60
60
60
60
7F
C0
C0
C0
C0
C0
C0
C0
ENDCHAR
STARTCHAR C023114
ENCODING 9804
SWIDTH 1400 0
DWIDTH 14 0
BBX 7 14 7 -3
BITMAP
C0
C0
C0
C0
C0
C0
FE
C0
C0
C0
C0
C0
C0
C0
ENDCHAR
STARTCHAR C023115
ENCODING 9805
SWIDTH 1400 0
DWIDTH 14 0
BBX 8 14 0 -3
BITMAP
03
03
03
03
03
03
FF
03
03
03
03
03
03
03
ENDCHAR
STARTCHAR C023116
ENCODING 9806
SWIDTH 1400 0
DWIDTH 14 0
BBX 8 14 1 -3
BITMAP
03
03
03
03
03
03
FF
03
03
03
03
03
03
03
ENDCHAR
STARTCHAR C023117
ENCODING 9807
SWIDTH 1400 0
DWIDTH 14 0
BBX 8 14 1 -3
BITMAP
03
03
03
03
03
03
FF
03
03
03
03
03
03
03
ENDCHAR
STARTCHAR C023120
ENCODING 9808
SWIDTH 1400 0
DWIDTH 14 0
BBX 15 14 0 -3
BITMAP
0300
0300
0300
0300
0300
0300
7F02
0180
0180
0180
0180
0180
0180
0180
ENDCHAR
STARTCHAR C023121
ENCODING 9809
SWIDTH 1400 0
DWIDTH 14 0
BBX 15 8 0 -3
BITMAP
FFFC
0300
0300
0300
0302
0300
0300
0302
ENDCHAR
STARTCHAR C023122
ENCODING 9810
SWIDTH 1400 0
DWIDTH 14 0
BBX 15 8 0 -3
BITMAP
FFFE
0300
0300
0300
0300
0300
0300
0300
ENDCHAR
STARTCHAR C023123
ENCODING 9811
SWIDTH 1400 0
DWIDTH 14 0
BBX 15 8 0 -3
BITMAP
FFFE
0300
0300
0300
0300
0300
0300
0300
ENDCHAR
STARTCHAR C023124
ENCODING 9812
SWIDTH 1400 0
DWIDTH 14 0
BBX 15 8 0 -3
BITMAP
FFFE
0300
0300
0300
0300
0300
0300
0300
ENDCHAR
STARTCHAR C023125
ENCODING 9813
SWIDTH 1400 0
DWIDTH 14 0
BBX 15 7 0 4
BITMAP
0300
0300
0300
0300
0300
0300
FFFE
ENDCHAR
STARTCHAR C023126
ENCODING 9814
SWIDTH 1400 0
DWIDTH 14 0
BBX 15 13 0 -2
BITMAP
0300
0302
0302
0302
0302
0300
FFFC
0000
0000
0000
0000
0000
0002
ENDCHAR
STARTCHAR C023127
ENCODING 9815
SWIDTH 1400 0
DWIDTH 14 0
BBX 15 7 0 4
BITMAP
0300
0300
0300
0300
0300
0300
FFFE
ENDCHAR
STARTCHAR C023130
ENCODING 9816
SWIDTH 1400 0
DWIDTH 14 0
BBX 15 7 0 4
BITMAP
0300
0300
0300
0300
0300
0300
FFFE
ENDCHAR
STARTCHAR C023131
ENCODING 9817
SWIDTH 1400 0
DWIDTH 14 0
BBX 15 14 0 -3
BITMAP
0300
0300
0300
0300
0300
0300
FFFE
0300
0300
0300
0300
0300
0300
0300
ENDCHAR
STARTCHAR C023132
ENCODING 9818
SWIDTH 1400 0
DWIDTH 14 0
BBX 15 14 0 -3
BITMAP
0300
0300
0300
0300
0300
0300
FFFE
0300
0300
0300
0300
0300
0300
0300
ENDCHAR
STARTCHAR C023133
ENCODING 9819
SWIDTH 1400 0
DWIDTH 14 0
BBX 15 14 0 -3
BITMAP
0302
0300
0300
0300
0300
0300
FFFE
0300
0300
0300
0300
0300
0300
0300
ENDCHAR
STARTCHAR C023134
ENCODING 9820
SWIDTH 1400 0
DWIDTH 14 0
BBX 15 14 0 -3
BITMAP
0300
0300
0300
0300
0300
0300
FFFC
0300
0300
0300
0300
0300
0300
0300
ENDCHAR
STARTCHAR C023135
ENCODING 9821
SWIDTH 1400 0
DWIDTH 14 0
BBX 15 14 0 -3
BITMAP
0180
0180
0180
0180
0180
0180
7FFE
0180
0180
0180
0180
0180
0180
0180
ENDCHAR
STARTCHAR C023136
ENCODING 9822
SWIDTH 1400 0
DWIDTH 14 0
BBX 15 14 0 -3
BITMAP
0300
0300
0300
0300
0300
0300
FFFE
0300
0300
0300
0300
0300
0300
0300
ENDCHAR
STARTCHAR C023137
ENCODING 9823
SWIDTH 1400 0
DWIDTH 14 0
BBX 15 14 0 -3
BITMAP
0300
0300
0300
0300
0300
0300
FFFE
0300
0300
0300
0300
0300
0300
0300
ENDCHAR
STARTCHAR C023140
ENCODING 9824
SWIDTH 1400 0
DWIDTH 14 0
BBX 15 14 0 -3
BITMAP
0300
0300
0300
0300
0300
0300
FFFC
0300
0300
0300
0302
0300
0300
0302
ENDCHAR
STARTCHAR C023141
ENCODING 9825
SWIDTH 1400 0
DWIDTH 14 0
BBX 15 14 0 -3
BITMAP
0180
0180
0180
0180
0180
0180
7FFC
0300
0300
0300
0300
0300
0300
0300
ENDCHAR
STARTCHAR C023142
ENCODING 9826
SWIDTH 1400 0
DWIDTH 14 0
BBX 15 14 0 -3
BITMAP
0180
0180
0180
0180
0180
0180
7FFE
0180
0180
0180
0180
0180
0180
0180
ENDCHAR
STARTCHAR C023143
ENCODING 9827
SWIDTH 1400 0
DWIDTH 14 0
BBX 15 14 0 -3
BITMAP
0300
0300
0300
0300
0300
0300
FFFE
0300
0300
0300
0300
0300
0300
0300
ENDCHAR
STARTCHAR C023144
ENCODING 9828
SWIDTH 1400 0
DWIDTH 14 0
BBX 15 14 0 -3
BITMAP
0300
0300
0300
0300
0300
0300
FFFC
0300
0300
0300
0300
0300
0300
0300
ENDCHAR
STARTCHAR C023145
ENCODING 9829
SWIDTH 1400 0
DWIDTH 14 0
BBX 1 12 14 -2
BITMAP
80
80
80
80
00
00
00
00
00
00
00
80
ENDCHAR
STARTCHAR C023146
ENCODING 9830
SWIDTH 1400 0
DWIDTH 14 0
BBX 0 0 0 0
BITMAP
ENDCHAR
STARTCHAR C023147
ENCODING 9831
SWIDTH 1400 0
DWIDTH 14 0
BBX 0 0 0 0
BITMAP
ENDCHAR
STARTCHAR C023150
ENCODING 9832
SWIDTH 1400 0
DWIDTH 14 0
BBX 0 0 0 0
BITMAP
ENDCHAR
STARTCHAR C023151
ENCODING 9833
SWIDTH 1400 0
DWIDTH 14 0
BBX 0 0 0 0
BITMAP
ENDCHAR
STARTCHAR C023152
ENCODING 9834
SWIDTH 1400 0
DWIDTH 14 0
BBX 1 7 14 4
BITMAP
80
00
00
00
00
00
80
ENDCHAR
STARTCHAR C023153
ENCODING 9835
SWIDTH 1400 0
DWIDTH 14 0
BBX 0 0 0 0
BITMAP
ENDCHAR
STARTCHAR C023154
ENCODING 9836
SWIDTH 1400 0
DWIDTH 14 0
BBX 0 0 0 0
BITMAP
ENDCHAR
STARTCHAR C023155
ENCODING 9837
SWIDTH 1400 0
DWIDTH 14 0
BBX 0 0 0 0
BITMAP
ENDCHAR
STARTCHAR C023156
ENCODING 9838
SWIDTH 1400 0
DWIDTH 14 0
BBX 0 0 0 0
BITMAP
ENDCHAR
STARTCHAR C023157
ENCODING 9839
SWIDTH 1400 0
DWIDTH 14 0
BBX 1 4 14 -3
BITMAP
80
00
00
80
ENDCHAR
STARTCHAR C023160
ENCODING 9840
SWIDTH 1400 0
DWIDTH 14 0
BBX 0 0 0 0
BITMAP
ENDCHAR
STARTCHAR C023161
ENCODING 9841
SWIDTH 1400 0
DWIDTH 14 0
BBX 0 0 0 0
BITMAP
ENDCHAR
STARTCHAR C023162
ENCODING 9842
SWIDTH 1400 0
DWIDTH 14 0
BBX 0 0 0 0
BITMAP
ENDCHAR
STARTCHAR C023163
ENCODING 9843
SWIDTH 1400 0
DWIDTH 14 0
BBX 0 0 0 0
BITMAP
ENDCHAR
STARTCHAR C023164
ENCODING 9844
SWIDTH 1400 0
DWIDTH 14 0
BBX 1 12 14 -2
BITMAP
80
80
80
80
00
00
00
00
00
00
00
80
ENDCHAR
STARTCHAR C023165
ENCODING 9845
SWIDTH 1400 0
DWIDTH 14 0
BBX 0 0 0 0
BITMAP
ENDCHAR
STARTCHAR C023166
ENCODING 9846
SWIDTH 1400 0
DWIDTH 14 0
BBX 0 0 0 0
BITMAP
ENDCHAR
STARTCHAR C023167
ENCODING 9847
SWIDTH 1400 0
DWIDTH 14 0
BBX 0 0 0 0
BITMAP
ENDCHAR
STARTCHAR C023170
ENCODING 9848
SWIDTH 1400 0
DWIDTH 14 0
BBX 0 0 0 0
BITMAP
ENDCHAR
STARTCHAR C023171
ENCODING 9849
SWIDTH 1400 0
DWIDTH 14 0
BBX 1 7 14 4
BITMAP
80
00
00
00
00
00
80
ENDCHAR
STARTCHAR C023172
ENCODING 9850
SWIDTH 1400 0
DWIDTH 14 0
BBX 0 0 0 0
BITMAP
ENDCHAR
STARTCHAR C023173
ENCODING 9851
SWIDTH 1400 0
DWIDTH 14 0
BBX 0 0 0 0
BITMAP
ENDCHAR
STARTCHAR C023174
ENCODING 9852
SWIDTH 1400 0
DWIDTH 14 0
BBX 0 0 0 0
BITMAP
ENDCHAR
STARTCHAR C023175
ENCODING 9853
SWIDTH 1400 0
DWIDTH 14 0
BBX 0 0 0 0
BITMAP
ENDCHAR
STARTCHAR C023176
ENCODING 9854
SWIDTH 1400 0
DWIDTH 14 0
BBX 1 4 14 -3
BITMAP
80
00
00
80
ENDCHAR
STARTCHAR C023177
ENCODING 9855
SWIDTH 1400 0
DWIDTH 14 0
BBX 0 0 0 0
BITMAP
ENDCHAR
STARTCHAR C023440
ENCODING 10016
SWIDTH 1400 0
DWIDTH 14 0
BBX 0 0 0 0
BITMAP
ENDCHAR
STARTCHAR C023441
ENCODING 10017
SWIDTH 1400 0
DWIDTH 14 0
BBX 14 12 1 -2
BITMAP
0038
0038
0078
0078
337C
3374
6664
66E4
CC6C
6F3C
F800
C000
ENDCHAR
STARTCHAR C023442
ENCODING 10018
SWIDTH 1400 0
DWIDTH 14 0
BBX 13 11 1 -1
BITMAP
0030
0070
00F0
00F0
FEF0
DEE0
DEC0
DEC0
DFD8
DEF0
0060
ENDCHAR
STARTCHAR C023443
ENCODING 10019
SWIDTH 1400 0
DWIDTH 14 0
BBX 13 11 1 -1
BITMAP
0E70
0670
06F0
06F0
7EF0
CEE0
C6C0
C6C0
C7D8
6E70
3800
ENDCHAR
STARTCHAR C023444
ENCODING 10020
SWIDTH 1400 0
DWIDTH 14 0
BBX 6 10 5 0
BITMAP
38
38
78
78
78
70
60
E0
6C
38
ENDCHAR
STARTCHAR C023445
ENCODING 10021
SWIDTH 1400 0
DWIDTH 14 0
BBX 12 11 2 -1
BITMAP
0060
C0E0
C1E0
C1E0
DDE0
D9C0
F180
F980
CFB0
CDE0
00C0
ENDCHAR
STARTCHAR C023446
ENCODING 10022
SWIDTH 1400 0
DWIDTH 14 0
BBX 13 7 1 -1
BITMAP
3CF8
EF98
C180
C180
C180
60D8
3870
ENDCHAR
STARTCHAR C023447
ENCODING 10023
SWIDTH 1400 0
DWIDTH 14 0
BBX 13 10 1 0
BITMAP
0018
0018
0018
0000
FFF8
F778
F778
F778
F778
F778
ENDCHAR
STARTCHAR C023450
ENCODING 10024
SWIDTH 1400 0
DWIDTH 14 0
BBX 13 12 1 -1
BITMAP
0030
0018
0030
0078
0030
7BF0
C3F0
C3F0
C3F0
C3F0
7BF0
3000
ENDCHAR
STARTCHAR C023451
ENCODING 10025
SWIDTH 1400 0
DWIDTH 14 0
BBX 10 10 3 0
BITMAP
00C0
01C0
00C0
01C0
FF80
CD80
CD80
CD80
CD80
CD80
ENDCHAR
STARTCHAR C023452
ENCODING 10026
SWIDTH 1400 0
DWIDTH 14 0
BBX 13 11 1 0
BITMAP
0018
6030
6018
6018
6C30
7BF8
7BD8
7BD8
7FD8
6FD8
EFD8
ENDCHAR
STARTCHAR C023453
ENCODING 10027
SWIDTH 1400 0
DWIDTH 14 0
BBX 11 10 2 0
BITMAP
F000
C000
C000
F000
CFE0
CF60
CF60
CF60
CF60
CF60
ENDCHAR
STARTCHAR C023454
ENCODING 10028
SWIDTH 1400 0
DWIDTH 14 0
BBX 14 9 1 -3
BITMAP
FFF8
EF78
CF78
CF78
CF78
CF78
0000
0004
0004
ENDCHAR
STARTCHAR C023455
ENCODING 10029
SWIDTH 1400 0
DWIDTH 14 0
BBX 15 9 0 -3
BITMAP
1BFC
37F4
36F4
66F4
6CF4
6FF6
7800
C000
C002
ENDCHAR
STARTCHAR C023456
ENCODING 10030
SWIDTH 1400 0
DWIDTH 14 0
BBX 13 6 1 0
BITMAP
FDF8
FDF8
FDF8
FDF8
FDF8
FDF8
ENDCHAR
STARTCHAR C023457
ENCODING 10031
SWIDTH 1400 0
DWIDTH 14 0
BBX 13 7 1 -1
BITMAP
FBF8
DBD8
03D8
03D8
03D8
DBD8
7000
ENDCHAR
STARTCHAR C023460
ENCODING 10032
SWIDTH 1400 0
DWIDTH 14 0
BBX 13 9 1 0
BITMAP
C000
C000
C000
DBF8
F3D8
F3D8
F3D8
DBD8
DBD8
ENDCHAR
STARTCHAR C023461
ENCODING 10033
SWIDTH 1400 0
DWIDTH 14 0
BBX 13 11 1 0
BITMAP
0038
0018
0030
0038
0000
FFF8
FF78
FF78
FF78
FF78
FF78
ENDCHAR
STARTCHAR C023462
ENCODING 10034
SWIDTH 1400 0
DWIDTH 14 0
BBX 13 12 1 -1
BITMAP
0030
0018
0030
0078
0030
7FF0
C3F0
C3F0
C3F0
C3F0
7BF0
3000
ENDCHAR
STARTCHAR C023463
ENCODING 10035
SWIDTH 1400 0
DWIDTH 14 0
BBX 10 11 3 0
BITMAP
0180
00C0
0180
0300
0180
FF80
CD80
CD80
CD80
CD80
CD80
ENDCHAR
STARTCHAR C023464
ENCODING 10036
SWIDTH 1400 0
DWIDTH 14 0
BBX 13 11 1 0
BITMAP
0070
0018
C070
C078
C000
DBF0
F3F0
F3F0
F3F0
DBF0
DBF0
ENDCHAR
STARTCHAR C023465
ENCODING 10037
SWIDTH 1400 0
DWIDTH 14 0
BBX 15 12 0 -3
BITMAP
6000
6000
60F0
7D98
77D8
66F8
6798
6798
FEFC
0000
0002
0002
ENDCHAR
STARTCHAR C023466
ENCODING 10038
SWIDTH 1400 0
DWIDTH 14 0
BBX 14 10 0 -3
BITMAP
003C
19F8
33D8
33D8
33F0
66C0
67FC
7FCC
C0CC
C078
ENDCHAR
STARTCHAR C023467
ENCODING 10039
SWIDTH 1400 0
DWIDTH 14 0
BBX 15 14 0 -3
BITMAP
0002
0000
0000
0000
0000
7FFC
7BDA
7BD8
7BF0
7BC0
7B78
00CC
018C
00F8
ENDCHAR
STARTCHAR C023470
ENCODING 10040
SWIDTH 1400 0
DWIDTH 14 0
BBX 14 13 1 -3
BITMAP
0004
C000
C000
C078
C1F8
C1B0
F9B0
F1E0
FB00
CDF8
0398
0318
01F0
ENDCHAR
STARTCHAR C023471
ENCODING 10041
SWIDTH 1400 0
DWIDTH 14 0
BBX 13 10 1 0
BITMAP
E000
6000
6000
60C0
6EF0
6CC0
78C0
7CC0
6CD8
6670
ENDCHAR
STARTCHAR C023472
ENCODING 10042
SWIDTH 1400 0
DWIDTH 14 0
BBX 14 10 0 -1
BITMAP
000C
000C
000C
7FEC
CF6C
C1EC
C76C
C66C
6FEC
3980
ENDCHAR
STARTCHAR C023473
ENCODING 10043
SWIDTH 1400 0
DWIDTH 14 0
BBX 14 10 1 -1
BITMAP
C000
C018
C018
CFF8
FC3C
F87C
F9FC
FDBC
DFF8
06C0
ENDCHAR
STARTCHAR C023474
ENCODING 10044
SWIDTH 1400 0
DWIDTH 14 0
BBX 15 12 0 -3
BITMAP
06FC
06C4
06CC
7ECC
CEFC
C6C4
C6C4
C6C4
6ECE
3878
0000
0002
ENDCHAR
STARTCHAR C023475
ENCODING 10045
SWIDTH 1400 0
DWIDTH 14 0
BBX 13 13 1 -3
BITMAP
FE00
FE00
F638
F660
F6C0
F780
03F0
0780
0DC0
1870
3018
61F0
C060
ENDCHAR
STARTCHAR C023476
ENCODING 10046
SWIDTH 1400 0
DWIDTH 14 0
BBX 13 13 1 -3
BITMAP
FC00
FC38
FC60
FCC0
FD98
FF18
07F0
0F78
19C0
3060
6030
01E0
00C0
ENDCHAR
STARTCHAR C023477
ENCODING 10047
SWIDTH 1400 0
DWIDTH 14 0
BBX 12 10 2 -3
BITMAP
F800
FFE0
CF00
CDC0
CC60
CC30
FBE0
F0C0
C000
C000
ENDCHAR
STARTCHAR C023500
ENCODING 10048
SWIDTH 1400 0
DWIDTH 14 0
BBX 11 7 2 -1
BITMAP
FFE0
CF00
CF80
CCE0
CC60
CF60
01C0
ENDCHAR
STARTCHAR C023501
ENCODING 10049
SWIDTH 1400 0
DWIDTH 14 0
BBX 13 8 1 -2
BITMAP
3BF8
33C0
37E0
6638
6618
6FD8
F870
C000
ENDCHAR
STARTCHAR C023502
ENCODING 10050
SWIDTH 1400 0
DWIDTH 14 0
BBX 12 8 2 -1
BITMAP
00C0
FFF0
F780
F6C0
F670
F630
F7B0
00E0
ENDCHAR
STARTCHAR C023503
ENCODING 10051
SWIDTH 1400 0
DWIDTH 14 0
BBX 13 13 1 -3
BITMAP
0738
0618
0330
FF30
EF30
C7E0
C7E0
C7E0
C6C0
ECC0
F800
C000
C000
ENDCHAR
STARTCHAR C023504
ENCODING 10052
SWIDTH 1400 0
DWIDTH 14 0
BBX 13 9 1 0
BITMAP
0018
0330
0330
FF30
EDE0
CDE0
CDE0
CCC0
CCC0
ENDCHAR
STARTCHAR C023505
ENCODING 10053
SWIDTH 1400 0
DWIDTH 14 0
BBX 14 11 0 -2
BITMAP
018C
018C
00D8
18D8
33D8
3370
6670
6630
7F30
7800
C000
ENDCHAR
STARTCHAR C023506
ENCODING 10054
SWIDTH 1400 0
DWIDTH 14 0
BBX 14 11 1 0
BITMAP
0004
0000
0318
0318
0330
FFB0
F7B4
F6E0
F6E0
F6E0
F600
ENDCHAR
STARTCHAR C023507
ENCODING 10055
SWIDTH 1400 0
DWIDTH 14 0
BBX 13 9 1 0
BITMAP
C318
C330
C1B0
DDB0
D9E0
F0E0
F8E0
D8E0
CC00
ENDCHAR
STARTCHAR C023510
ENCODING 10056
SWIDTH 1400 0
DWIDTH 14 0
BBX 14 12 1 -3
BITMAP
C600
CED8
EEDC
FEF4
FEF4
FE74
FE74
F664
C604
0004
0004
0004
ENDCHAR
STARTCHAR C023511
ENCODING 10057
SWIDTH 1400 0
DWIDTH 14 0
BBX 12 12 1 -3
BITMAP
00C0
01C0
F9E0
EDE0
CF60
CDF0
CF30
CF30
FF30
C000
C000
C000
ENDCHAR
STARTCHAR C023512
ENCODING 10058
SWIDTH 1400 0
DWIDTH 14 0
BBX 13 9 1 0
BITMAP
0060
0060
00E0
FDB0
CDB0
CCF0
CDB0
CF18
CF98
ENDCHAR
STARTCHAR C023513
ENCODING 10059
SWIDTH 1400 0
DWIDTH 14 0
BBX 15 12 0 -3
BITMAP
0030
0070
0070
1878
33D8
3378
36CC
66CC
6F0E
7800
C000
C002
ENDCHAR
STARTCHAR C023514
ENCODING 10060
SWIDTH 1400 0
DWIDTH 14 0
BBX 13 9 1 0
BITMAP
0060
0060
00E0
FDE0
FDB0
FDF0
FDB0
FF18
FF18
ENDCHAR
STARTCHAR C023515
ENCODING 10061
SWIDTH 1400 0
DWIDTH 14 0
BBX 14 9 1 0
BITMAP
C060
C060
C0E0
CCF4
D9B0
F0F0
F1B0
DB18
CC18
ENDCHAR
STARTCHAR C023516
ENCODING 10062
SWIDTH 1400 0
DWIDTH 14 0
BBX 14 13 0 -3
BITMAP
0FEC
066C
066C
036C
FFFC
67FC
67F8
6798
6798
7F98
7800
6000
6000
ENDCHAR
STARTCHAR C023517
ENCODING 10063
SWIDTH 1400 0
DWIDTH 14 0
BBX 14 11 1 -2
BITMAP
0CC0
0CD8
07D8
FFF8
DFF0
DBF0
DB30
DB30
DB30
0004
0004
ENDCHAR
STARTCHAR C023520
ENCODING 10064
SWIDTH 1400 0
DWIDTH 14 0
BBX 15 12 0 -2
BITMAP
0002
036E
01BE
01FE
1BFC
37FC
37F8
67D8
6CD8
6FD8
F800
C002
ENDCHAR
STARTCHAR C023521
ENCODING 10065
SWIDTH 1400 0
DWIDTH 14 0
BBX 14 9 1 0
BITMAP
06C4
06DC
03FC
FFF4
FFF4
FFF4
FFB4
FDB4
FDB4
ENDCHAR
STARTCHAR C023522
ENCODING 10066
SWIDTH 1400 0
DWIDTH 14 0
BBX 13 9 1 0
BITMAP
C6C0
C6D8
C3F8
CFF0
FBF0
F3F0
F1B0
D9B0
CDB0
ENDCHAR
STARTCHAR C023523
ENCODING 10067
SWIDTH 1400 0
DWIDTH 14 0
BBX 13 9 1 0
BITMAP
CDE8
CDF8
CDF8
FDF8
FDF8
FDF8
FCF0
FCF0
FC00
ENDCHAR
STARTCHAR C023524
ENCODING 10068
SWIDTH 1400 0
DWIDTH 14 0
BBX 14 10 1 -1
BITMAP
C600
C600
C600
C6F8
FFB8
C630
C660
C6C8
C7BC
00E0
ENDCHAR
STARTCHAR C023525
ENCODING 10069
SWIDTH 1400 0
DWIDTH 14 0
BBX 15 12 0 -1
BITMAP
0002
67E0
63C0
63C0
63C0
6FFC
7BFE
73D8
7BD8
7BF4
EFFC
0180
ENDCHAR
STARTCHAR C023526
ENCODING 10070
SWIDTH 1400 0
DWIDTH 14 0
BBX 15 10 0 -1
BITMAP
6F62
6F62
6F62
7F7E
FFEE
FF6E
FF7A
FF7A
3F7E
0018
ENDCHAR
STARTCHAR C023527
ENCODING 10071
SWIDTH 1400 0
DWIDTH 14 0
BBX 15 11 0 -1
BITMAP
06C2
FEC0
C6C0
C6C0
C7FC
C6FC
DECC
DED8
DED8
DEF4
703C
ENDCHAR
STARTCHAR C023530
ENCODING 10072
SWIDTH 1400 0
DWIDTH 14 0
BBX 15 10 0 0
BITMAP
FFC0
36C0
36C0
36C0
36FC
37FC
36D8
36DA
36F6
37FE
ENDCHAR
STARTCHAR C023531
ENCODING 10073
SWIDTH 1400 0
DWIDTH 14 0
BBX 11 10 2 0
BITMAP
1F00
33C0
60C0
60E0
60C0
60C0
3180
DF60
CE60
FFE0
ENDCHAR
STARTCHAR C023532
ENCODING 10074
SWIDTH 1400 0
DWIDTH 14 0
BBX 15 13 0 -3
BITMAP
0078
01CC
C184
C304
DF84
D984
D8CC
787C
CF74
07FE
0000
0000
0002
ENDCHAR
STARTCHAR C023533
ENCODING 10075
SWIDTH 1400 0
DWIDTH 14 0
BBX 14 10 1 0
BITMAP
00F0
CD98
CF08
CF08
FF0C
FF08
FD98
FFF8
FFF8
FFF8
ENDCHAR
STARTCHAR C023534
ENCODING 10076
SWIDTH 1400 0
DWIDTH 14 0
BBX 13 13 1 -3
BITMAP
03F8
0198
0180
01B0
FDF0
67B0
6780
6780
6780
7FC0
7800
6000
6000
ENDCHAR
STARTCHAR C023535
ENCODING 10077
SWIDTH 1400 0
DWIDTH 14 0
BBX 13 9 1 0
BITMAP
01F8
0180
0180
FDB0
EDF0
CD80
CD80
CD80
CD80
ENDCHAR
STARTCHAR C023536
ENCODING 10078
SWIDTH 1400 0
DWIDTH 14 0
BBX 13 11 1 -2
BITMAP
01F8
0180
0180
33B0
37F0
6780
6780
CD80
6F80
F800
C000
ENDCHAR
STARTCHAR C023537
ENCODING 10079
SWIDTH 1400 0
DWIDTH 14 0
BBX 14 12 1 -2
BITMAP
0004
001C
001C
FDFC
FF78
FE38
FE38
FE38
FE38
0378
01E0
0004
ENDCHAR
STARTCHAR C023540
ENCODING 10080
SWIDTH 1400 0
DWIDTH 14 0
BBX 13 10 1 -1
BITMAP
0018
0018
0018
F8F8
C1B8
0318
0318
CF18
D9B8
70E0
ENDCHAR
STARTCHAR C023541
ENCODING 10081
SWIDTH 1400 0
DWIDTH 14 0
BBX 14 8 1 0
BITMAP
001C
001C
FF7C
C3DC
CFD8
DBD8
DBD8
CF78
ENDCHAR
STARTCHAR C023542
ENCODING 10082
SWIDTH 1400 0
DWIDTH 14 0
BBX 13 12 1 -2
BITMAP
00C0
00C0
FFC0
DEC0
FEC0
FFC0
0330
00E0
03F8
0E30
3818
6038
ENDCHAR
STARTCHAR C023543
ENCODING 10083
SWIDTH 1400 0
DWIDTH 14 0
BBX 13 13 1 -3
BITMAP
00C0
00C0
FFC0
DEC0
FEC0
FFC0
0330
00F8
03F8
0EC0
3870
E030
0060
ENDCHAR
STARTCHAR C023544
ENCODING 10084
SWIDTH 1400 0
DWIDTH 14 0
BBX 11 8 2 -1
BITMAP
6000
FBE0
C300
E300
3B00
1B00
DB00
7000
ENDCHAR
STARTCHAR C023545
ENCODING 10085
SWIDTH 1400 0
DWIDTH 14 0
BBX 12 10 1 -1
BITMAP
FC00
C600
C600
C7F0
CFB0
F8F0
C3B0
C330
C370
01C0
ENDCHAR
STARTCHAR C023546
ENCODING 10086
SWIDTH 1400 0
DWIDTH 14 0
BBX 14 11 1 -1
BITMAP
0004
C780
C6C0
C6C0
FEF8
E7FC
E73C
E67C
F6DC
F6D8
0070
ENDCHAR
STARTCHAR C023547
ENCODING 10087
SWIDTH 1400 0
DWIDTH 14 0
BBX 15 11 0 -1
BITMAP
EFC0
6F62
7F62
7F62
7F7E
FF7E
FFDE
FF3E
FF6E
3F3C
0380
ENDCHAR
STARTCHAR C023550
ENCODING 10088
SWIDTH 1400 0
DWIDTH 14 0
BBX 14 11 0 -1
BITMAP
77C0
DEE0
DE60
C660
C6FC
C6CC
DF9C
DE7C
D86C
787C
3030
ENDCHAR
STARTCHAR C023551
ENCODING 10089
SWIDTH 1400 0
DWIDTH 14 0
BBX 14 12 1 -3
BITMAP
D8C0
DEC0
DEC0
DEF8
7CE8
7CC8
7CC8
6CC8
6CFC
0030
0000
0004
ENDCHAR
STARTCHAR C023552
ENCODING 10090
SWIDTH 1400 0
DWIDTH 14 0
BBX 11 9 2 0
BITMAP
C000
C000
C0C0
CFE0
CF60
CF60
CF60
CF60
CFE0
ENDCHAR
STARTCHAR C023553
ENCODING 10091
SWIDTH 1400 0
DWIDTH 14 0
BBX 10 9 2 0
BITMAP
C000
C000
C000
CCC0
C780
C300
C380
CF80
CCC0
ENDCHAR
STARTCHAR C023554
ENCODING 10092
SWIDTH 1400 0
DWIDTH 14 0
BBX 14 12 1 -3
BITMAP
FC00
C604
C604
CDFC
FD9C
C71C
C71C
C79C
DDF8
7078
0018
0038
ENDCHAR
STARTCHAR C023555
ENCODING 10093
SWIDTH 1400 0
DWIDTH 14 0
BBX 13 13 1 -3
BITMAP
3C00
6C00
CC00
C000
C3B8
C1B0
CDB0
CCE0
CCE0
7CE0
30C0
00C0
0380
ENDCHAR
STARTCHAR C023556
ENCODING 10094
SWIDTH 1400 0
DWIDTH 14 0
BBX 15 12 0 -2
BITMAP
7C02
C602
C002
C002
798C
0ED8
03D8
0370
C370
7E00
1800
0002
ENDCHAR
STARTCHAR C023557
ENCODING 10095
SWIDTH 1400 0
DWIDTH 14 0
BBX 14 13 0 -3
BITMAP
3800
6D80
C180
C300
C600
6C00
3F00
1BFC
33BC
63FC
603C
003C
0018
ENDCHAR
STARTCHAR C023560
ENCODING 10096
SWIDTH 1400 0
DWIDTH 14 0
BBX 0 0 0 0
BITMAP
ENDCHAR
STARTCHAR C023561
ENCODING 10097
SWIDTH 1400 0
DWIDTH 14 0
BBX 0 0 0 0
BITMAP
ENDCHAR
STARTCHAR C023562
ENCODING 10098
SWIDTH 1400 0
DWIDTH 14 0
BBX 0 0 0 0
BITMAP
ENDCHAR
STARTCHAR C023563
ENCODING 10099
SWIDTH 1400 0
DWIDTH 14 0
BBX 1 7 14 4
BITMAP
80
00
00
00
00
00
80
ENDCHAR
STARTCHAR C023564
ENCODING 10100
SWIDTH 1400 0
DWIDTH 14 0
BBX 0 0 0 0
BITMAP
ENDCHAR
STARTCHAR C023565
ENCODING 10101
SWIDTH 1400 0
DWIDTH 14 0
BBX 0 0 0 0
BITMAP
ENDCHAR
STARTCHAR C023566
ENCODING 10102
SWIDTH 1400 0
DWIDTH 14 0
BBX 0 0 0 0
BITMAP
ENDCHAR
STARTCHAR C023567
ENCODING 10103
SWIDTH 1400 0
DWIDTH 14 0
BBX 0 0 0 0
BITMAP
ENDCHAR
STARTCHAR C023570
ENCODING 10104
SWIDTH 1400 0
DWIDTH 14 0
BBX 1 4 14 -3
BITMAP
80
00
00
80
ENDCHAR
STARTCHAR C023571
ENCODING 10105
SWIDTH 1400 0
DWIDTH 14 0
BBX 0 0 0 0
BITMAP
ENDCHAR
STARTCHAR C023572
ENCODING 10106
SWIDTH 1400 0
DWIDTH 14 0
BBX 0 0 0 0
BITMAP
ENDCHAR
STARTCHAR C023573
ENCODING 10107
SWIDTH 1400 0
DWIDTH 14 0
BBX 0 0 0 0
BITMAP
ENDCHAR
STARTCHAR C023574
ENCODING 10108
SWIDTH 1400 0
DWIDTH 14 0
BBX 0 0 0 0
BITMAP
ENDCHAR
STARTCHAR C023575
ENCODING 10109
SWIDTH 1400 0
DWIDTH 14 0
BBX 1 12 14 -2
BITMAP
80
80
80
80
00
00
00
00
00
00
00
80
ENDCHAR
STARTCHAR C023576
ENCODING 10110
SWIDTH 1400 0
DWIDTH 14 0
BBX 0 0 0 0
BITMAP
ENDCHAR
STARTCHAR C023577
ENCODING 10111
SWIDTH 1400 0
DWIDTH 14 0
BBX 0 0 0 0
BITMAP
ENDCHAR
STARTCHAR C024040
ENCODING 10272
SWIDTH 1400 0
DWIDTH 14 0
BBX 1 1 14 0
BITMAP
80
ENDCHAR
STARTCHAR C024041
ENCODING 10273
SWIDTH 1400 0
DWIDTH 14 0
BBX 15 11 0 -1
BITMAP
03FC
038C
0784
0D80
0DB0
19F2
1FB0
3184
618C
E1FC
0300
ENDCHAR
STARTCHAR C024042
ENCODING 10274
SWIDTH 1400 0
DWIDTH 14 0
BBX 11 11 2 -1
BITMAP
7F00
31C0
30C0
3060
3060
FC60
3060
30C0
31C0
3F00
6000
ENDCHAR
STARTCHAR C024043
ENCODING 10275
SWIDTH 1400 0
DWIDTH 14 0
BBX 7 9 4 0
BITMAP
FC
0C
3C
EC
CC
CC
FE
00
FE
ENDCHAR
STARTCHAR C024044
ENCODING 10276
SWIDTH 1400 0
DWIDTH 14 0
BBX 11 10 2 0
BITMAP
FFE0
3180
FFE0
3180
3180
3F80
3180
3180
3180
FFE0
ENDCHAR
STARTCHAR C024045
ENCODING 10277
SWIDTH 1400 0
DWIDTH 14 0
BBX 1 1 14 0
BITMAP
80
ENDCHAR
STARTCHAR C024046
ENCODING 10278
SWIDTH 1400 0
DWIDTH 14 0
BBX 11 10 2 0
BITMAP
7FE0
3180
3180
3180
3180
3180
3180
3180
3180
FF00
ENDCHAR
STARTCHAR C024047
ENCODING 10279
SWIDTH 1400 0
DWIDTH 14 0
BBX 1 4 14 -3
BITMAP
80
00
00
80
ENDCHAR
STARTCHAR C024050
ENCODING 10280
SWIDTH 1400 0
DWIDTH 14 0
BBX 8 10 4 -1
BITMAP
70
60
60
78
78
60
60
60
E7
3C
ENDCHAR
STARTCHAR C024051
ENCODING 10281
SWIDTH 1400 0
DWIDTH 14 0
BBX 9 10 3 -1
BITMAP
7800
3C00
3800
3000
7000
F000
3000
3000
7380
1E00
ENDCHAR
STARTCHAR C024052
ENCODING 10282
SWIDTH 1400 0
DWIDTH 14 0
BBX 11 11 2 -1
BITMAP
1F60
71E0
C0C0
C3E0
C660
CC60
D860
F060
60C0
7180
DF00
ENDCHAR
STARTCHAR C024053
ENCODING 10283
SWIDTH 1400 0
DWIDTH 14 0
BBX 15 11 0 -1
BITMAP
1FFC
318E
6186
C182
C1B2
C1F2
C182
C180
6184
3BDE
0E70
ENDCHAR
STARTCHAR C024054
ENCODING 10284
SWIDTH 1400 0
DWIDTH 14 0
BBX 7 10 4 0
BITMAP
7C
EE
C6
C6
C6
C6
EE
7C
00
FE
ENDCHAR
STARTCHAR C024055
ENCODING 10285
SWIDTH 1400 0
DWIDTH 14 0
BBX 9 11 3 -1
BITMAP
F800
3000
3F00
3380
3180
3180
3180
3F00
3000
F000
1800
ENDCHAR
STARTCHAR C024056
ENCODING 10286
SWIDTH 1400 0
DWIDTH 14 0
BBX 10 10 2 0
BITMAP
FFC0
CCC0
0CC0
0C00
0C00
3F00
0C00
0C00
0C00
3F00
ENDCHAR
STARTCHAR C024057
ENCODING 10287
SWIDTH 1400 0
DWIDTH 14 0
BBX 9 11 3 -1
BITMAP
6F00
F980
6180
6180
6180
6180
6180
6180
6D80
7F00
0600
ENDCHAR
STARTCHAR C024060
ENCODING 10288
SWIDTH 1400 0
DWIDTH 14 0
BBX 1 8 14 1
BITMAP
80
80
00
00
00
00
00
80
ENDCHAR
STARTCHAR C024061
ENCODING 10289
SWIDTH 1400 0
DWIDTH 14 0
BBX 13 13 1 -2
BITMAP
1FC0
3060
E038
C018
3FE8
0068
0068
0068
0068
C078
6070
30E0
1FC0
ENDCHAR
STARTCHAR C024062
ENCODING 10290
SWIDTH 1400 0
DWIDTH 14 0
BBX 13 12 1 -2
BITMAP
1FC0
7070
E038
F818
1808
1808
1808
1808
DFF8
E038
7070
1FC0
ENDCHAR
STARTCHAR C024063
ENCODING 10291
SWIDTH 1400 0
DWIDTH 14 0
BBX 13 12 1 -2
BITMAP
1FC0
7070
E038
DFF8
1808
1808
1808
1808
DFF8
E038
7070
1FC0
ENDCHAR
STARTCHAR C024064
ENCODING 10292
SWIDTH 1400 0
DWIDTH 14 0
BBX 13 12 1 -2
BITMAP
1FC0
7070
E038
DFD8
00C8
1FC8
1808
1808
DFF8
E038
7070
1FC0
ENDCHAR
STARTCHAR C024065
ENCODING 10293
SWIDTH 1400 0
DWIDTH 14 0
BBX 13 12 1 -2
BITMAP
1FC0
7070
E038
FFD8
18C8
18C8
1988
1FC8
C018
E038
7070
1FC0
ENDCHAR
STARTCHAR C024066
ENCODING 10294
SWIDTH 1400 0
DWIDTH 14 0
BBX 13 12 1 -2
BITMAP
1FC0
7070
E038
F8D8
18C8
1FC8
18C8
18C8
DFD8
F8F8
7070
1FC0
ENDCHAR
STARTCHAR C024067
ENCODING 10295
SWIDTH 1400 0
DWIDTH 14 0
BBX 13 12 1 -2
BITMAP
1FC0
7070
E638
C318
0308
0708
0DC8
1868
F018
E038
7070
1FC0
ENDCHAR
STARTCHAR C024070
ENCODING 10296
SWIDTH 1400 0
DWIDTH 14 0
BBX 13 12 1 -2
BITMAP
1FC0
7070
E338
CFD8
18E8
1868
1868
18E8
CFD8
E038
7070
1FC0
ENDCHAR
STARTCHAR C024071
ENCODING 10297
SWIDTH 1400 0
DWIDTH 14 0
BBX 13 12 1 -2
BITMAP
1FC0
7070
E038
DFF8
00C8
0188
0308
0788
DCF8
E038
7070
1FC0
ENDCHAR
STARTCHAR C024072
ENCODING 10298
SWIDTH 1400 0
DWIDTH 14 0
BBX 13 12 1 -2
BITMAP
1FC0
7C70
E7B8
C0D8
1FC8
00C8
0388
0788
CCF8
F838
7070
1FC0
ENDCHAR
STARTCHAR C024073
ENCODING 10299
SWIDTH 1400 0
DWIDTH 14 0
BBX 13 12 1 -2
BITMAP
1FC0
7070
E038
DFF8
0068
00C8
3FC8
00C8
C198
E1B8
7370
1FC0
ENDCHAR
STARTCHAR C024074
ENCODING 10300
SWIDTH 1400 0
DWIDTH 14 0
BBX 13 12 1 -2
BITMAP
1FC0
7070
E038
DFD8
1808
1FC8
1808
1808
DFF8
E038
7070
1FC0
ENDCHAR
STARTCHAR C024075
ENCODING 10301
SWIDTH 1400 0
DWIDTH 14 0
BBX 13 12 1 -2
BITMAP
1FC0
7070
E038
FFF8
0188
0D88
0D88
0308
FFF8
E038
7070
1FC0
ENDCHAR
STARTCHAR C024076
ENCODING 10302
SWIDTH 1400 0
DWIDTH 14 0
BBX 13 12 1 -2
BITMAP
1FC0
7070
E7B8
C018
3FF8
0F88
18C8
18C8
D8D8
EFB8
7070
1FC0
ENDCHAR
STARTCHAR C024077
ENCODING 10303
SWIDTH 1400 0
DWIDTH 14 0
BBX 13 12 1 -2
BITMAP
1FC0
71F0
E0F8
FFD8
06C8
06C8
0CE8
18C8
F0D8
E0F8
70F0
1FC0
ENDCHAR
STARTCHAR C024100
ENCODING 10304
SWIDTH 1400 0
DWIDTH 14 0
BBX 13 12 1 -2
BITMAP
1FC0
71F0
E0F8
F0D8
30C8
30C8
31E8
3FC8
C0D8
E0F8
7070
1FC0
ENDCHAR
STARTCHAR C024101
ENCODING 10305
SWIDTH 1400 0
DWIDTH 14 0
BBX 13 12 1 -2
BITMAP
1FC0
71F0
E0F8
FED8
30C8
30C8
30E8
3FC8
C0D8
E0F8
7070
1FC0
ENDCHAR
STARTCHAR C024102
ENCODING 10306
SWIDTH 1400 0
DWIDTH 14 0
BBX 13 12 1 -2
BITMAP
1FC0
71F0
E0F8
FED8
06C8
3EC8
30E8
31C8
FFD8
E0F8
7070
1FC0
ENDCHAR
STARTCHAR C024103
ENCODING 10307
SWIDTH 1400 0
DWIDTH 14 0
BBX 13 12 1 -2
BITMAP
1FC0
71F0
E0F8
FED8
36C8
36C8
36E8
3EC8
C0D8
E0F8
7070
1FC0
ENDCHAR
STARTCHAR C024104
ENCODING 10308
SWIDTH 1400 0
DWIDTH 14 0
BBX 13 12 1 -2
BITMAP
1FC0
71F0
E0F8
F6D8
36C8
3EC8
36E8
3EC8
F0D8
E0F8
7070
1FC0
ENDCHAR
STARTCHAR C024105
ENCODING 10309
SWIDTH 1400 0
DWIDTH 14 0
BBX 13 12 1 -2
BITMAP
1FC0
71F0
E0F8
C6D8
0CC8
0CC8
1EE8
33C8
C0D8
E0F8
7070
1FC0
ENDCHAR
STARTCHAR C024106
ENCODING 10310
SWIDTH 1400 0
DWIDTH 14 0
BBX 13 12 1 -2
BITMAP
1FC0
71F0
F8F8
FCD8
66C8
66C8
66E8
3CC8
C0D8
E0F8
7070
1FC0
ENDCHAR
STARTCHAR C024107
ENCODING 10311
SWIDTH 1400 0
DWIDTH 14 0
BBX 13 12 1 -2
BITMAP
1FC0
7070
E0F8
C6D8
1EC8
0CC8
1EE8
33C8
C0D8
E0F8
7070
1FC0
ENDCHAR
STARTCHAR C024110
ENCODING 10312
SWIDTH 1400 0
DWIDTH 14 0
BBX 13 12 1 -2
BITMAP
1FC0
71F0
F8F8
CCD8
3FC8
06C8
0CE8
1FC8
F0D8
E0F8
7070
1FC0
ENDCHAR
STARTCHAR C024111
ENCODING 10313
SWIDTH 1400 0
DWIDTH 14 0
BBX 13 12 1 -2
BITMAP
1FC0
71F0
E0F8
FFD8
06C8
3EC8
0CE8
18C8
F0D8
E0F8
7070
1FC0
ENDCHAR
STARTCHAR C024112
ENCODING 10314
SWIDTH 1400 0
DWIDTH 14 0
BBX 13 12 1 -2
BITMAP
1FC0
71F0
E0F8
FED8
38C8
3EC8
30E8
37C8
FCD8
E0F8
70F0
1FC0
ENDCHAR
STARTCHAR C024113
ENCODING 10315
SWIDTH 1400 0
DWIDTH 14 0
BBX 13 12 1 -2
BITMAP
1FC0
71F0
E0F8
FFD8
06C8
1EF8
1EE8
7FC8
C0D8
E0F8
7070
1FC0
ENDCHAR
STARTCHAR C024114
ENCODING 10316
SWIDTH 1400 0
DWIDTH 14 0
BBX 13 12 1 -2
BITMAP
1FC0
71F0
E0F8
CCD8
7FC8
1EF8
33E8
33C8
DED8
E0F8
7070
1FC0
ENDCHAR
STARTCHAR C024115
ENCODING 10317
SWIDTH 1400 0
DWIDTH 14 0
BBX 13 12 1 -2
BITMAP
1FC0
7070
E038
CF98
0D88
0388
0F88
1988
CFD8
E038
7070
1FC0
ENDCHAR
STARTCHAR C024116
ENCODING 10318
SWIDTH 1400 0
DWIDTH 14 0
BBX 13 12 1 -2
BITMAP
1FC0
7C70
EC38
CC18
0F88
0EC8
0CC8
0CC8
CCD8
EFB8
7370
1FC0
ENDCHAR
STARTCHAR C024117
ENCODING 10319
SWIDTH 1400 0
DWIDTH 14 0
BBX 13 12 1 -2
BITMAP
1FC0
7070
E038
CF98
1808
1808
1808
0CC8
C798
E038
7070
1FC0
ENDCHAR
STARTCHAR C024120
ENCODING 10320
SWIDTH 1400 0
DWIDTH 14 0
BBX 13 12 1 -2
BITMAP
1FC0
71F0
E1B8
C198
0788
1F88
1988
1988
D998
EFB8
76F0
1FC0
ENDCHAR
STARTCHAR C024121
ENCODING 10321
SWIDTH 1400 0
DWIDTH 14 0
BBX 13 12 1 -2
BITMAP
1FC0
7070
E038
CF98
0CC8
1FC8
1808
1808
CD98
E738
7070
1FC0
ENDCHAR
STARTCHAR C024122
ENCODING 10322
SWIDTH 1400 0
DWIDTH 14 0
BBX 13 12 1 -2
BITMAP
1FC0
73F0
E638
C618
0F88
0608
0608
0608
C618
E638
7070
1FC0
ENDCHAR
STARTCHAR C024123
ENCODING 10323
SWIDTH 1400 0
DWIDTH 14 0
BBX 13 12 1 -2
BITMAP
1FC0
7070
EFF8
CD98
0D88
0D88
0F08
0F88
D8D8
FFB8
7070
1FC0
ENDCHAR
STARTCHAR C024124
ENCODING 10324
SWIDTH 1400 0
DWIDTH 14 0
BBX 13 12 1 -2
BITMAP
1FC0
7070
EC38
CC18
0C08
0FC8
0CC8
0CC8
CCD8
ECF8
7070
1FC0
ENDCHAR
STARTCHAR C024125
ENCODING 10325
SWIDTH 1400 0
DWIDTH 14 0
BBX 13 12 1 -2
BITMAP
1FC0
7770
E038
C018
0308
0308
0308
0308
C318
E7B8
7070
1FC0
ENDCHAR
STARTCHAR C024126
ENCODING 10326
SWIDTH 1400 0
DWIDTH 14 0
BBX 13 12 1 -2
BITMAP
1FC0
7370
E038
C018
0308
0308
0308
0308
C318
E338
7E70
1FC0
ENDCHAR
STARTCHAR C024127
ENCODING 10327
SWIDTH 1400 0
DWIDTH 14 0
BBX 13 12 1 -2
BITMAP
1FC0
7C70
EC38
CC18
0DC8
0D88
0F08
0F88
CD98
FFF8
7070
1FC0
ENDCHAR
STARTCHAR C024130
ENCODING 10328
SWIDTH 1400 0
DWIDTH 14 0
BBX 13 12 1 -2
BITMAP
1FC0
7070
E338
C318
0308
0308
0308
0308
C318
E338
7070
1FC0
ENDCHAR
STARTCHAR C024131
ENCODING 10329
SWIDTH 1400 0
DWIDTH 14 0
BBX 13 12 1 -2
BITMAP
1FC0
7070
E038
FFF8
3B68
3368
3368
3368
FFF8
E038
7070
1FC0
ENDCHAR
STARTCHAR C024132
ENCODING 10330
SWIDTH 1400 0
DWIDTH 14 0
BBX 13 12 1 -2
BITMAP
1FC0
7070
E038
DF98
0F88
0D88
0D88
0D88
DFD8
E038
7070
1FC0
ENDCHAR
STARTCHAR C024133
ENCODING 10331
SWIDTH 1400 0
DWIDTH 14 0
BBX 13 12 1 -2
BITMAP
1FC0
7070
E038
CF98
1DC8
18C8
18C8
1DC8
CF98
E038
7070
1FC0
ENDCHAR
STARTCHAR C024134
ENCODING 10332
SWIDTH 1400 0
DWIDTH 14 0
BBX 13 12 1 -2
BITMAP
1FC0
7070
EF38
CFD8
0CC8
0CC8
0CC8
0F88
CF18
EC38
7070
1FC0
ENDCHAR
STARTCHAR C024135
ENCODING 10333
SWIDTH 1400 0
DWIDTH 14 0
BBX 13 12 1 -2
BITMAP
1FC0
7070
EF38
D998
1988
1988
1988
0F88
C798
E3F8
7070
1FC0
ENDCHAR
STARTCHAR C024136
ENCODING 10334
SWIDTH 1400 0
DWIDTH 14 0
BBX 13 12 1 -2
BITMAP
1FC0
7070
E038
C7D8
0708
0608
0608
0608
C618
E038
7070
1FC0
ENDCHAR
STARTCHAR C024137
ENCODING 10335
SWIDTH 1400 0
DWIDTH 14 0
BBX 13 12 1 -2
BITMAP
1FC0
7070
E038
CF98
0C08
0608
0388
0188
CF98
E338
7070
1FC0
ENDCHAR
STARTCHAR C024140
ENCODING 10336
SWIDTH 1400 0
DWIDTH 14 0
BBX 13 12 1 -2
BITMAP
1FC0
7070
E638
C618
0F88
0608
0608
0608
C618
E638
7370
1FC0
ENDCHAR
STARTCHAR C024141
ENCODING 10337
SWIDTH 1400 0
DWIDTH 14 0
BBX 13 12 1 -2
BITMAP
1FC0
7070
E038
CD98
0D88
0D88
0D88
0D88
CF98
E038
7070
1FC0
ENDCHAR
STARTCHAR C024142
ENCODING 10338
SWIDTH 1400 0
DWIDTH 14 0
BBX 13 12 1 -2
BITMAP
1FC0
7070
E038
DDD8
0D88
0D88
0708
0708
C018
E038
7070
1FC0
ENDCHAR
STARTCHAR C024143
ENCODING 10339
SWIDTH 1400 0
DWIDTH 14 0
BBX 13 12 1 -2
BITMAP
1FC0
7070
E038
C018
3368
1BC8
1FC8
1DC8
CD98
E038
7070
1FC0
ENDCHAR
STARTCHAR C024144
ENCODING 10340
SWIDTH 1400 0
DWIDTH 14 0
BBX 13 12 1 -2
BITMAP
1FC0
7070
E038
DDD8
0F08
0708
0708
0D88
DDD8
E038
7070
1FC0
ENDCHAR
STARTCHAR C024145
ENCODING 10341
SWIDTH 1400 0
DWIDTH 14 0
BBX 13 12 1 -2
BITMAP
1FC0
7070
FFF8
CD98
0788
0788
0708
0308
C618
EE38
7070
1FC0
ENDCHAR
STARTCHAR C024146
ENCODING 10342
SWIDTH 1400 0
DWIDTH 14 0
BBX 13 12 1 -2
BITMAP
1FC0
7070
E038
CF98
0308
0608
0608
0D88
CF98
E038
7070
1FC0
ENDCHAR
STARTCHAR C024147
ENCODING 10343
SWIDTH 1400 0
DWIDTH 14 0
BBX 13 12 1 -2
BITMAP
1FC0
7070
EE38
C618
0608
0608
0608
0608
C618
FFB8
7070
1FC0
ENDCHAR
STARTCHAR C024150
ENCODING 10344
SWIDTH 1400 0
DWIDTH 14 0
BBX 13 12 1 -2
BITMAP
1FC0
7070
EFB8
CCD8
0188
0308
0608
0CC8
D8D8
EFB8
7070
1FC0
ENDCHAR
STARTCHAR C024151
ENCODING 10345
SWIDTH 1400 0
DWIDTH 14 0
BBX 13 12 1 -2
BITMAP
1FC0
7F70
F9B8
D998
0188
0F08
0388
00C8
CCD8
EDB8
7770
1FC0
ENDCHAR
STARTCHAR C024152
ENCODING 10346
SWIDTH 1400 0
DWIDTH 14 0
BBX 13 12 1 -2
BITMAP
1FC0
7370
E738
CF18
0F08
1B08
1B08
1FC8
C318
E338
7070
1FC0
ENDCHAR
STARTCHAR C024153
ENCODING 10347
SWIDTH 1400 0
DWIDTH 14 0
BBX 13 12 1 -2
BITMAP
1FC0
7070
EFB8
CC18
0C08
0F88
00C8
00C8
CCD8
EDB8
7770
1FC0
ENDCHAR
STARTCHAR C024154
ENCODING 10348
SWIDTH 1400 0
DWIDTH 14 0
BBX 13 12 1 -2
BITMAP
1FC0
7070
E7B8
CD98
1808
1F08
1D88
18C8
D8D8
EDF8
7FF0
1FC0
ENDCHAR
STARTCHAR C024155
ENCODING 10349
SWIDTH 1400 0
DWIDTH 14 0
BBX 13 12 1 -2
BITMAP
1FC0
7070
EFF8
D998
1988
0308
0308
0608
C618
E638
7670
1FC0
ENDCHAR
STARTCHAR C024156
ENCODING 10350
SWIDTH 1400 0
DWIDTH 14 0
BBX 13 12 1 -2
BITMAP
1FC0
7FF0
CD98
D998
0D88
0708
0D88
18C8
D8D8
FDF8
7FF0
1FC0
ENDCHAR
STARTCHAR C024157
ENCODING 10351
SWIDTH 1400 0
DWIDTH 14 0
BBX 13 12 1 -2
BITMAP
1FC0
77F0
EDB8
CCD8
0CC8
0CC8
07C8
00C8
CD98
E738
7070
1FC0
ENDCHAR
STARTCHAR C024160
ENCODING 10352
SWIDTH 1400 0
DWIDTH 14 0
BBX 13 12 1 -2
BITMAP
1FC0
7070
F9F8
F9F8
1B38
1B38
1B38
1B38
D9F8
FDF8
7070
1FC0
ENDCHAR
STARTCHAR C024161
ENCODING 10353
SWIDTH 1400 0
DWIDTH 14 0
BBX 13 12 1 -2
BITMAP
1FC0
7070
E0F8
F9D8
18C8
18C8
18C8
18C8
D8D8
FDF8
7070
1FC0
ENDCHAR
STARTCHAR C024162
ENCODING 10354
SWIDTH 1400 0
DWIDTH 14 0
BBX 13 12 1 -2
BITMAP
1FC0
7070
F838
FBF8
1838
1868
18C8
1988
DB38
FDF8
7070
1FC0
ENDCHAR
STARTCHAR C024163
ENCODING 10355
SWIDTH 1400 0
DWIDTH 14 0
BBX 13 12 1 -2
BITMAP
1F80
70E0
E0F0
F9B0
1878
18D8
1878
1838
DB30
FDF0
70E0
1F80
ENDCHAR
STARTCHAR C024164
ENCODING 10356
SWIDTH 1400 0
DWIDTH 14 0
BBX 13 12 1 -2
BITMAP
1FC0
7070
E078
F878
19E8
19E8
1B68
1BF8
D878
FC78
7070
1FC0
ENDCHAR
STARTCHAR C024165
ENCODING 10357
SWIDTH 1400 0
DWIDTH 14 0
BBX 13 12 1 -2
BITMAP
1FC0
7070
FBF8
FB18
1B08
1BE8
1868
1868
D878
E3F8
7070
1FC0
ENDCHAR
STARTCHAR C024166
ENCODING 10358
SWIDTH 1400 0
DWIDTH 14 0
BBX 11 12 2 -2
BITMAP
E060
60C0
6180
6300
6600
FC00
0FE0
1B60
30C0
6380
C600
03E0
ENDCHAR
STARTCHAR C024167
ENCODING 10359
SWIDTH 1400 0
DWIDTH 14 0
BBX 11 13 2 -3
BITMAP
E060
60C0
6180
6300
6600
FC00
0FE0
1B60
30C0
6060
C360
03C0
0180
ENDCHAR
STARTCHAR C024170
ENCODING 10360
SWIDTH 1400 0
DWIDTH 14 0
BBX 11 13 2 -3
BITMAP
F800
D8C0
3180
E180
0300
FE00
0FE0
1B60
3060
6060
C360
0360
01C0
ENDCHAR
STARTCHAR C024171
ENCODING 10361
SWIDTH 1400 0
DWIDTH 14 0
BBX 11 12 2 -2
BITMAP
E060
60C0
6180
6300
6600
F600
0D80
1F80
3D80
7980
CFC0
0180
ENDCHAR
STARTCHAR C024172
ENCODING 10362
SWIDTH 1400 0
DWIDTH 14 0
BBX 11 12 2 -2
BITMAP
F800
D860
30C0
1980
DB00
DE00
7CC0
0FC0
1EC0
36C0
67E0
C0C0
ENDCHAR
STARTCHAR C024173
ENCODING 10363
SWIDTH 1400 0
DWIDTH 14 0
BBX 12 13 2 -3
BITMAP
E060
60C0
6180
6300
6600
E600
0FE0
1E60
33E0
63E0
C630
0360
01C0
ENDCHAR
STARTCHAR C024174
ENCODING 10364
SWIDTH 1400 0
DWIDTH 14 0
BBX 12 13 2 -3
BITMAP
F800
D8C0
30C0
1980
DB00
DE00
7FE0
1E60
33E0
63E0
C630
C360
01C0
ENDCHAR
STARTCHAR C024175
ENCODING 10365
SWIDTH 1400 0
DWIDTH 14 0
BBX 13 13 1 -3
BITMAP
7E18
6030
6060
3CC0
CD80
CF00
7FF0
07B0
0F30
1BF0
3318
01B0
00E0
ENDCHAR
STARTCHAR C024176
ENCODING 10366
SWIDTH 1400 0
DWIDTH 14 0
BBX 11 13 2 -3
BITMAP
FC60
D8C0
3180
3300
3600
3C00
0FE0
1E60
33E0
63E0
C660
0360
01C0
ENDCHAR
STARTCHAR C024177
ENCODING 10367
SWIDTH 1400 0
DWIDTH 14 0
BBX 0 0 0 0
BITMAP
ENDCHAR
STARTCHAR C024440
ENCODING 10528
SWIDTH 1400 0
DWIDTH 14 0
BBX 1 6 14 0
BITMAP
80
80
00
80
80
80
ENDCHAR
STARTCHAR C024441
ENCODING 10529
SWIDTH 1400 0
DWIDTH 14 0
BBX 11 8 2 -1
BITMAP
7BC0
EEC0
CC60
3FE0
EC00
CE00
FFC0
3000
ENDCHAR
STARTCHAR C024442
ENCODING 10530
SWIDTH 1400 0
DWIDTH 14 0
BBX 8 11 4 -1
BITMAP
0E
06
3F
06
7E
C6
C6
C6
C6
6E
38
ENDCHAR
STARTCHAR C024443
ENCODING 10531
SWIDTH 1400 0
DWIDTH 14 0
BBX 7 9 4 -1
BITMAP
3C
38
0C
FE
C6
C6
C6
EE
7C
ENDCHAR
STARTCHAR C024444
ENCODING 10532
SWIDTH 1400 0
DWIDTH 14 0
BBX 8 9 3 0
BITMAP
60
FC
60
7F
63
63
63
63
63
ENDCHAR
STARTCHAR C024445
ENCODING 10533
SWIDTH 1400 0
DWIDTH 14 0
BBX 4 7 6 -1
BITMAP
E0
60
60
60
60
60
30
ENDCHAR
STARTCHAR C024446
ENCODING 10534
SWIDTH 1400 0
DWIDTH 14 0
BBX 7 11 4 -2
BITMAP
6C
00
00
EE
66
66
66
66
66
3E
1C
ENDCHAR
STARTCHAR C024447
ENCODING 10535
SWIDTH 1400 0
DWIDTH 14 0
BBX 6 6 4 0
BITMAP
CC
D8
F0
F8
D8
CC
ENDCHAR
STARTCHAR C024450
ENCODING 10536
SWIDTH 1400 0
DWIDTH 14 0
BBX 4 10 6 -1
BITMAP
C0
C0
C0
F0
F0
C0
C0
C0
C0
60
ENDCHAR
STARTCHAR C024451
ENCODING 10537
SWIDTH 1400 0
DWIDTH 14 0
BBX 5 10 5 0
BITMAP
70
30
38
38
30
70
F0
30
30
78
ENDCHAR
STARTCHAR C024452
ENCODING 10538
SWIDTH 1400 0
DWIDTH 14 0
BBX 8 8 3 -1
BITMAP
1C
77
67
FF
73
63
36
1C
ENDCHAR
STARTCHAR C024453
ENCODING 10539
SWIDTH 1400 0
DWIDTH 14 0
BBX 11 7 2 -1
BITMAP
7FC0
C660
C7C0
C600
C600
6FE0
38C0
ENDCHAR
STARTCHAR C024454
ENCODING 10540
SWIDTH 1400 0
DWIDTH 14 0
BBX 8 11 4 -1
BITMAP
7C
EE
C6
C6
C6
CE
C7
C3
C3
DE
1C
ENDCHAR
STARTCHAR C024455
ENCODING 10541
SWIDTH 1400 0
DWIDTH 14 0
BBX 8 11 3 -2
BITMAP
E0
60
60
7E
63
63
63
63
76
7C
60
ENDCHAR
STARTCHAR C024456
ENCODING 10542
SWIDTH 1400 0
DWIDTH 14 0
BBX 5 10 5 0
BITMAP
60
60
60
70
F0
60
60
60
60
78
ENDCHAR
STARTCHAR C024457
ENCODING 10543
SWIDTH 1400 0
DWIDTH 14 0
BBX 7 9 4 -3
BITMAP
FE
66
66
66
66
66
36
36
1C
ENDCHAR
STARTCHAR C024460
ENCODING 10544
SWIDTH 1400 0
DWIDTH 14 0
BBX 9 8 2 0
BITMAP
6000
C000
FF80
1980
1980
1980
1980
1980
ENDCHAR
STARTCHAR C024461
ENCODING 10545
SWIDTH 1400 0
DWIDTH 14 0
BBX 15 10 0 -1
BITMAP
6018
600C
FFEC
C066
C066
C066
C066
C06E
606C
3000
ENDCHAR
STARTCHAR C024462
ENCODING 10546
SWIDTH 1400 0
DWIDTH 14 0
BBX 15 10 0 -1
BITMAP
3018
600C
7C0E
CC06
CC06
CC06
CC06
CFFE
600C
6000
ENDCHAR
STARTCHAR C024463
ENCODING 10547
SWIDTH 1400 0
DWIDTH 14 0
BBX 15 10 0 -1
BITMAP
6018
600C
CFFE
CC06
CC06
CC06
CC06
CFFE
600C
3000
ENDCHAR
STARTCHAR C024464
ENCODING 10548
SWIDTH 1400 0
DWIDTH 14 0
BBX 15 10 0 -1
BITMAP
6018
600C
DFEE
C066
CFE6
CC06
CC06
CFFE
600C
3000
ENDCHAR
STARTCHAR C024465
ENCODING 10549
SWIDTH 1400 0
DWIDTH 14 0
BBX 15 12 0 -2
BITMAP
0002
601A
600E
CFFE
CC64
CC64
CC64
CC64
CFEC
6C0C
3000
0002
ENDCHAR
STARTCHAR C024466
ENCODING 10550
SWIDTH 1400 0
DWIDTH 14 0
BBX 15 10 0 -1
BITMAP
6018
600C
DC6E
CC66
CFE6
CC66
CC66
CFEE
6C6C
3000
ENDCHAR
STARTCHAR C024467
ENCODING 10551
SWIDTH 1400 0
DWIDTH 14 0
BBX 15 10 0 -1
BITMAP
6018
630C
C18E
C186
C386
C6C6
CC76
C03E
600C
3000
ENDCHAR
STARTCHAR C024470
ENCODING 10552
SWIDTH 1400 0
DWIDTH 14 0
BBX 15 10 0 -1
BITMAP
6018
618C
C7EE
CE76
CC36
CC36
CE76
C7EE
600C
3018
ENDCHAR
STARTCHAR C024471
ENCODING 10553
SWIDTH 1400 0
DWIDTH 14 0
BBX 15 10 0 -1
BITMAP
6018
600C
DFEE
C066
C0C6
C186
C3C6
CE7E
600C
3000
ENDCHAR
STARTCHAR C024472
ENCODING 10554
SWIDTH 1400 0
DWIDTH 14 0
BBX 15 12 0 -1
BITMAP
0002
0000
6018
63CC
C00C
CFE4
C0C6
C384
C6E4
CC3C
600C
3000
ENDCHAR
STARTCHAR C024473
ENCODING 10555
SWIDTH 1400 0
DWIDTH 14 0
BBX 15 10 0 -1
BITMAP
6018
600C
CFFE
C036
C066
DFE6
C066
C0CE
60CC
3180
ENDCHAR
STARTCHAR C024474
ENCODING 10556
SWIDTH 1400 0
DWIDTH 14 0
BBX 15 10 0 -1
BITMAP
6018
600C
CFEC
CC06
CFE6
CC06
CC06
CFFE
600C
3000
ENDCHAR
STARTCHAR C024475
ENCODING 10557
SWIDTH 1400 0
DWIDTH 14 0
BBX 15 10 0 -1
BITMAP
3018
600C
7FFE
C0C6
C6C6
C6C6
C186
DFFE
600C
6000
ENDCHAR
STARTCHAR C024476
ENCODING 10558
SWIDTH 1400 0
DWIDTH 14 0
BBX 15 10 0 -1
BITMAP
6018
63CC
C00E
DFFE
C186
C7C6
CC66
CC6E
67CC
3000
ENDCHAR
STARTCHAR C024477
ENCODING 10559
SWIDTH 1400 0
DWIDTH 14 0
BBX 15 12 0 -3
BITMAP
6078
606C
DFEC
C1E4
C364
C67C
CC64
D86C
606E
3060
0000
0002
ENDCHAR
STARTCHAR C024500
ENCODING 10560
SWIDTH 1400 0
DWIDTH 14 0
BBX 15 10 0 -1
BITMAP
6078
606C
D86E
D866
D866
D876
DFE6
CC6E
606C
3060
ENDCHAR
STARTCHAR C024501
ENCODING 10561
SWIDTH 1400 0
DWIDTH 14 0
BBX 15 10 0 -1
BITMAP
60F8
606C
DFEE
D866
D866
D8F6
DFE6
C06E
606C
3060
ENDCHAR
STARTCHAR C024502
ENCODING 10562
SWIDTH 1400 0
DWIDTH 14 0
BBX 15 10 0 -1
BITMAP
6078
606C
FF6E
C366
DF66
D876
D8E6
DFEE
606C
3060
ENDCHAR
STARTCHAR C024503
ENCODING 10563
SWIDTH 1400 0
DWIDTH 14 0
BBX 15 10 0 -1
BITMAP
6078
606C
FF6E
DB66
DB66
DB76
DF66
C06E
606C
3060
ENDCHAR
STARTCHAR C024504
ENCODING 10564
SWIDTH 1400 0
DWIDTH 14 0
BBX 15 12 0 -2
BITMAP
0002
607A
606E
FB6E
DB64
DF64
DB74
DF64
D86C
606C
3060
0002
ENDCHAR
STARTCHAR C024505
ENCODING 10565
SWIDTH 1400 0
DWIDTH 14 0
BBX 15 10 0 -1
BITMAP
6078
606C
C36E
C666
C666
CF76
D9E6
C06E
606C
3060
ENDCHAR
STARTCHAR C024506
ENCODING 10566
SWIDTH 1400 0
DWIDTH 14 0
BBX 15 10 0 -1
BITMAP
6078
6C6C
DF6E
F1E6
F1FE
F1F6
DF66
C06E
606C
3060
ENDCHAR
STARTCHAR C024507
ENCODING 10567
SWIDTH 1400 0
DWIDTH 14 0
BBX 15 10 0 -1
BITMAP
6078
606C
DFEE
C366
C666
CF76
D9E6
C06E
606C
3060
ENDCHAR
STARTCHAR C024510
ENCODING 10568
SWIDTH 1400 0
DWIDTH 14 0
BBX 15 10 0 -1
BITMAP
6078
6F6C
C06E
CF66
C366
C776
DDE6
F06E
606C
3060
ENDCHAR
STARTCHAR C024511
ENCODING 10569
SWIDTH 1400 0
DWIDTH 14 0
BBX 15 12 0 -1
BITMAP
0002
0000
6078
606C
DFEC
C364
FF66
C674
CC64
D86C
606C
3060
ENDCHAR
STARTCHAR C024512
ENCODING 10570
SWIDTH 1400 0
DWIDTH 14 0
BBX 15 10 0 -1
BITMAP
60F8
606C
FF6E
D866
DF66
D876
D9E6
DF6E
606C
3060
ENDCHAR
STARTCHAR C024513
ENCODING 10571
SWIDTH 1400 0
DWIDTH 14 0
BBX 15 10 0 -1
BITMAP
6078
606C
DFEE
C366
CF66
CF76
F7E6
DC6E
606C
3060
ENDCHAR
STARTCHAR C024514
ENCODING 10572
SWIDTH 1400 0
DWIDTH 14 0
BBX 15 10 0 -1
BITMAP
6078
676C
C06E
DFE6
CF66
D9F6
D9E6
CF6E
606C
3078
ENDCHAR
STARTCHAR C024515
ENCODING 10573
SWIDTH 1400 0
DWIDTH 14 0
BBX 15 10 0 -1
BITMAP
6018
600C
C7CE
C6C6
C1C6
C7C6
CCC6
C7EE
600C
3000
ENDCHAR
STARTCHAR C024516
ENCODING 10574
SWIDTH 1400 0
DWIDTH 14 0
BBX 15 12 0 -3
BITMAP
6018
660C
C60C
C784
C7E4
C664
C664
C66C
66CE
3380
0000
0002
ENDCHAR
STARTCHAR C024517
ENCODING 10575
SWIDTH 1400 0
DWIDTH 14 0
BBX 15 10 0 -1
BITMAP
6018
600C
C3CE
C606
CC06
CC06
C606
C3CE
600C
3000
ENDCHAR
STARTCHAR C024520
ENCODING 10576
SWIDTH 1400 0
DWIDTH 14 0
BBX 15 10 0 -1
BITMAP
60D8
60CC
C0CE
C7C6
CDC6
CCC6
CCC6
CCCE
67CC
3360
ENDCHAR
STARTCHAR C024521
ENCODING 10577
SWIDTH 1400 0
DWIDTH 14 0
BBX 15 10 0 -1
BITMAP
6018
63CC
C66E
CE66
CFE6
CC06
CC06
C6CE
638C
3000
ENDCHAR
STARTCHAR C024522
ENCODING 10578
SWIDTH 1400 0
DWIDTH 14 0
BBX 15 10 0 -1
BITMAP
61D8
630C
C30E
C7C6
C306
C306
C306
C30E
630C
3000
ENDCHAR
STARTCHAR C024523
ENCODING 10579
SWIDTH 1400 0
DWIDTH 14 0
BBX 15 12 0 -2
BITMAP
0002
601A
67EE
CCC6
CCC4
C784
CF04
C7C4
CC6C
6FCC
3300
0002
ENDCHAR
STARTCHAR C024524
ENCODING 10580
SWIDTH 1400 0
DWIDTH 14 0
BBX 15 10 0 -1
BITMAP
6618
660C
C60E
C7C6
C766
C666
C666
C66E
666C
3000
ENDCHAR
STARTCHAR C024525
ENCODING 10581
SWIDTH 1400 0
DWIDTH 14 0
BBX 15 10 0 -1
BITMAP
6018
638C
C00C
C186
C186
C186
C186
C18E
618C
3000
ENDCHAR
STARTCHAR C024526
ENCODING 10582
SWIDTH 1400 0
DWIDTH 14 0
BBX 15 10 0 -1
BITMAP
3198
600C
600E
C186
C186
C186
C186
C18E
618C
6700
ENDCHAR
STARTCHAR C024527
ENCODING 10583
SWIDTH 1400 0
DWIDTH 14 0
BBX 15 10 0 -1
BITMAP
6618
660C
C60E
C6E6
C6C6
C786
C786
C6CE
66EC
3000
ENDCHAR
STARTCHAR C024530
ENCODING 10584
SWIDTH 1400 0
DWIDTH 14 0
BBX 15 12 0 -1
BITMAP
0002
0000
6018
618C
C18C
C184
C186
C184
C184
C18C
618C
3000
ENDCHAR
STARTCHAR C024531
ENCODING 10585
SWIDTH 1400 0
DWIDTH 14 0
BBX 15 10 0 -1
BITMAP
6018
600C
FFFE
D9B6
D9B6
D9B6
D9B6
FFFE
600C
3000
ENDCHAR
STARTCHAR C024532
ENCODING 10586
SWIDTH 1400 0
DWIDTH 14 0
BBX 15 10 0 -1
BITMAP
6018
600C
CFCE
C7C6
C6C6
C6C6
C6C6
CFEE
600C
3000
ENDCHAR
STARTCHAR C024533
ENCODING 10587
SWIDTH 1400 0
DWIDTH 14 0
BBX 15 10 0 -1
BITMAP
6018
600C
C7CE
CEE6
CC66
CC66
CEE6
C7CE
600C
3000
ENDCHAR
STARTCHAR C024534
ENCODING 10588
SWIDTH 1400 0
DWIDTH 14 0
BBX 15 10 0 -1
BITMAP
6018
67CC
C76E
C666
C666
C666
C7C6
C78E
660C
3000
ENDCHAR
STARTCHAR C024535
ENCODING 10589
SWIDTH 1400 0
DWIDTH 14 0
BBX 15 12 0 -3
BITMAP
6018
630C
CFCC
CCC4
CCC4
CCC4
C6C4
C3CC
60CE
3060
0000
0002
ENDCHAR
STARTCHAR C024536
ENCODING 10590
SWIDTH 1400 0
DWIDTH 14 0
BBX 15 10 0 -1
BITMAP
6018
600C
C7EE
C386
C306
C306
C306
C78E
600C
3000
ENDCHAR
STARTCHAR C024537
ENCODING 10591
SWIDTH 1400 0
DWIDTH 14 0
BBX 15 10 0 -1
BITMAP
6018
600C
C7CE
C606
C386
C0C6
C6C6
C7CE
600C
3000
ENDCHAR
STARTCHAR C024540
ENCODING 10592
SWIDTH 1400 0
DWIDTH 14 0
BBX 15 10 0 -1
BITMAP
6018
630C
C30E
C7C6
C306
C306
C306
C30E
630C
3180
ENDCHAR
STARTCHAR C024541
ENCODING 10593
SWIDTH 1400 0
DWIDTH 14 0
BBX 15 10 0 -1
BITMAP
6018
600C
CFCE
C6C6
C6C6
C6C6
C6C6
C3EE
600C
3000
ENDCHAR
STARTCHAR C024542
ENCODING 10594
SWIDTH 1400 0
DWIDTH 14 0
BBX 15 12 0 -2
BITMAP
0002
601A
600E
CEEE
C6C4
C6C4
C384
C384
C30C
600C
3000
0002
ENDCHAR
STARTCHAR C024543
ENCODING 10595
SWIDTH 1400 0
DWIDTH 14 0
BBX 15 10 0 -1
BITMAP
6018
600C
DFBE
D9B6
CFE6
CFE6
CEC6
C6CE
600C
3000
ENDCHAR
STARTCHAR C024544
ENCODING 10596
SWIDTH 1400 0
DWIDTH 14 0
BBX 15 10 0 -1
BITMAP
6018
600C
CEEE
C786
C306
C386
C6C6
CEEE
600C
3000
ENDCHAR
STARTCHAR C024545
ENCODING 10597
SWIDTH 1400 0
DWIDTH 14 0
BBX 15 10 0 -1
BITMAP
6018
600C
C66E
C6C6
C3C6
C386
C186
C30E
670C
3000
ENDCHAR
STARTCHAR C024546
ENCODING 10598
SWIDTH 1400 0
DWIDTH 14 0
BBX 15 10 0 -1
BITMAP
6018
600C
C7CE
C786
C186
C306
C6C6
C7CE
600C
3018
ENDCHAR
STARTCHAR C024547
ENCODING 10599
SWIDTH 1400 0
DWIDTH 14 0
BBX 15 12 0 -1
BITMAP
0002
0000
6398
618C
C18C
C184
C186
C184
C184
C18C
618C
37E0
ENDCHAR
STARTCHAR C024550
ENCODING 10600
SWIDTH 1400 0
DWIDTH 14 0
BBX 15 10 0 -1
BITMAP
63D8
66EC
CC6E
C0C6
C186
C306
C606
CC6E
6FEC
3000
ENDCHAR
STARTCHAR C024551
ENCODING 10601
SWIDTH 1400 0
DWIDTH 14 0
BBX 15 10 0 -1
BITMAP
63D8
666C
C06E
C066
C3C6
C0E6
C066
CC6E
6C6C
37C0
ENDCHAR
STARTCHAR C024552
ENCODING 10602
SWIDTH 1400 0
DWIDTH 14 0
BBX 15 11 0 -1
BITMAP
0180
6198
638C
C78E
C786
CD86
CD86
D9C6
CF8E
618C
3180
ENDCHAR
STARTCHAR C024553
ENCODING 10603
SWIDTH 1400 0
DWIDTH 14 0
BBX 15 10 0 -1
BITMAP
6FD8
6C0C
CC0E
CC06
CFC6
C066
C066
CCCE
6CCC
3780
ENDCHAR
STARTCHAR C024554
ENCODING 10604
SWIDTH 1400 0
DWIDTH 14 0
BBX 15 12 0 -3
BITMAP
63D8
66EC
CC0C
CC04
CFC4
CC64
CC64
CC6C
66CE
3380
0000
0002
ENDCHAR
STARTCHAR C024555
ENCODING 10605
SWIDTH 1400 0
DWIDTH 14 0
BBX 15 10 0 -1
BITMAP
6018
67EC
CCCE
CCC6
C186
C186
C306
C30E
630C
3300
ENDCHAR
STARTCHAR C024556
ENCODING 10606
SWIDTH 1400 0
DWIDTH 14 0
BBX 15 10 0 -1
BITMAP
67D8
66CC
CCC6
C6C6
C3C6
CEE6
CC66
CC6E
67CC
3300
ENDCHAR
STARTCHAR C024557
ENCODING 10607
SWIDTH 1400 0
DWIDTH 14 0
BBX 15 10 0 -1
BITMAP
6018
67CC
CC6E
CC66
CC66
C7E6
C366
C0CE
66CC
3380
ENDCHAR
STARTCHAR C024560
ENCODING 10608
SWIDTH 1400 0
DWIDTH 14 0
BBX 15 10 0 -1
BITMAP
6CF8
7DBC
CDBE
CDB6
CDB6
CDB6
CDB6
CDBE
6DEC
30C0
ENDCHAR
STARTCHAR C024561
ENCODING 10609
SWIDTH 1400 0
DWIDTH 14 0
BBX 15 12 0 -2
BITMAP
0002
601A
600E
DCEE
CC64
CC64
CC64
CC64
CC6C
7EFC
3000
0002
ENDCHAR
STARTCHAR C024562
ENCODING 10610
SWIDTH 1400 0
DWIDTH 14 0
BBX 15 10 0 0
BITMAP
3000
6018
6DFC
DC1E
CC36
CC66
CCC6
CD9E
6CFE
7E0C
ENDCHAR
STARTCHAR C024563
ENCODING 10611
SWIDTH 1400 0
DWIDTH 14 0
BBX 15 10 0 -1
BITMAP
6078
7CFC
CC3E
CC66
CC36
CC1E
CD9E
DEFE
600C
3000
ENDCHAR
STARTCHAR C024564
ENCODING 10612
SWIDTH 1400 0
DWIDTH 14 0
BBX 15 10 0 -1
BITMAP
6018
603C
DC3E
CCF6
CCF6
CDB6
CDFE
CC3E
7E3C
3000
ENDCHAR
STARTCHAR C024565
ENCODING 10613
SWIDTH 1400 0
DWIDTH 14 0
BBX 15 10 0 -1
BITMAP
6018
6DFC
DD8C
CD84
CDF6
CC34
CC34
CC3C
61EC
3000
ENDCHAR
STARTCHAR C024566
ENCODING 10614
SWIDTH 1400 0
DWIDTH 14 0
BBX 4 6 6 4
BITMAP
60
60
60
60
60
F0
ENDCHAR
STARTCHAR C024567
ENCODING 10615
SWIDTH 1400 0
DWIDTH 14 0
BBX 5 6 5 5
BITMAP
70
D8
18
70
C0
F8
ENDCHAR
STARTCHAR C024570
ENCODING 10616
SWIDTH 1400 0
DWIDTH 14 0
BBX 5 7 5 4
BITMAP
70
D8
18
70
18
D8
70
ENDCHAR
STARTCHAR C024571
ENCODING 10617
SWIDTH 1400 0
DWIDTH 14 0
BBX 5 6 5 5
BITMAP
30
70
F0
F0
F8
30
ENDCHAR
STARTCHAR C024572
ENCODING 10618
SWIDTH 1400 0
DWIDTH 14 0
BBX 6 6 5 4
BITMAP
38
F8
D8
D8
D8
1C
ENDCHAR
STARTCHAR C024573
ENCODING 10619
SWIDTH 1400 0
DWIDTH 14 0
BBX 4 6 5 -2
BITMAP
60
60
60
60
60
F0
ENDCHAR
STARTCHAR C024574
ENCODING 10620
SWIDTH 1400 0
DWIDTH 14 0
BBX 5 6 5 -2
BITMAP
70
D8
18
70
C0
F8
ENDCHAR
STARTCHAR C024575
ENCODING 10621
SWIDTH 1400 0
DWIDTH 14 0
BBX 5 7 5 -3
BITMAP
70
D8
18
70
18
D8
70
ENDCHAR
STARTCHAR C024576
ENCODING 10622
SWIDTH 1400 0
DWIDTH 14 0
BBX 5 6 5 -2
BITMAP
30
70
F0
30
F8
30
ENDCHAR
STARTCHAR C024577
ENCODING 10623
SWIDTH 1400 0
DWIDTH 14 0
BBX 0 0 0 0
BITMAP
ENDCHAR
STARTCHAR C025040
ENCODING 10784
SWIDTH 1400 0
DWIDTH 14 0
BBX 1 12 14 -2
BITMAP
80
80
80
80
00
00
00
00
00
00
00
80
ENDCHAR
STARTCHAR C025041
ENCODING 10785
SWIDTH 1400 0
DWIDTH 14 0
BBX 9 10 3 -2
BITMAP
1800
1800
7C00
3000
1E00
3F00
F980
F180
FB00
0600
ENDCHAR
STARTCHAR C025042
ENCODING 10786
SWIDTH 1400 0
DWIDTH 14 0
BBX 11 12 2 -2
BITMAP
0C00
0C00
6F00
3800
1B00
1FC0
3E60
7C60
D860
FCC0
6180
0300
ENDCHAR
STARTCHAR C025043
ENCODING 10787
SWIDTH 1400 0
DWIDTH 14 0
BBX 9 5 3 -1
BITMAP
C000
C300
C180
F380
6000
ENDCHAR
STARTCHAR C025044
ENCODING 10788
SWIDTH 1400 0
DWIDTH 14 0
BBX 11 7 2 1
BITMAP
C000
C000
C1C0
C060
D860
7060
7000
ENDCHAR
STARTCHAR C025045
ENCODING 10789
SWIDTH 1400 0
DWIDTH 14 0
BBX 5 8 5 -1
BITMAP
38
00
78
D8
18
18
18
30
ENDCHAR
STARTCHAR C025046
ENCODING 10790
SWIDTH 1400 0
DWIDTH 14 0
BBX 7 12 4 -2
BITMAP
30
1C
00
00
FE
06
06
06
06
0C
18
30
ENDCHAR
STARTCHAR C025047
ENCODING 10791
SWIDTH 1400 0
DWIDTH 14 0
BBX 8 9 3 -2
BITMAP
18
0C
0C
3C
18
30
78
CF
06
ENDCHAR
STARTCHAR C025050
ENCODING 10792
SWIDTH 1400 0
DWIDTH 14 0
BBX 11 10 2 -1
BITMAP
0600
0000
0000
3F00
0600
0C00
1800
3800
6C00
C7E0
ENDCHAR
STARTCHAR C025051
ENCODING 10793
SWIDTH 1400 0
DWIDTH 14 0
BBX 9 8 3 -1
BITMAP
3000
3000
3D80
7000
3F00
3980
F180
7700
ENDCHAR
STARTCHAR C025052
ENCODING 10794
SWIDTH 1400 0
DWIDTH 14 0
BBX 11 10 2 -1
BITMAP
1C00
19C0
7E60
3800
1980
1FE0
1860
F860
7BC0
1800
ENDCHAR
STARTCHAR C025053
ENCODING 10795
SWIDTH 1400 0
DWIDTH 14 0
BBX 11 10 2 0
BITMAP
1800
1800
1800
1EC0
F360
3360
6660
6600
C600
FC00
ENDCHAR
STARTCHAR C025054
ENCODING 10796
SWIDTH 1400 0
DWIDTH 14 0
BBX 13 10 1 -1
BITMAP
0C18
0C30
0C60
FFB0
79B0
3330
3300
6300
6E00
0C00
ENDCHAR
STARTCHAR C025055
ENCODING 10797
SWIDTH 1400 0
DWIDTH 14 0
BBX 9 11 3 -1
BITMAP
7000
1E00
FC00
6F00
1E00
7600
0300
7F80
C000
6000
3E00
ENDCHAR
STARTCHAR C025056
ENCODING 10798
SWIDTH 1400 0
DWIDTH 14 0
BBX 11 11 3 -1
BITMAP
7000
1FE0
FC00
6F00
0E00
7E00
0300
7F80
C000
6000
3E00
ENDCHAR
STARTCHAR C025057
ENCODING 10799
SWIDTH 1400 0
DWIDTH 14 0
BBX 5 11 5 -1
BITMAP
18
18
30
60
C0
00
C0
60
30
18
18
ENDCHAR
STARTCHAR C025060
ENCODING 10800
SWIDTH 1400 0
DWIDTH 14 0
BBX 8 11 5 -1
BITMAP
18
18
30
63
C6
00
C0
60
30
18
18
ENDCHAR
STARTCHAR C025061
ENCODING 10801
SWIDTH 1400 0
DWIDTH 14 0
BBX 11 11 2 -1
BITMAP
C300
6180
6180
C3E0
CF80
C180
C180
E180
E300
6300
0600
ENDCHAR
STARTCHAR C025062
ENCODING 10802
SWIDTH 1400 0
DWIDTH 14 0
BBX 12 11 2 -1
BITMAP
C330
61F0
C180
C3E0
CF80
C180
C180
E180
C300
0300
0600
ENDCHAR
STARTCHAR C025063
ENCODING 10803
SWIDTH 1400 0
DWIDTH 14 0
BBX 9 8 3 0
BITMAP
3E00
0F00
0000
0000
0000
0000
C000
7F80
ENDCHAR
STARTCHAR C025064
ENCODING 10804
SWIDTH 1400 0
DWIDTH 14 0
BBX 11 10 3 0
BITMAP
00C0
0060
3EC0
0F00
0000
0000
0000
0000
C000
7F80
ENDCHAR
STARTCHAR C025065
ENCODING 10805
SWIDTH 1400 0
DWIDTH 14 0
BBX 9 11 3 -1
BITMAP
3C00
3700
1E00
FE00
0600
0300
7F80
C180
C000
6000
3E00
ENDCHAR
STARTCHAR C025066
ENCODING 10806
SWIDTH 1400 0
DWIDTH 14 0
BBX 11 11 3 -1
BITMAP
3C00
37E0
1EC0
FE00
0600
0300
7F80
C180
C000
6000
3E00
ENDCHAR
STARTCHAR C025067
ENCODING 10807
SWIDTH 1400 0
DWIDTH 14 0
BBX 8 10 4 -1
BITMAP
C0
C0
C0
C0
C0
C0
C0
C0
C7
7C
ENDCHAR
STARTCHAR C025070
ENCODING 10808
SWIDTH 1400 0
DWIDTH 14 0
BBX 9 10 3 -1
BITMAP
6000
6600
6F00
6000
6000
C000
C000
C000
6380
3E00
ENDCHAR
STARTCHAR C025071
ENCODING 10809
SWIDTH 1400 0
DWIDTH 14 0
BBX 12 12 2 -1
BITMAP
0C00
0600
0600
1FF0
F600
0E00
3E00
3600
1E00
0E00
0C00
0C00
ENDCHAR
STARTCHAR C025072
ENCODING 10810
SWIDTH 1400 0
DWIDTH 14 0
BBX 12 12 2 -1
BITMAP
0C00
0660
06C0
1FF0
F600
0E00
3E00
3600
1E00
0E00
0600
0C00
ENDCHAR
STARTCHAR C025073
ENCODING 10811
SWIDTH 1400 0
DWIDTH 14 0
BBX 13 10 1 -1
BITMAP
00C0
1CC0
0CC0
0FF8
FEC0
0CC0
0DC0
0C00
0770
01C0
ENDCHAR
STARTCHAR C025074
ENCODING 10812
SWIDTH 1400 0
DWIDTH 14 0
BBX 12 9 2 0
BITMAP
01B0
39E0
1980
1FF0
F980
1980
1B00
1800
0FE0
ENDCHAR
STARTCHAR C025075
ENCODING 10813
SWIDTH 1400 0
DWIDTH 14 0
BBX 11 11 2 -1
BITMAP
0300
1F00
0600
0C00
1BE0
3E00
EC00
1800
1800
0C00
0700
ENDCHAR
STARTCHAR C025076
ENCODING 10814
SWIDTH 1400 0
DWIDTH 14 0
BBX 12 11 2 -1
BITMAP
0300
1F30
0660
0C00
1BE0
3E00
EC00
1800
1800
0C00
0780
ENDCHAR
STARTCHAR C025077
ENCODING 10815
SWIDTH 1400 0
DWIDTH 14 0
BBX 11 11 2 -1
BITMAP
3000
1800
1E00
3B80
70E0
6060
6000
6000
CC00
CC00
07E0
ENDCHAR
STARTCHAR C025100
ENCODING 10816
SWIDTH 1400 0
DWIDTH 14 0
BBX 12 10 2 -1
BITMAP
1830
1E70
3BC0
70E0
3060
6000
6000
CC00
CC00
07E0
ENDCHAR
STARTCHAR C025101
ENCODING 10817
SWIDTH 1400 0
DWIDTH 14 0
BBX 10 11 3 -2
BITMAP
3000
3E00
F800
6000
6000
7F80
70C0
60C0
0180
0700
0C00
ENDCHAR
STARTCHAR C025102
ENCODING 10818
SWIDTH 1400 0
DWIDTH 14 0
BBX 12 11 2 -1
BITMAP
1800
1800
FEF0
7060
3000
37C0
3C60
3060
00C0
03C0
0F00
ENDCHAR
STARTCHAR C025103
ENCODING 10819
SWIDTH 1400 0
DWIDTH 14 0
BBX 9 6 3 -1
BITMAP
0700
7D80
C180
0180
0180
0700
ENDCHAR
STARTCHAR C025104
ENCODING 10820
SWIDTH 1400 0
DWIDTH 14 0
BBX 12 7 1 0
BITMAP
0FE0
F830
7030
0030
0030
0060
01C0
ENDCHAR
STARTCHAR C025105
ENCODING 10821
SWIDTH 1400 0
DWIDTH 14 0
BBX 12 9 2 0
BITMAP
0030
0070
1FF0
F0C0
C060
0060
00C0
01C0
0700
ENDCHAR
STARTCHAR C025106
ENCODING 10822
SWIDTH 1400 0
DWIDTH 14 0
BBX 11 9 2 0
BITMAP
03E0
FF00
0600
0C00
1800
1800
1800
0C00
0780
ENDCHAR
STARTCHAR C025107
ENCODING 10823
SWIDTH 1400 0
DWIDTH 14 0
BBX 12 9 2 0
BITMAP
03E0
FF00
06F0
0C60
1800
1800
1800
0C00
0780
ENDCHAR
STARTCHAR C025110
ENCODING 10824
SWIDTH 1400 0
DWIDTH 14 0
BBX 9 10 3 -1
BITMAP
3000
3000
3000
3700
1C00
7000
C000
C000
C000
7F80
ENDCHAR
STARTCHAR C025111
ENCODING 10825
SWIDTH 1400 0
DWIDTH 14 0
BBX 10 11 3 -1
BITMAP
00C0
3300
3180
3000
3700
1C00
7000
C000
C000
C000
7F80
ENDCHAR
STARTCHAR C025112
ENCODING 10826
SWIDTH 1400 0
DWIDTH 14 0
BBX 11 12 2 -2
BITMAP
0C00
0C00
DE00
7000
30E0
6380
E300
C300
0300
3F80
1EC0
0C00
ENDCHAR
STARTCHAR C025113
ENCODING 10827
SWIDTH 1400 0
DWIDTH 14 0
BBX 11 9 2 0
BITMAP
6000
63C0
67C0
C000
C000
E000
F800
EEE0
63C0
ENDCHAR
STARTCHAR C025114
ENCODING 10828
SWIDTH 1400 0
DWIDTH 14 0
BBX 13 9 1 -1
BITMAP
0600
0600
7FE0
3630
3C30
FC30
D830
7FF0
63F8
ENDCHAR
STARTCHAR C025115
ENCODING 10829
SWIDTH 1400 0
DWIDTH 14 0
BBX 12 10 2 -1
BITMAP
1800
1800
3000
3BC0
7E60
3860
3060
F060
F7E0
F3F0
ENDCHAR
STARTCHAR C025116
ENCODING 10830
SWIDTH 1400 0
DWIDTH 14 0
BBX 11 8 2 0
BITMAP
3FC0
6660
CC60
1860
1860
F060
E0C0
0180
ENDCHAR
STARTCHAR C025117
ENCODING 10831
SWIDTH 1400 0
DWIDTH 14 0
BBX 11 10 2 -1
BITMAP
6180
6180
61E0
C780
C180
C180
E180
EFC0
79E0
6F00
ENDCHAR
STARTCHAR C025120
ENCODING 10832
SWIDTH 1400 0
DWIDTH 14 0
BBX 12 11 2 -1
BITMAP
0030
61B0
6180
61E0
C780
C180
C180
E180
EFC0
7DE0
6700
ENDCHAR
STARTCHAR C025121
ENCODING 10833
SWIDTH 1400 0
DWIDTH 14 0
BBX 12 11 2 -1
BITMAP
0370
61F0
61B0
C1E0
C780
C180
C180
E180
EFC0
F9E0
6F00
ENDCHAR
STARTCHAR C025122
ENCODING 10834
SWIDTH 1400 0
DWIDTH 14 0
BBX 11 10 2 -1
BITMAP
3980
F180
3180
61C0
C360
C360
C300
C600
6C00
3800
ENDCHAR
STARTCHAR C025123
ENCODING 10835
SWIDTH 1400 0
DWIDTH 14 0
BBX 12 10 2 -1
BITMAP
39B0
F1E0
3180
61C0
C360
C360
C300
C600
6C00
3800
ENDCHAR
STARTCHAR C025124
ENCODING 10836
SWIDTH 1400 0
DWIDTH 14 0
BBX 12 11 2 -1
BITMAP
0070
39F0
F1F0
6180
61C0
C360
C360
C300
C600
6C00
3800
ENDCHAR
STARTCHAR C025125
ENCODING 10837
SWIDTH 1400 0
DWIDTH 14 0
BBX 11 9 2 0
BITMAP
0C00
0600
0600
0C00
0C00
0C00
1FE0
7660
FE00
ENDCHAR
STARTCHAR C025126
ENCODING 10838
SWIDTH 1400 0
DWIDTH 14 0
BBX 12 9 2 0
BITMAP
0C00
0600
06F0
1C60
0C00
0C00
1FE0
7660
FE00
ENDCHAR
STARTCHAR C025127
ENCODING 10839
SWIDTH 1400 0
DWIDTH 14 0
BBX 12 9 2 0
BITMAP
0C00
07F0
06F0
0CF0
0C00
0600
1FE0
F360
EE00
ENDCHAR
STARTCHAR C025130
ENCODING 10840
SWIDTH 1400 0
DWIDTH 14 0
BBX 12 6 2 1
BITMAP
1800
7C00
C700
0180
00E0
0030
ENDCHAR
STARTCHAR C025131
ENCODING 10841
SWIDTH 1400 0
DWIDTH 14 0
BBX 12 8 2 1
BITMAP
0060
00C0
1800
7C00
C700
0180
00E0
0030
ENDCHAR
STARTCHAR C025132
ENCODING 10842
SWIDTH 1400 0
DWIDTH 14 0
BBX 12 8 2 1
BITMAP
01E0
01E0
19E0
7E00
C300
0180
00E0
0030
ENDCHAR
STARTCHAR C025133
ENCODING 10843
SWIDTH 1400 0
DWIDTH 14 0
BBX 11 10 2 -1
BITMAP
6FC0
6180
61E0
CF80
C180
E180
E180
EFE0
6D80
6700
ENDCHAR
STARTCHAR C025134
ENCODING 10844
SWIDTH 1400 0
DWIDTH 14 0
BBX 12 10 2 -1
BITMAP
6FC0
C1F0
C1F0
CF80
C180
6180
6180
CFE0
D980
0F00
ENDCHAR
STARTCHAR C025135
ENCODING 10845
SWIDTH 1400 0
DWIDTH 14 0
BBX 13 11 1 -1
BITMAP
0018
67F8
60F8
61F8
C7C0
C180
E180
E180
E7E0
6DB0
6700
ENDCHAR
STARTCHAR C025136
ENCODING 10846
SWIDTH 1400 0
DWIDTH 14 0
BBX 9 11 3 -1
BITMAP
1800
0C00
0C00
FF00
0F00
7F00
0C00
0C00
FE00
CF80
7800
ENDCHAR
STARTCHAR C025137
ENCODING 10847
SWIDTH 1400 0
DWIDTH 14 0
BBX 12 9 1 0
BITMAP
0700
0F00
0600
0600
0C60
3FE0
78F0
F0C0
6180
ENDCHAR
STARTCHAR C025140
ENCODING 10848
SWIDTH 1400 0
DWIDTH 14 0
BBX 12 10 2 -1
BITMAP
3000
3C00
F8C0
31E0
F1F0
F180
F180
6180
61C0
3F80
ENDCHAR
STARTCHAR C025141
ENCODING 10849
SWIDTH 1400 0
DWIDTH 14 0
BBX 11 10 2 -1
BITMAP
0600
0600
6F80
7CE0
6C60
F860
3860
3860
E0C0
0380
ENDCHAR
STARTCHAR C025142
ENCODING 10850
SWIDTH 1400 0
DWIDTH 14 0
BBX 8 11 3 -1
BITMAP
18
18
18
78
30
F0
73
3F
63
33
3F
ENDCHAR
STARTCHAR C025143
ENCODING 10851
SWIDTH 1400 0
DWIDTH 14 0
BBX 10 8 3 -1
BITMAP
0C00
7C00
6F80
38C0
FF80
1800
0C00
0600
ENDCHAR
STARTCHAR C025144
ENCODING 10852
SWIDTH 1400 0
DWIDTH 14 0
BBX 13 10 1 -1
BITMAP
0300
3E00
1FF8
1C18
FC38
06E0
0300
0300
0180
0180
ENDCHAR
STARTCHAR C025145
ENCODING 10853
SWIDTH 1400 0
DWIDTH 14 0
BBX 10 8 3 -1
BITMAP
1C00
7F00
FD80
FDC0
7D80
7F80
1F00
0C00
ENDCHAR
STARTCHAR C025146
ENCODING 10854
SWIDTH 1400 0
DWIDTH 14 0
BBX 11 10 2 -1
BITMAP
1C00
3780
3FC0
33C0
F360
F3C0
DBC0
CF80
0C00
1800
ENDCHAR
STARTCHAR C025147
ENCODING 10855
SWIDTH 1400 0
DWIDTH 14 0
BBX 8 9 4 -2
BITMAP
18
18
1F
18
18
18
FE
DB
70
ENDCHAR
STARTCHAR C025150
ENCODING 10856
SWIDTH 1400 0
DWIDTH 14 0
BBX 8 11 3 -1
BITMAP
38
18
18
1F
1C
18
18
18
FE
DF
F8
ENDCHAR
STARTCHAR C025151
ENCODING 10857
SWIDTH 1400 0
DWIDTH 14 0
BBX 10 10 3 -1
BITMAP
1800
1C00
7000
6000
6000
6F80
78C0
E0C0
0180
0700
ENDCHAR
STARTCHAR C025152
ENCODING 10858
SWIDTH 1400 0
DWIDTH 14 0
BBX 7 10 4 0
BITMAP
D8
FC
EC
C6
C6
CC
CC
0C
18
18
ENDCHAR
STARTCHAR C025153
ENCODING 10859
SWIDTH 1400 0
DWIDTH 14 0
BBX 9 10 3 -1
BITMAP
7E00
0C00
1800
1800
3F00
7180
E180
3D80
6F00
3E00
ENDCHAR
STARTCHAR C025154
ENCODING 10860
SWIDTH 1400 0
DWIDTH 14 0
BBX 12 11 2 -1
BITMAP
3000
1800
3180
3F80
F980
3180
7180
7180
F300
F1B0
30E0
ENDCHAR
STARTCHAR C025155
ENCODING 10861
SWIDTH 1400 0
DWIDTH 14 0
BBX 11 10 2 -1
BITMAP
3F00
0600
0C00
1800
3F80
38C0
E060
00C0
01C0
0700
ENDCHAR
STARTCHAR C025156
ENCODING 10862
SWIDTH 1400 0
DWIDTH 14 0
BBX 10 8 3 -1
BITMAP
1800
3000
3000
7F80
38C0
3180
F180
F700
ENDCHAR
STARTCHAR C025157
ENCODING 10863
SWIDTH 1400 0
DWIDTH 14 0
BBX 11 10 2 -1
BITMAP
1800
1800
1800
FFC0
3C60
7060
7060
F0C0
F180
3300
ENDCHAR
STARTCHAR C025160
ENCODING 10864
SWIDTH 1400 0
DWIDTH 14 0
BBX 11 10 2 -1
BITMAP
3E00
0600
0C00
0F80
18C0
7860
F060
F7E0
ECC0
0780
ENDCHAR
STARTCHAR C025161
ENCODING 10865
SWIDTH 1400 0
DWIDTH 14 0
BBX 11 10 2 -1
BITMAP
3F00
1E00
0C00
1F80
3180
1F80
0F00
3800
77E0
DCE0
ENDCHAR
STARTCHAR C025162
ENCODING 10866
SWIDTH 1400 0
DWIDTH 14 0
BBX 10 11 3 -1
BITMAP
1C00
1800
FE00
3000
31C0
FF00
CC00
3C00
6C00
6000
3F00
ENDCHAR
STARTCHAR C025163
ENCODING 10867
SWIDTH 1400 0
DWIDTH 14 0
BBX 10 10 2 -1
BITMAP
0600
0E00
0C00
1800
1800
3E00
6600
6600
C6C0
0380
ENDCHAR
STARTCHAR C025164
ENCODING 10868
SWIDTH 1400 0
DWIDTH 14 0
BBX 0 0 0 0
BITMAP
ENDCHAR
STARTCHAR C025165
ENCODING 10869
SWIDTH 1400 0
DWIDTH 14 0
BBX 1 4 14 -3
BITMAP
80
00
00
80
ENDCHAR
STARTCHAR C025166
ENCODING 10870
SWIDTH 1400 0
DWIDTH 14 0
BBX 0 0 0 0
BITMAP
ENDCHAR
STARTCHAR C025167
ENCODING 10871
SWIDTH 1400 0
DWIDTH 14 0
BBX 0 0 0 0
BITMAP
ENDCHAR
STARTCHAR C025170
ENCODING 10872
SWIDTH 1400 0
DWIDTH 14 0
BBX 0 0 0 0
BITMAP
ENDCHAR
STARTCHAR C025171
ENCODING 10873
SWIDTH 1400 0
DWIDTH 14 0
BBX 0 0 0 0
BITMAP
ENDCHAR
STARTCHAR C025172
ENCODING 10874
SWIDTH 1400 0
DWIDTH 14 0
BBX 1 12 14 -2
BITMAP
80
80
80
80
00
00
00
00
00
00
00
80
ENDCHAR
STARTCHAR C025173
ENCODING 10875
SWIDTH 1400 0
DWIDTH 14 0
BBX 0 0 0 0
BITMAP
ENDCHAR
STARTCHAR C025174
ENCODING 10876
SWIDTH 1400 0
DWIDTH 14 0
BBX 0 0 0 0
BITMAP
ENDCHAR
STARTCHAR C025175
ENCODING 10877
SWIDTH 1400 0
DWIDTH 14 0
BBX 0 0 0 0
BITMAP
ENDCHAR
STARTCHAR C025176
ENCODING 10878
SWIDTH 1400 0
DWIDTH 14 0
BBX 0 0 0 0
BITMAP
ENDCHAR
STARTCHAR C025177
ENCODING 10879
SWIDTH 1400 0
DWIDTH 14 0
BBX 1 7 14 4
BITMAP
80
00
00
00
00
00
80
ENDCHAR
STARTCHAR C025440
ENCODING 11040
SWIDTH 1400 0
DWIDTH 14 0
BBX 1 1 14 5
BITMAP
80
ENDCHAR
STARTCHAR C025441
ENCODING 11041
SWIDTH 1400 0
DWIDTH 14 0
BBX 9 7 3 0
BITMAP
0300
FF80
0600
1C00
1800
1800
3000
ENDCHAR
STARTCHAR C025442
ENCODING 11042
SWIDTH 1400 0
DWIDTH 14 0
BBX 11 10 2 -1
BITMAP
0FC0
F8E0
0D80
0700
0E00
0C00
0C00
1800
1800
3000
ENDCHAR
STARTCHAR C025443
ENCODING 11043
SWIDTH 1400 0
DWIDTH 14 0
BBX 7 9 4 -1
BITMAP
0C
0E
0C
38
78
D8
18
18
18
ENDCHAR
STARTCHAR C025444
ENCODING 11044
SWIDTH 1400 0
DWIDTH 14 0
BBX 8 11 4 -1
BITMAP
03
07
0E
0C
1C
3C
EC
0C
0C
0C
0C
ENDCHAR
STARTCHAR C025445
ENCODING 11045
SWIDTH 1400 0
DWIDTH 14 0
BBX 8 8 4 -1
BITMAP
30
30
FE
C7
C6
CC
0C
18
ENDCHAR
STARTCHAR C025446
ENCODING 11046
SWIDTH 1400 0
DWIDTH 14 0
BBX 10 9 3 1
BITMAP
1C00
1800
FF80
C1C0
C180
C300
0300
0600
0C00
ENDCHAR
STARTCHAR C025447
ENCODING 11047
SWIDTH 1400 0
DWIDTH 14 0
BBX 9 5 3 -1
BITMAP
0F00
3C00
0C00
1800
FF80
ENDCHAR
STARTCHAR C025450
ENCODING 11048
SWIDTH 1400 0
DWIDTH 14 0
BBX 11 7 2 1
BITMAP
7FC0
1C00
0600
0600
0600
FFE0
6000
ENDCHAR
STARTCHAR C025451
ENCODING 11049
SWIDTH 1400 0
DWIDTH 14 0
BBX 9 8 3 -1
BITMAP
0C00
0C00
FF80
1C00
3C00
6C00
0C00
0C00
ENDCHAR
STARTCHAR C025452
ENCODING 11050
SWIDTH 1400 0
DWIDTH 14 0
BBX 12 10 2 -1
BITMAP
0300
0300
DFF0
7700
0F00
1B00
3300
6300
0F00
0300
ENDCHAR
STARTCHAR C025453
ENCODING 11051
SWIDTH 1400 0
DWIDTH 14 0
BBX 11 10 2 -1
BITMAP
0700
0600
67C0
3CE0
0CC0
18C0
3180
6180
C700
0300
ENDCHAR
STARTCHAR C025454
ENCODING 11052
SWIDTH 1400 0
DWIDTH 14 0
BBX 12 9 2 0
BITMAP
0730
0670
6FF0
3CE0
0CC0
18C0
3180
6180
C700
ENDCHAR
STARTCHAR C025455
ENCODING 11053
SWIDTH 1400 0
DWIDTH 14 0
BBX 11 10 2 -1
BITMAP
1C00
0D80
0F00
7C00
0CE0
0780
FE00
0600
0300
0300
ENDCHAR
STARTCHAR C025456
ENCODING 11054
SWIDTH 1400 0
DWIDTH 14 0
BBX 11 11 3 -1
BITMAP
30C0
19E0
1FC0
3C00
F800
0FC0
3C00
EC00
0C00
0600
0600
ENDCHAR
STARTCHAR C025457
ENCODING 11055
SWIDTH 1400 0
DWIDTH 14 0
BBX 8 10 4 0
BITMAP
30
18
3F
66
C6
0C
18
18
30
E0
ENDCHAR
STARTCHAR C025460
ENCODING 11056
SWIDTH 1400 0
DWIDTH 14 0
BBX 10 11 4 -1
BITMAP
00C0
19C0
3F00
3300
6600
C600
0C00
1800
3000
6000
C000
ENDCHAR
STARTCHAR C025461
ENCODING 11057
SWIDTH 1400 0
DWIDTH 14 0
BBX 11 9 2 0
BITMAP
1800
1800
33E0
7F00
C300
0600
0600
0C00
1800
ENDCHAR
STARTCHAR C025462
ENCODING 11058
SWIDTH 1400 0
DWIDTH 14 0
BBX 11 10 3 0
BITMAP
0060
30E0
3000
6FC0
FE00
0600
0C00
0C00
1800
3000
ENDCHAR
STARTCHAR C025463
ENCODING 11059
SWIDTH 1400 0
DWIDTH 14 0
BBX 9 7 3 0
BITMAP
FF80
6180
0300
0300
0300
FF00
6000
ENDCHAR
STARTCHAR C025464
ENCODING 11060
SWIDTH 1400 0
DWIDTH 14 0
BBX 10 8 4 1
BITMAP
0040
06C0
FF00
0600
0600
0600
0600
FC00
ENDCHAR
STARTCHAR C025465
ENCODING 11061
SWIDTH 1400 0
DWIDTH 14 0
BBX 10 10 3 0
BITMAP
0600
3600
3600
7FC0
F600
3600
3600
0C00
0C00
1800
ENDCHAR
STARTCHAR C025466
ENCODING 11062
SWIDTH 1400 0
DWIDTH 14 0
BBX 11 10 3 0
BITMAP
0600
33E0
3300
7FE0
F300
3300
3300
0600
0600
0C00
ENDCHAR
STARTCHAR C025467
ENCODING 11063
SWIDTH 1400 0
DWIDTH 14 0
BBX 10 9 2 0
BITMAP
3000
1800
0000
E0C0
3180
0300
0600
1C00
3000
ENDCHAR
STARTCHAR C025470
ENCODING 11064
SWIDTH 1400 0
DWIDTH 14 0
BBX 10 9 3 0
BITMAP
6180
33C0
0000
C180
6180
0700
0C00
3800
E000
ENDCHAR
STARTCHAR C025471
ENCODING 11065
SWIDTH 1400 0
DWIDTH 14 0
BBX 11 8 2 0
BITMAP
3F80
0300
0300
0600
0E00
1B80
30C0
E060
ENDCHAR
STARTCHAR C025472
ENCODING 11066
SWIDTH 1400 0
DWIDTH 14 0
BBX 12 10 2 0
BITMAP
0060
0070
3FE0
0300
0300
0600
0E00
1B80
30C0
E060
ENDCHAR
STARTCHAR C025473
ENCODING 11067
SWIDTH 1400 0
DWIDTH 14 0
BBX 11 9 2 0
BITMAP
1C00
0C00
0C00
0FE0
FCC0
0C00
0C00
0C00
07E0
ENDCHAR
STARTCHAR C025474
ENCODING 11068
SWIDTH 1400 0
DWIDTH 14 0
BBX 12 9 2 0
BITMAP
1C30
0C70
0C30
0FE0
FCC0
0C00
0C00
0C00
07E0
ENDCHAR
STARTCHAR C025475
ENCODING 11069
SWIDTH 1400 0
DWIDTH 14 0
BBX 9 9 3 0
BITMAP
0300
C180
6380
6300
0600
0600
0C00
1800
3000
ENDCHAR
STARTCHAR C025476
ENCODING 11070
SWIDTH 1400 0
DWIDTH 14 0
BBX 11 10 3 0
BITMAP
0060
03E0
C1E0
6380
6300
0600
0E00
0C00
1800
3000
ENDCHAR
STARTCHAR C025477
ENCODING 11071
SWIDTH 1400 0
DWIDTH 14 0
BBX 9 10 3 -1
BITMAP
0C00
1F80
3300
7300
DE00
0C00
0C00
1800
7000
C000
ENDCHAR
STARTCHAR C025500
ENCODING 11072
SWIDTH 1400 0
DWIDTH 14 0
BBX 10 11 4 -1
BITMAP
00C0
19C0
3FC0
6700
6600
FC00
1C00
1800
3000
6000
C000
ENDCHAR
STARTCHAR C025501
ENCODING 11073
SWIDTH 1400 0
DWIDTH 14 0
BBX 11 10 2 0
BITMAP
0300
0F00
3C00
0600
0FE0
FE00
0600
0C00
0C00
1800
ENDCHAR
STARTCHAR C025502
ENCODING 11074
SWIDTH 1400 0
DWIDTH 14 0
BBX 12 10 2 0
BITMAP
0300
0E30
3C70
0600
1FE0
F600
0600
0C00
0C00
1800
ENDCHAR
STARTCHAR C025503
ENCODING 11075
SWIDTH 1400 0
DWIDTH 14 0
BBX 9 6 3 -1
BITMAP
DB80
7B00
0600
0600
0C00
1800
ENDCHAR
STARTCHAR C025504
ENCODING 11076
SWIDTH 1400 0
DWIDTH 14 0
BBX 10 8 2 0
BITMAP
CCC0
6CC0
6180
0180
0300
0600
0C00
1800
ENDCHAR
STARTCHAR C025505
ENCODING 11077
SWIDTH 1400 0
DWIDTH 14 0
BBX 12 9 2 0
BITMAP
0070
CCF0
6CC0
60C0
0180
0300
0300
0600
0C00
ENDCHAR
STARTCHAR C025506
ENCODING 11078
SWIDTH 1400 0
DWIDTH 14 0
BBX 11 10 2 0
BITMAP
3780
1C00
0000
FFE0
6600
0600
0C00
0C00
1800
1800
ENDCHAR
STARTCHAR C025507
ENCODING 11079
SWIDTH 1400 0
DWIDTH 14 0
BBX 12 9 2 1
BITMAP
3780
1C70
0030
FFE0
6600
0600
0C00
0C00
1800
ENDCHAR
STARTCHAR C025510
ENCODING 11080
SWIDTH 1400 0
DWIDTH 14 0
BBX 6 11 6 -1
BITMAP
C0
C0
C0
C0
E0
F8
CC
C0
C0
C0
C0
ENDCHAR
STARTCHAR C025511
ENCODING 11081
SWIDTH 1400 0
DWIDTH 14 0
BBX 7 11 6 -1
BITMAP
C0
CC
DE
CC
E0
F8
CC
C0
C0
C0
C0
ENDCHAR
STARTCHAR C025512
ENCODING 11082
SWIDTH 1400 0
DWIDTH 14 0
BBX 11 11 2 -2
BITMAP
0600
0600
0600
3FE0
E600
0600
0600
0C00
0C00
1800
3000
ENDCHAR
STARTCHAR C025513
ENCODING 11083
SWIDTH 1400 0
DWIDTH 14 0
BBX 11 6 2 1
BITMAP
3F80
0000
0000
0000
FFE0
6000
ENDCHAR
STARTCHAR C025514
ENCODING 11084
SWIDTH 1400 0
DWIDTH 14 0
BBX 8 9 4 0
BITMAP
0F
7B
06
6C
3C
1C
36
66
C0
ENDCHAR
STARTCHAR C025515
ENCODING 11085
SWIDTH 1400 0
DWIDTH 14 0
BBX 10 11 3 -1
BITMAP
1800
0E00
0300
7F00
0C00
1C00
3F00
EDC0
0CC0
0C00
0C00
ENDCHAR
STARTCHAR C025516
ENCODING 11086
SWIDTH 1400 0
DWIDTH 14 0
BBX 8 9 4 0
BITMAP
06
07
06
0C
0C
18
30
60
C0
ENDCHAR
STARTCHAR C025517
ENCODING 11087
SWIDTH 1400 0
DWIDTH 14 0
BBX 12 5 2 2
BITMAP
0300
1980
30E0
6070
C030
ENDCHAR
STARTCHAR C025520
ENCODING 11088
SWIDTH 1400 0
DWIDTH 14 0
BBX 12 6 2 2
BITMAP
0070
3330
3980
30E0
6060
C030
ENDCHAR
STARTCHAR C025521
ENCODING 11089
SWIDTH 1400 0
DWIDTH 14 0
BBX 12 7 2 2
BITMAP
0070
0070
0370
1980
30E0
6060
C030
ENDCHAR
STARTCHAR C025522
ENCODING 11090
SWIDTH 1400 0
DWIDTH 14 0
BBX 10 10 3 0
BITMAP
C000
6000
6000
6700
7C00
6000
6000
6000
6000
3FC0
ENDCHAR
STARTCHAR C025523
ENCODING 11091
SWIDTH 1400 0
DWIDTH 14 0
BBX 11 10 3 0
BITMAP
C000
60C0
61E0
67C0
7C00
6000
6000
6000
6000
3FC0
ENDCHAR
STARTCHAR C025524
ENCODING 11092
SWIDTH 1400 0
DWIDTH 14 0
BBX 11 10 3 0
BITMAP
C1C0
6360
61C0
6700
7C00
6000
6000
6000
6000
3FC0
ENDCHAR
STARTCHAR C025525
ENCODING 11093
SWIDTH 1400 0
DWIDTH 14 0
BBX 11 9 2 -1
BITMAP
FFC0
60E0
00C0
0180
0180
0300
0600
0C00
1800
ENDCHAR
STARTCHAR C025526
ENCODING 11094
SWIDTH 1400 0
DWIDTH 14 0
BBX 12 10 2 -1
BITMAP
0030
FFC0
60C0
01C0
0180
0300
0300
0600
0C00
1800
ENDCHAR
STARTCHAR C025527
ENCODING 11095
SWIDTH 1400 0
DWIDTH 14 0
BBX 12 11 2 -1
BITMAP
0070
0070
FFF0
60C0
0180
0180
0300
0600
0C00
1800
3000
ENDCHAR
STARTCHAR C025530
ENCODING 11096
SWIDTH 1400 0
DWIDTH 14 0
BBX 13 5 1 2
BITMAP
1E00
3300
E180
00E0
0038
ENDCHAR
STARTCHAR C025531
ENCODING 11097
SWIDTH 1400 0
DWIDTH 14 0
BBX 13 6 1 2
BITMAP
0070
1E00
3300
E180
00E0
0038
ENDCHAR
STARTCHAR C025532
ENCODING 11098
SWIDTH 1400 0
DWIDTH 14 0
BBX 13 7 1 2
BITMAP
00F0
00F0
1EF0
3300
E180
00E0
0038
ENDCHAR
STARTCHAR C025533
ENCODING 11099
SWIDTH 1400 0
DWIDTH 14 0
BBX 11 11 2 -1
BITMAP
0E00
0600
0600
7FE0
0600
0600
6600
66C0
C660
0E00
0600
ENDCHAR
STARTCHAR C025534
ENCODING 11100
SWIDTH 1400 0
DWIDTH 14 0
BBX 12 11 2 -1
BITMAP
0E00
0630
0660
7FE0
0600
0600
6780
66C0
C660
CE00
0600
ENDCHAR
STARTCHAR C025535
ENCODING 11101
SWIDTH 1400 0
DWIDTH 14 0
BBX 12 12 2 -1
BITMAP
00F0
0EF0
06F0
06F0
7FE0
0600
0600
6600
66C0
C660
0E00
0600
ENDCHAR
STARTCHAR C025536
ENCODING 11102
SWIDTH 1400 0
DWIDTH 14 0
BBX 12 7 1 1
BITMAP
01F0
DFB0
7060
0CC0
0780
0300
0300
ENDCHAR
STARTCHAR C025537
ENCODING 11103
SWIDTH 1400 0
DWIDTH 14 0
BBX 6 9 5 0
BITMAP
E0
38
00
00
78
00
00
E0
3C
ENDCHAR
STARTCHAR C025540
ENCODING 11104
SWIDTH 1400 0
DWIDTH 14 0
BBX 11 8 2 0
BITMAP
0600
0E00
0C00
1800
1980
30C0
FFE0
6060
ENDCHAR
STARTCHAR C025541
ENCODING 11105
SWIDTH 1400 0
DWIDTH 14 0
BBX 9 8 3 0
BITMAP
0180
0300
1F00
0E00
0F00
1B00
3000
E000
ENDCHAR
STARTCHAR C025542
ENCODING 11106
SWIDTH 1400 0
DWIDTH 14 0
BBX 11 9 2 0
BITMAP
0180
3F00
0C00
0C00
FFE0
6C00
0C00
0C00
07E0
ENDCHAR
STARTCHAR C025543
ENCODING 11107
SWIDTH 1400 0
DWIDTH 14 0
BBX 10 7 2 -1
BITMAP
1C00
0FC0
FFC0
6C00
0C00
0600
0600
ENDCHAR
STARTCHAR C025544
ENCODING 11108
SWIDTH 1400 0
DWIDTH 14 0
BBX 13 9 1 0
BITMAP
0C00
0C70
07F8
FE60
0600
0600
0300
0300
0300
ENDCHAR
STARTCHAR C025545
ENCODING 11109
SWIDTH 1400 0
DWIDTH 14 0
BBX 9 6 3 -2
BITMAP
6600
3E00
0C00
0C00
FF80
C000
ENDCHAR
STARTCHAR C025546
ENCODING 11110
SWIDTH 1400 0
DWIDTH 14 0
BBX 12 7 1 1
BITMAP
0180
1FC0
0180
0180
0300
FFF0
6000
ENDCHAR
STARTCHAR C025547
ENCODING 11111
SWIDTH 1400 0
DWIDTH 14 0
BBX 7 6 4 -1
BITMAP
FE
66
0E
7C
0C
FC
ENDCHAR
STARTCHAR C025550
ENCODING 11112
SWIDTH 1400 0
DWIDTH 14 0
BBX 9 7 3 1
BITMAP
7F80
0180
0300
7F00
0300
0300
FF00
ENDCHAR
STARTCHAR C025551
ENCODING 11113
SWIDTH 1400 0
DWIDTH 14 0
BBX 9 10 3 -1
BITMAP
7F00
0000
0F80
F980
0300
0700
0600
0C00
1800
7000
ENDCHAR
STARTCHAR C025552
ENCODING 11114
SWIDTH 1400 0
DWIDTH 14 0
BBX 7 10 4 0
BITMAP
0C
C6
C6
C6
C6
C6
C6
06
0C
18
ENDCHAR
STARTCHAR C025553
ENCODING 11115
SWIDTH 1400 0
DWIDTH 14 0
BBX 12 8 1 0
BITMAP
3300
1B00
1B00
3300
3330
63E0
6380
C000
ENDCHAR
STARTCHAR C025554
ENCODING 11116
SWIDTH 1400 0
DWIDTH 14 0
BBX 8 8 4 0
BITMAP
C0
C0
C0
C7
CC
F8
E0
C0
ENDCHAR
STARTCHAR C025555
ENCODING 11117
SWIDTH 1400 0
DWIDTH 14 0
BBX 9 7 3 1
BITMAP
FF80
6180
6180
6180
6300
7F00
6000
ENDCHAR
STARTCHAR C025556
ENCODING 11118
SWIDTH 1400 0
DWIDTH 14 0
BBX 9 7 3 -1
BITMAP
7F00
C380
6300
6600
0C00
0C00
1800
ENDCHAR
STARTCHAR C025557
ENCODING 11119
SWIDTH 1400 0
DWIDTH 14 0
BBX 10 9 3 0
BITMAP
FF80
C1C0
C180
C300
C300
0600
0C00
1800
3000
ENDCHAR
STARTCHAR C025560
ENCODING 11120
SWIDTH 1400 0
DWIDTH 14 0
BBX 10 12 3 -1
BITMAP
0C00
0600
0600
7F80
0600
6600
6C00
FFC0
0C00
0C00
0C00
0C00
ENDCHAR
STARTCHAR C025561
ENCODING 11121
SWIDTH 1400 0
DWIDTH 14 0
BBX 13 8 1 1
BITMAP
00C0
3FE0
0180
0700
0600
0600
DFF0
7038
ENDCHAR
STARTCHAR C025562
ENCODING 11122
SWIDTH 1400 0
DWIDTH 14 0
BBX 9 10 3 -1
BITMAP
DF80
7180
0300
FF00
6300
0600
0C00
1800
3000
6000
ENDCHAR
STARTCHAR C025563
ENCODING 11123
SWIDTH 1400 0
DWIDTH 14 0
BBX 10 8 3 0
BITMAP
7000
30C0
0180
0300
0600
1C00
F000
6000
ENDCHAR
STARTCHAR C025564
ENCODING 11124
SWIDTH 1400 0
DWIDTH 14 0
BBX 11 9 3 1
BITMAP
1C00
1860
FF80
C1C0
C180
C300
C300
0600
0C00
ENDCHAR
STARTCHAR C025565
ENCODING 11125
SWIDTH 1400 0
DWIDTH 14 0
BBX 7 7 4 -1
BITMAP
18
1E
76
36
66
CC
1C
ENDCHAR
STARTCHAR C025566
ENCODING 11126
SWIDTH 1400 0
DWIDTH 14 0
BBX 8 7 4 -1
BITMAP
60
67
FC
18
18
30
60
ENDCHAR
STARTCHAR C025567
ENCODING 11127
SWIDTH 1400 0
DWIDTH 14 0
BBX 0 0 0 0
BITMAP
ENDCHAR
STARTCHAR C025570
ENCODING 11128
SWIDTH 1400 0
DWIDTH 14 0
BBX 0 0 0 0
BITMAP
ENDCHAR
STARTCHAR C025571
ENCODING 11129
SWIDTH 1400 0
DWIDTH 14 0
BBX 1 7 14 4
BITMAP
80
00
00
00
00
00
80
ENDCHAR
STARTCHAR C025572
ENCODING 11130
SWIDTH 1400 0
DWIDTH 14 0
BBX 0 0 0 0
BITMAP
ENDCHAR
STARTCHAR C025573
ENCODING 11131
SWIDTH 1400 0
DWIDTH 14 0
BBX 0 0 0 0
BITMAP
ENDCHAR
STARTCHAR C025574
ENCODING 11132
SWIDTH 1400 0
DWIDTH 14 0
BBX 0 0 0 0
BITMAP
ENDCHAR
STARTCHAR C025575
ENCODING 11133
SWIDTH 1400 0
DWIDTH 14 0
BBX 0 0 0 0
BITMAP
ENDCHAR
STARTCHAR C025576
ENCODING 11134
SWIDTH 1400 0
DWIDTH 14 0
BBX 1 4 14 -3
BITMAP
80
00
00
80
ENDCHAR
STARTCHAR C025577
ENCODING 11135
SWIDTH 1400 0
DWIDTH 14 0
BBX 0 0 0 0
BITMAP
ENDCHAR
STARTCHAR C026040
ENCODING 11296
SWIDTH 1400 0
DWIDTH 14 0
BBX 1 1 14 0
BITMAP
80
ENDCHAR
STARTCHAR C026041
ENCODING 11297
SWIDTH 1400 0
DWIDTH 14 0
BBX 11 9 1 0
BITMAP
0F00
0F00
1B00
1980
1980
1FC0
30C0
6060
F0E0
ENDCHAR
STARTCHAR C026042
ENCODING 11298
SWIDTH 1400 0
DWIDTH 14 0
BBX 9 10 3 0
BITMAP
7F80
3180
3000
3000
3000
3F00
3180
3180
3180
FF00
ENDCHAR
STARTCHAR C026043
ENCODING 11299
SWIDTH 1400 0
DWIDTH 14 0
BBX 9 10 3 0
BITMAP
7E00
6700
6380
6300
6600
7F00
6380
6180
6380
FF00
ENDCHAR
STARTCHAR C026044
ENCODING 11300
SWIDTH 1400 0
DWIDTH 14 0
BBX 9 11 3 -1
BITMAP
FF80
6180
6180
6000
6000
6000
6000
6000
6000
E000
3000
ENDCHAR
STARTCHAR C026045
ENCODING 11301
SWIDTH 1400 0
DWIDTH 14 0
BBX 11 12 2 -2
BITMAP
7FE0
1980
1980
1980
3180
3180
3180
6180
C180
FFC0
C060
0060
ENDCHAR
STARTCHAR C026046
ENCODING 11302
SWIDTH 1400 0
DWIDTH 14 0
BBX 7 10 4 -1
BITMAP
FE
C0
C0
C0
FC
C0
C0
C0
C6
7C
ENDCHAR
STARTCHAR C026047
ENCODING 11303
SWIDTH 1400 0
DWIDTH 14 0
BBX 9 11 3 0
BITMAP
7700
0000
FF00
6300
6000
6300
7F00
6300
6000
6180
FF80
ENDCHAR
STARTCHAR C026050
ENCODING 11304
SWIDTH 1400 0
DWIDTH 14 0
BBX 15 11 0 0
BITMAP
0002
EFDC
F33C
3360
1B60
1BC0
0FC2
1FE0
3B70
3330
6FD8
ENDCHAR
STARTCHAR C026051
ENCODING 11305
SWIDTH 1400 0
DWIDTH 14 0
BBX 7 11 4 -1
BITMAP
F8
EE
C6
06
0C
38
0C
06
06
C6
7C
ENDCHAR
STARTCHAR C026052
ENCODING 11306
SWIDTH 1400 0
DWIDTH 14 0
BBX 12 10 2 0
BITMAP
FBF0
60C0
63C0
66C0
66C0
6CC0
78C0
70C0
60C0
FBF0
ENDCHAR
STARTCHAR C026053
ENCODING 11307
SWIDTH 1400 0
DWIDTH 14 0
BBX 12 11 2 -1
BITMAP
1B80
FFF0
60C0
61C0
63C0
66C0
7CC0
70C0
60C0
60C0
31E0
ENDCHAR
STARTCHAR C026054
ENCODING 11308
SWIDTH 1400 0
DWIDTH 14 0
BBX 11 11 2 -1
BITMAP
7CE0
33E0
3300
3300
3600
3E00
3700
3380
3180
FCC0
0060
ENDCHAR
STARTCHAR C026055
ENCODING 11309
SWIDTH 1400 0
DWIDTH 14 0
BBX 10 9 2 0
BITMAP
3FC0
1980
1980
1980
1980
1980
1980
3180
E380
ENDCHAR
STARTCHAR C026056
ENCODING 11310
SWIDTH 1400 0
DWIDTH 14 0
BBX 14 10 1 0
BITMAP
E03C
7070
70F0
78F0
79B0
6DB0
6DB0
6730
6330
F0FC
ENDCHAR
STARTCHAR C026057
ENCODING 11311
SWIDTH 1400 0
DWIDTH 14 0
BBX 12 11 2 -1
BITMAP
FBF0
60C0
60C0
60C0
60C0
7FC0
60C0
60C0
60C0
F8F0
0180
ENDCHAR
STARTCHAR C026060
ENCODING 11312
SWIDTH 1400 0
DWIDTH 14 0
BBX 11 10 2 0
BITMAP
1F00
71C0
60C0
C060
C060
C060
C060
60C0
71C0
1F00
ENDCHAR
STARTCHAR C026061
ENCODING 11313
SWIDTH 1400 0
DWIDTH 14 0
BBX 11 11 2 -1
BITMAP
FFE0
60C0
60C0
60C0
60C0
60C0
60C0
60C0
60C0
70E0
0180
ENDCHAR
STARTCHAR C026062
ENCODING 11314
SWIDTH 1400 0
DWIDTH 14 0
BBX 9 10 3 0
BITMAP
3F00
3380
3180
3180
3380
3F00
3000
3000
3000
F800
ENDCHAR
STARTCHAR C026063
ENCODING 11315
SWIDTH 1400 0
DWIDTH 14 0
BBX 10 11 3 -1
BITMAP
1E00
33C0
60C0
C000
C000
C000
C000
C000
60C0
3980
0F00
ENDCHAR
STARTCHAR C026064
ENCODING 11316
SWIDTH 1400 0
DWIDTH 14 0
BBX 10 10 2 0
BITMAP
FFC0
CCC0
0C00
0C00
0C00
0C00
0C00
0C00
0C00
1C00
ENDCHAR
STARTCHAR C026065
ENCODING 11317
SWIDTH 1400 0
DWIDTH 14 0
BBX 9 9 3 0
BITMAP
E180
6180
6300
3300
3600
1C00
1C00
1800
F800
ENDCHAR
STARTCHAR C026066
ENCODING 11318
SWIDTH 1400 0
DWIDTH 14 0
BBX 11 10 2 0
BITMAP
0F80
0600
3F80
66C0
C660
C660
C660
66C0
3F80
1E00
ENDCHAR
STARTCHAR C026067
ENCODING 11319
SWIDTH 1400 0
DWIDTH 14 0
BBX 11 10 2 0
BITMAP
79E0
30C0
3180
1B00
0E00
0E00
1E00
3300
6180
E1C0
ENDCHAR
STARTCHAR C026070
ENCODING 11320
SWIDTH 1400 0
DWIDTH 14 0
BBX 12 12 2 -2
BITMAP
79F0
60C0
60C0
60C0
60C0
60C0
60C0
60C0
60C0
FFC0
0070
0030
ENDCHAR
STARTCHAR C026071
ENCODING 11321
SWIDTH 1400 0
DWIDTH 14 0
BBX 11 11 2 -1
BITMAP
FFE0
3180
3180
3180
3180
3180
1F80
0180
0180
01E0
0300
ENDCHAR
STARTCHAR C026072
ENCODING 11322
SWIDTH 1400 0
DWIDTH 14 0
BBX 13 10 1 -1
BITMAP
7638
6630
6630
6630
6630
6630
6630
6630
E630
3FE0
ENDCHAR
STARTCHAR C026073
ENCODING 11323
SWIDTH 1400 0
DWIDTH 14 0
BBX 13 12 1 -2
BITMAP
FF78
6630
6630
6630
6630
6630
6630
6630
6630
FFF0
0018
0008
ENDCHAR
STARTCHAR C026074
ENCODING 11324
SWIDTH 1400 0
DWIDTH 14 0
BBX 11 10 2 0
BITMAP
7E00
CC00
CC00
0C00
0C00
0FC0
0CE0
0C60
0CE0
3FC0
ENDCHAR
STARTCHAR C026075
ENCODING 11325
SWIDTH 1400 0
DWIDTH 14 0
BBX 13 10 1 0
BITMAP
F078
6030
6030
6030
6030
7E30
6330
6330
6330
FE70
ENDCHAR
STARTCHAR C026076
ENCODING 11326
SWIDTH 1400 0
DWIDTH 14 0
BBX 8 10 4 -1
BITMAP
70
60
60
60
7E
63
63
63
EE
38
ENDCHAR
STARTCHAR C026077
ENCODING 11327
SWIDTH 1400 0
DWIDTH 14 0
BBX 10 11 2 -1
BITMAP
1E00
F300
C180
C0C0
00C0
1FC0
00C0
00C0
0180
C380
7E00
ENDCHAR
STARTCHAR C026100
ENCODING 11328
SWIDTH 1400 0
DWIDTH 14 0
BBX 13 11 1 -1
BITMAP
FBE0
6738
6618
6C08
6C08
7C08
6C08
6C08
6618
FF38
03F0
ENDCHAR
STARTCHAR C026101
ENCODING 11329
SWIDTH 1400 0
DWIDTH 14 0
BBX 10 11 3 -1
BITMAP
3FC0
7300
6300
6300
3300
1F00
3B00
3300
6300
C300
0180
ENDCHAR
STARTCHAR C026102
ENCODING 11330
SWIDTH 1400 0
DWIDTH 14 0
BBX 0 0 0 0
BITMAP
ENDCHAR
STARTCHAR C026103
ENCODING 11331
SWIDTH 1400 0
DWIDTH 14 0
BBX 0 0 0 0
BITMAP
ENDCHAR
STARTCHAR C026104
ENCODING 11332
SWIDTH 1400 0
DWIDTH 14 0
BBX 0 0 0 0
BITMAP
ENDCHAR
STARTCHAR C026105
ENCODING 11333
SWIDTH 1400 0
DWIDTH 14 0
BBX 0 0 0 0
BITMAP
ENDCHAR
STARTCHAR C026106
ENCODING 11334
SWIDTH 1400 0
DWIDTH 14 0
BBX 1 7 14 4
BITMAP
80
00
00
00
00
00
80
ENDCHAR
STARTCHAR C026107
ENCODING 11335
SWIDTH 1400 0
DWIDTH 14 0
BBX 0 0 0 0
BITMAP
ENDCHAR
STARTCHAR C026110
ENCODING 11336
SWIDTH 1400 0
DWIDTH 14 0
BBX 0 0 0 0
BITMAP
ENDCHAR
STARTCHAR C026111
ENCODING 11337
SWIDTH 1400 0
DWIDTH 14 0
BBX 0 0 0 0
BITMAP
ENDCHAR
STARTCHAR C026112
ENCODING 11338
SWIDTH 1400 0
DWIDTH 14 0
BBX 0 0 0 0
BITMAP
ENDCHAR
STARTCHAR C026113
ENCODING 11339
SWIDTH 1400 0
DWIDTH 14 0
BBX 1 4 14 -3
BITMAP
80
00
00
80
ENDCHAR
STARTCHAR C026114
ENCODING 11340
SWIDTH 1400 0
DWIDTH 14 0
BBX 0 0 0 0
BITMAP
ENDCHAR
STARTCHAR C026115
ENCODING 11341
SWIDTH 1400 0
DWIDTH 14 0
BBX 0 0 0 0
BITMAP
ENDCHAR
STARTCHAR C026116
ENCODING 11342
SWIDTH 1400 0
DWIDTH 14 0
BBX 0 0 0 0
BITMAP
ENDCHAR
STARTCHAR C026117
ENCODING 11343
SWIDTH 1400 0
DWIDTH 14 0
BBX 0 0 0 0
BITMAP
ENDCHAR
STARTCHAR C026120
ENCODING 11344
SWIDTH 1400 0
DWIDTH 14 0
BBX 1 12 14 -2
BITMAP
80
80
80
80
00
00
00
00
00
00
00
80
ENDCHAR
STARTCHAR C026121
ENCODING 11345
SWIDTH 1400 0
DWIDTH 14 0
BBX 6 6 4 0
BITMAP
FC
CC
3C
EC
CC
FC
ENDCHAR
STARTCHAR C026122
ENCODING 11346
SWIDTH 1400 0
DWIDTH 14 0
BBX 8 10 4 0
BITMAP
03
3E
60
F8
EC
C6
C6
C6
EE
7C
ENDCHAR
STARTCHAR C026123
ENCODING 11347
SWIDTH 1400 0
DWIDTH 14 0
BBX 7 6 4 0
BITMAP
FC
66
7C
66
66
7E
ENDCHAR
STARTCHAR C026124
ENCODING 11348
SWIDTH 1400 0
DWIDTH 14 0
BBX 6 6 5 0
BITMAP
F8
CC
C0
C0
C0
C0
ENDCHAR
STARTCHAR C026125
ENCODING 11349
SWIDTH 1400 0
DWIDTH 14 0
BBX 8 8 3 -2
BITMAP
7F
36
36
66
C6
7E
03
03
ENDCHAR
STARTCHAR C026126
ENCODING 11350
SWIDTH 1400 0
DWIDTH 14 0
BBX 7 7 4 0
BITMAP
38
EC
FE
C0
C0
E0
7C
ENDCHAR
STARTCHAR C026127
ENCODING 11351
SWIDTH 1400 0
DWIDTH 14 0
BBX 7 8 4 0
BITMAP
6C
38
EC
FE
C0
C0
66
7C
ENDCHAR
STARTCHAR C026130
ENCODING 11352
SWIDTH 1400 0
DWIDTH 14 0
BBX 10 6 2 0
BITMAP
EDC0
6F00
3E00
3F00
6D80
CCC0
ENDCHAR
STARTCHAR C026131
ENCODING 11353
SWIDTH 1400 0
DWIDTH 14 0
BBX 6 7 5 -1
BITMAP
F8
18
70
18
0C
18
F0
ENDCHAR
STARTCHAR C026132
ENCODING 11354
SWIDTH 1400 0
DWIDTH 14 0
BBX 8 7 4 -1
BITMAP
FE
66
7E
76
66
66
03
ENDCHAR
STARTCHAR C026133
ENCODING 11355
SWIDTH 1400 0
DWIDTH 14 0
BBX 8 10 4 -1
BITMAP
6C
6C
38
FE
66
7E
76
66
66
03
ENDCHAR
STARTCHAR C026134
ENCODING 11356
SWIDTH 1400 0
DWIDTH 14 0
BBX 6 6 5 0
BITMAP
DC
F0
F0
F0
D8
CC
ENDCHAR
STARTCHAR C026135
ENCODING 11357
SWIDTH 1400 0
DWIDTH 14 0
BBX 8 7 3 -1
BITMAP
7E
36
36
36
36
3F
E0
ENDCHAR
STARTCHAR C026136
ENCODING 11358
SWIDTH 1400 0
DWIDTH 14 0
BBX 9 6 3 0
BITMAP
C180
E780
F780
FD80
DD80
C180
ENDCHAR
STARTCHAR C026137
ENCODING 11359
SWIDTH 1400 0
DWIDTH 14 0
BBX 8 7 4 -1
BITMAP
F6
66
7E
66
66
66
03
ENDCHAR
STARTCHAR C026140
ENCODING 11360
SWIDTH 1400 0
DWIDTH 14 0
BBX 7 7 4 0
BITMAP
7C
EE
C6
C6
C6
EE
7C
ENDCHAR
STARTCHAR C026141
ENCODING 11361
SWIDTH 1400 0
DWIDTH 14 0
BBX 8 7 3 -1
BITMAP
FE
66
66
66
66
66
03
ENDCHAR
STARTCHAR C026142
ENCODING 11362
SWIDTH 1400 0
DWIDTH 14 0
BBX 8 10 4 -3
BITMAP
6C
7E
63
63
63
63
76
7C
60
F0
ENDCHAR
STARTCHAR C026143
ENCODING 11363
SWIDTH 1400 0
DWIDTH 14 0
BBX 7 8 4 -1
BITMAP
3C
6C
C0
C0
C0
C6
7C
18
ENDCHAR
STARTCHAR C026144
ENCODING 11364
SWIDTH 1400 0
DWIDTH 14 0
BBX 7 6 4 0
BITMAP
FE
36
30
30
30
78
ENDCHAR
STARTCHAR C026145
ENCODING 11365
SWIDTH 1400 0
DWIDTH 14 0
BBX 7 9 4 -2
BITMAP
FE
C6
6C
6C
38
38
30
30
E0
ENDCHAR
STARTCHAR C026146
ENCODING 11366
SWIDTH 1400 0
DWIDTH 14 0
BBX 9 12 3 -2
BITMAP
3800
1800
1800
7E00
DB00
D980
D980
D980
DB00
7E00
3C00
1800
ENDCHAR
STARTCHAR C026147
ENCODING 11367
SWIDTH 1400 0
DWIDTH 14 0
BBX 6 6 4 0
BITMAP
6C
78
30
78
6C
CC
ENDCHAR
STARTCHAR C026150
ENCODING 11368
SWIDTH 1400 0
DWIDTH 14 0
BBX 8 8 4 -2
BITMAP
CC
CC
CC
CC
CC
CC
7E
03
ENDCHAR
STARTCHAR C026151
ENCODING 11369
SWIDTH 1400 0
DWIDTH 14 0
BBX 6 7 5 -1
BITMAP
D8
D8
D8
F8
18
18
0C
ENDCHAR
STARTCHAR C026152
ENCODING 11370
SWIDTH 1400 0
DWIDTH 14 0
BBX 9 7 3 -1
BITMAP
CD80
CD80
CD80
CD80
CD80
CD80
7F00
ENDCHAR
STARTCHAR C026153
ENCODING 11371
SWIDTH 1400 0
DWIDTH 14 0
BBX 12 8 1 -2
BITMAP
FFF0
6660
6660
6660
6660
7FE0
0030
0030
ENDCHAR
STARTCHAR C026154
ENCODING 11372
SWIDTH 1400 0
DWIDTH 14 0
BBX 8 6 4 0
BITMAP
F8
30
3E
33
33
3E
ENDCHAR
STARTCHAR C026155
ENCODING 11373
SWIDTH 1400 0
DWIDTH 14 0
BBX 10 7 3 -1
BITMAP
C180
C180
F980
CD80
CD80
D980
70C0
ENDCHAR
STARTCHAR C026156
ENCODING 11374
SWIDTH 1400 0
DWIDTH 14 0
BBX 6 7 5 -1
BITMAP
C0
C0
F8
CC
CC
D8
70
ENDCHAR
STARTCHAR C026157
ENCODING 11375
SWIDTH 1400 0
DWIDTH 14 0
BBX 7 7 4 0
BITMAP
38
EC
C6
3E
06
0C
78
ENDCHAR
STARTCHAR C026160
ENCODING 11376
SWIDTH 1400 0
DWIDTH 14 0
BBX 10 7 3 -1
BITMAP
CF80
D8C0
D8C0
F8C0
D8C0
CD80
0700
ENDCHAR
STARTCHAR C026161
ENCODING 11377
SWIDTH 1400 0
DWIDTH 14 0
BBX 6 6 4 0
BITMAP
7C
CC
7C
3C
6C
CC
ENDCHAR
STARTCHAR C026162
ENCODING 11378
SWIDTH 1400 0
DWIDTH 14 0
BBX 0 0 0 0
BITMAP
ENDCHAR
STARTCHAR C026163
ENCODING 11379
SWIDTH 1400 0
DWIDTH 14 0
BBX 1 7 14 4
BITMAP
80
00
00
00
00
00
80
ENDCHAR
STARTCHAR C026164
ENCODING 11380
SWIDTH 1400 0
DWIDTH 14 0
BBX 0 0 0 0
BITMAP
ENDCHAR
STARTCHAR C026165
ENCODING 11381
SWIDTH 1400 0
DWIDTH 14 0
BBX 0 0 0 0
BITMAP
ENDCHAR
STARTCHAR C026166
ENCODING 11382
SWIDTH 1400 0
DWIDTH 14 0
BBX 0 0 0 0
BITMAP
ENDCHAR
STARTCHAR C026167
ENCODING 11383
SWIDTH 1400 0
DWIDTH 14 0
BBX 0 0 0 0
BITMAP
ENDCHAR
STARTCHAR C026170
ENCODING 11384
SWIDTH 1400 0
DWIDTH 14 0
BBX 1 4 14 -3
BITMAP
80
00
00
80
ENDCHAR
STARTCHAR C026171
ENCODING 11385
SWIDTH 1400 0
DWIDTH 14 0
BBX 0 0 0 0
BITMAP
ENDCHAR
STARTCHAR C026172
ENCODING 11386
SWIDTH 1400 0
DWIDTH 14 0
BBX 0 0 0 0
BITMAP
ENDCHAR
STARTCHAR C026173
ENCODING 11387
SWIDTH 1400 0
DWIDTH 14 0
BBX 0 0 0 0
BITMAP
ENDCHAR
STARTCHAR C026174
ENCODING 11388
SWIDTH 1400 0
DWIDTH 14 0
BBX 0 0 0 0
BITMAP
ENDCHAR
STARTCHAR C026175
ENCODING 11389
SWIDTH 1400 0
DWIDTH 14 0
BBX 1 12 14 -2
BITMAP
80
80
80
80
00
00
00
00
00
00
00
80
ENDCHAR
STARTCHAR C026176
ENCODING 11390
SWIDTH 1400 0
DWIDTH 14 0
BBX 0 0 0 0
BITMAP
ENDCHAR
STARTCHAR C026177
ENCODING 11391
SWIDTH 1400 0
DWIDTH 14 0
BBX 0 0 0 0
BITMAP
ENDCHAR
STARTCHAR C026440
ENCODING 11552
SWIDTH 1400 0
DWIDTH 14 0
BBX 0 0 0 0
BITMAP
ENDCHAR
STARTCHAR C026441
ENCODING 11553
SWIDTH 1400 0
DWIDTH 14 0
BBX 0 0 0 0
BITMAP
ENDCHAR
STARTCHAR C026442
ENCODING 11554
SWIDTH 1400 0
DWIDTH 14 0
BBX 1 7 14 4
BITMAP
80
00
00
00
00
00
80
ENDCHAR
STARTCHAR C026443
ENCODING 11555
SWIDTH 1400 0
DWIDTH 14 0
BBX 0 0 0 0
BITMAP
ENDCHAR
STARTCHAR C026444
ENCODING 11556
SWIDTH 1400 0
DWIDTH 14 0
BBX 0 0 0 0
BITMAP
ENDCHAR
STARTCHAR C026445
ENCODING 11557
SWIDTH 1400 0
DWIDTH 14 0
BBX 0 0 0 0
BITMAP
ENDCHAR
STARTCHAR C026446
ENCODING 11558
SWIDTH 1400 0
DWIDTH 14 0
BBX 0 0 0 0
BITMAP
ENDCHAR
STARTCHAR C026447
ENCODING 11559
SWIDTH 1400 0
DWIDTH 14 0
BBX 1 4 14 -3
BITMAP
80
00
00
80
ENDCHAR
STARTCHAR C026450
ENCODING 11560
SWIDTH 1400 0
DWIDTH 14 0
BBX 0 0 0 0
BITMAP
ENDCHAR
STARTCHAR C026451
ENCODING 11561
SWIDTH 1400 0
DWIDTH 14 0
BBX 0 0 0 0
BITMAP
ENDCHAR
STARTCHAR C026452
ENCODING 11562
SWIDTH 1400 0
DWIDTH 14 0
BBX 0 0 0 0
BITMAP
ENDCHAR
STARTCHAR C026453
ENCODING 11563
SWIDTH 1400 0
DWIDTH 14 0
BBX 0 0 0 0
BITMAP
ENDCHAR
STARTCHAR C026454
ENCODING 11564
SWIDTH 1400 0
DWIDTH 14 0
BBX 1 12 14 -2
BITMAP
80
80
80
80
00
00
00
00
00
00
00
80
ENDCHAR
STARTCHAR C026455
ENCODING 11565
SWIDTH 1400 0
DWIDTH 14 0
BBX 0 0 0 0
BITMAP
ENDCHAR
STARTCHAR C026456
ENCODING 11566
SWIDTH 1400 0
DWIDTH 14 0
BBX 0 0 0 0
BITMAP
ENDCHAR
STARTCHAR C026457
ENCODING 11567
SWIDTH 1400 0
DWIDTH 14 0
BBX 0 0 0 0
BITMAP
ENDCHAR
STARTCHAR C026460
ENCODING 11568
SWIDTH 1400 0
DWIDTH 14 0
BBX 0 0 0 0
BITMAP
ENDCHAR
STARTCHAR C026461
ENCODING 11569
SWIDTH 1400 0
DWIDTH 14 0
BBX 1 7 14 4
BITMAP
80
00
00
00
00
00
80
ENDCHAR
STARTCHAR C026462
ENCODING 11570
SWIDTH 1400 0
DWIDTH 14 0
BBX 0 0 0 0
BITMAP
ENDCHAR
STARTCHAR C026463
ENCODING 11571
SWIDTH 1400 0
DWIDTH 14 0
BBX 0 0 0 0
BITMAP
ENDCHAR
STARTCHAR C026464
ENCODING 11572
SWIDTH 1400 0
DWIDTH 14 0
BBX 0 0 0 0
BITMAP
ENDCHAR
STARTCHAR C026465
ENCODING 11573
SWIDTH 1400 0
DWIDTH 14 0
BBX 0 0 0 0
BITMAP
ENDCHAR
STARTCHAR C026466
ENCODING 11574
SWIDTH 1400 0
DWIDTH 14 0
BBX 1 4 14 -3
BITMAP
80
00
00
80
ENDCHAR
STARTCHAR C026467
ENCODING 11575
SWIDTH 1400 0
DWIDTH 14 0
BBX 0 0 0 0
BITMAP
ENDCHAR
STARTCHAR C026470
ENCODING 11576
SWIDTH 1400 0
DWIDTH 14 0
BBX 0 0 0 0
BITMAP
ENDCHAR
STARTCHAR C026471
ENCODING 11577
SWIDTH 1400 0
DWIDTH 14 0
BBX 0 0 0 0
BITMAP
ENDCHAR
STARTCHAR C026472
ENCODING 11578
SWIDTH 1400 0
DWIDTH 14 0
BBX 0 0 0 0
BITMAP
ENDCHAR
STARTCHAR C026473
ENCODING 11579
SWIDTH 1400 0
DWIDTH 14 0
BBX 1 12 14 -2
BITMAP
80
80
80
80
00
00
00
00
00
00
00
80
ENDCHAR
STARTCHAR C026474
ENCODING 11580
SWIDTH 1400 0
DWIDTH 14 0
BBX 0 0 0 0
BITMAP
ENDCHAR
STARTCHAR C026475
ENCODING 11581
SWIDTH 1400 0
DWIDTH 14 0
BBX 0 0 0 0
BITMAP
ENDCHAR
STARTCHAR C026476
ENCODING 11582
SWIDTH 1400 0
DWIDTH 14 0
BBX 0 0 0 0
BITMAP
ENDCHAR
STARTCHAR C026477
ENCODING 11583
SWIDTH 1400 0
DWIDTH 14 0
BBX 0 0 0 0
BITMAP
ENDCHAR
STARTCHAR C026500
ENCODING 11584
SWIDTH 1400 0
DWIDTH 14 0
BBX 1 7 14 4
BITMAP
80
00
00
00
00
00
80
ENDCHAR
STARTCHAR C026501
ENCODING 11585
SWIDTH 1400 0
DWIDTH 14 0
BBX 0 0 0 0
BITMAP
ENDCHAR
STARTCHAR C026502
ENCODING 11586
SWIDTH 1400 0
DWIDTH 14 0
BBX 0 0 0 0
BITMAP
ENDCHAR
STARTCHAR C026503
ENCODING 11587
SWIDTH 1400 0
DWIDTH 14 0
BBX 0 0 0 0
BITMAP
ENDCHAR
STARTCHAR C026504
ENCODING 11588
SWIDTH 1400 0
DWIDTH 14 0
BBX 0 0 0 0
BITMAP
ENDCHAR
STARTCHAR C026505
ENCODING 11589
SWIDTH 1400 0
DWIDTH 14 0
BBX 1 4 14 -3
BITMAP
80
00
00
80
ENDCHAR
STARTCHAR C026506
ENCODING 11590
SWIDTH 1400 0
DWIDTH 14 0
BBX 0 0 0 0
BITMAP
ENDCHAR
STARTCHAR C026507
ENCODING 11591
SWIDTH 1400 0
DWIDTH 14 0
BBX 0 0 0 0
BITMAP
ENDCHAR
STARTCHAR C026510
ENCODING 11592
SWIDTH 1400 0
DWIDTH 14 0
BBX 0 0 0 0
BITMAP
ENDCHAR
STARTCHAR C026511
ENCODING 11593
SWIDTH 1400 0
DWIDTH 14 0
BBX 0 0 0 0
BITMAP
ENDCHAR
STARTCHAR C026512
ENCODING 11594
SWIDTH 1400 0
DWIDTH 14 0
BBX 1 12 14 -2
BITMAP
80
80
80
80
00
00
00
00
00
00
00
80
ENDCHAR
STARTCHAR C026513
ENCODING 11595
SWIDTH 1400 0
DWIDTH 14 0
BBX 0 0 0 0
BITMAP
ENDCHAR
STARTCHAR C026514
ENCODING 11596
SWIDTH 1400 0
DWIDTH 14 0
BBX 0 0 0 0
BITMAP
ENDCHAR
STARTCHAR C026515
ENCODING 11597
SWIDTH 1400 0
DWIDTH 14 0
BBX 0 0 0 0
BITMAP
ENDCHAR
STARTCHAR C026516
ENCODING 11598
SWIDTH 1400 0
DWIDTH 14 0
BBX 0 0 0 0
BITMAP
ENDCHAR
STARTCHAR C026517
ENCODING 11599
SWIDTH 1400 0
DWIDTH 14 0
BBX 1 7 14 4
BITMAP
80
00
00
00
00
00
80
ENDCHAR
STARTCHAR C026520
ENCODING 11600
SWIDTH 1400 0
DWIDTH 14 0
BBX 0 0 0 0
BITMAP
ENDCHAR
STARTCHAR C026521
ENCODING 11601
SWIDTH 1400 0
DWIDTH 14 0
BBX 0 0 0 0
BITMAP
ENDCHAR
STARTCHAR C026522
ENCODING 11602
SWIDTH 1400 0
DWIDTH 14 0
BBX 0 0 0 0
BITMAP
ENDCHAR
STARTCHAR C026523
ENCODING 11603
SWIDTH 1400 0
DWIDTH 14 0
BBX 0 0 0 0
BITMAP
ENDCHAR
STARTCHAR C026524
ENCODING 11604
SWIDTH 1400 0
DWIDTH 14 0
BBX 1 4 14 -3
BITMAP
80
00
00
80
ENDCHAR
STARTCHAR C026525
ENCODING 11605
SWIDTH 1400 0
DWIDTH 14 0
BBX 0 0 0 0
BITMAP
ENDCHAR
STARTCHAR C026526
ENCODING 11606
SWIDTH 1400 0
DWIDTH 14 0
BBX 0 0 0 0
BITMAP
ENDCHAR
STARTCHAR C026527
ENCODING 11607
SWIDTH 1400 0
DWIDTH 14 0
BBX 0 0 0 0
BITMAP
ENDCHAR
STARTCHAR C026530
ENCODING 11608
SWIDTH 1400 0
DWIDTH 14 0
BBX 0 0 0 0
BITMAP
ENDCHAR
STARTCHAR C026531
ENCODING 11609
SWIDTH 1400 0
DWIDTH 14 0
BBX 1 12 14 -2
BITMAP
80
80
80
80
00
00
00
00
00
00
00
80
ENDCHAR
STARTCHAR C026532
ENCODING 11610
SWIDTH 1400 0
DWIDTH 14 0
BBX 0 0 0 0
BITMAP
ENDCHAR
STARTCHAR C026533
ENCODING 11611
SWIDTH 1400 0
DWIDTH 14 0
BBX 0 0 0 0
BITMAP
ENDCHAR
STARTCHAR C026534
ENCODING 11612
SWIDTH 1400 0
DWIDTH 14 0
BBX 0 0 0 0
BITMAP
ENDCHAR
STARTCHAR C026535
ENCODING 11613
SWIDTH 1400 0
DWIDTH 14 0
BBX 0 0 0 0
BITMAP
ENDCHAR
STARTCHAR C026536
ENCODING 11614
SWIDTH 1400 0
DWIDTH 14 0
BBX 1 7 14 4
BITMAP
80
00
00
00
00
00
80
ENDCHAR
STARTCHAR C026537
ENCODING 11615
SWIDTH 1400 0
DWIDTH 14 0
BBX 0 0 0 0
BITMAP
ENDCHAR
STARTCHAR C026540
ENCODING 11616
SWIDTH 1400 0
DWIDTH 14 0
BBX 0 0 0 0
BITMAP
ENDCHAR
STARTCHAR C026541
ENCODING 11617
SWIDTH 1400 0
DWIDTH 14 0
BBX 0 0 0 0
BITMAP
ENDCHAR
STARTCHAR C026542
ENCODING 11618
SWIDTH 1400 0
DWIDTH 14 0
BBX 0 0 0 0
BITMAP
ENDCHAR
STARTCHAR C026543
ENCODING 11619
SWIDTH 1400 0
DWIDTH 14 0
BBX 1 4 14 -3
BITMAP
80
00
00
80
ENDCHAR
STARTCHAR C026544
ENCODING 11620
SWIDTH 1400 0
DWIDTH 14 0
BBX 0 0 0 0
BITMAP
ENDCHAR
STARTCHAR C026545
ENCODING 11621
SWIDTH 1400 0
DWIDTH 14 0
BBX 0 0 0 0
BITMAP
ENDCHAR
STARTCHAR C026546
ENCODING 11622
SWIDTH 1400 0
DWIDTH 14 0
BBX 0 0 0 0
BITMAP
ENDCHAR
STARTCHAR C026547
ENCODING 11623
SWIDTH 1400 0
DWIDTH 14 0
BBX 0 0 0 0
BITMAP
ENDCHAR
STARTCHAR C026550
ENCODING 11624
SWIDTH 1400 0
DWIDTH 14 0
BBX 1 12 14 -2
BITMAP
80
80
80
80
00
00
00
00
00
00
00
80
ENDCHAR
STARTCHAR C026551
ENCODING 11625
SWIDTH 1400 0
DWIDTH 14 0
BBX 0 0 0 0
BITMAP
ENDCHAR
STARTCHAR C026552
ENCODING 11626
SWIDTH 1400 0
DWIDTH 14 0
BBX 0 0 0 0
BITMAP
ENDCHAR
STARTCHAR C026553
ENCODING 11627
SWIDTH 1400 0
DWIDTH 14 0
BBX 0 0 0 0
BITMAP
ENDCHAR
STARTCHAR C026554
ENCODING 11628
SWIDTH 1400 0
DWIDTH 14 0
BBX 0 0 0 0
BITMAP
ENDCHAR
STARTCHAR C026555
ENCODING 11629
SWIDTH 1400 0
DWIDTH 14 0
BBX 1 7 14 4
BITMAP
80
00
00
00
00
00
80
ENDCHAR
STARTCHAR C026556
ENCODING 11630
SWIDTH 1400 0
DWIDTH 14 0
BBX 0 0 0 0
BITMAP
ENDCHAR
STARTCHAR C026557
ENCODING 11631
SWIDTH 1400 0
DWIDTH 14 0
BBX 0 0 0 0
BITMAP
ENDCHAR
STARTCHAR C026560
ENCODING 11632
SWIDTH 1400 0
DWIDTH 14 0
BBX 0 0 0 0
BITMAP
ENDCHAR
STARTCHAR C026561
ENCODING 11633
SWIDTH 1400 0
DWIDTH 14 0
BBX 0 0 0 0
BITMAP
ENDCHAR
STARTCHAR C026562
ENCODING 11634
SWIDTH 1400 0
DWIDTH 14 0
BBX 1 4 14 -3
BITMAP
80
00
00
80
ENDCHAR
STARTCHAR C026563
ENCODING 11635
SWIDTH 1400 0
DWIDTH 14 0
BBX 0 0 0 0
BITMAP
ENDCHAR
STARTCHAR C026564
ENCODING 11636
SWIDTH 1400 0
DWIDTH 14 0
BBX 0 0 0 0
BITMAP
ENDCHAR
STARTCHAR C026565
ENCODING 11637
SWIDTH 1400 0
DWIDTH 14 0
BBX 0 0 0 0
BITMAP
ENDCHAR
STARTCHAR C026566
ENCODING 11638
SWIDTH 1400 0
DWIDTH 14 0
BBX 0 0 0 0
BITMAP
ENDCHAR
STARTCHAR C026567
ENCODING 11639
SWIDTH 1400 0
DWIDTH 14 0
BBX 1 12 14 -2
BITMAP
80
80
80
80
00
00
00
00
00
00
00
80
ENDCHAR
STARTCHAR C026570
ENCODING 11640
SWIDTH 1400 0
DWIDTH 14 0
BBX 0 0 0 0
BITMAP
ENDCHAR
STARTCHAR C026571
ENCODING 11641
SWIDTH 1400 0
DWIDTH 14 0
BBX 0 0 0 0
BITMAP
ENDCHAR
STARTCHAR C026572
ENCODING 11642
SWIDTH 1400 0
DWIDTH 14 0
BBX 0 0 0 0
BITMAP
ENDCHAR
STARTCHAR C026573
ENCODING 11643
SWIDTH 1400 0
DWIDTH 14 0
BBX 0 0 0 0
BITMAP
ENDCHAR
STARTCHAR C026574
ENCODING 11644
SWIDTH 1400 0
DWIDTH 14 0
BBX 1 7 14 4
BITMAP
80
00
00
00
00
00
80
ENDCHAR
STARTCHAR C026575
ENCODING 11645
SWIDTH 1400 0
DWIDTH 14 0
BBX 0 0 0 0
BITMAP
ENDCHAR
STARTCHAR C026576
ENCODING 11646
SWIDTH 1400 0
DWIDTH 14 0
BBX 0 0 0 0
BITMAP
ENDCHAR
STARTCHAR C026577
ENCODING 11647
SWIDTH 1400 0
DWIDTH 14 0
BBX 0 0 0 0
BITMAP
ENDCHAR
STARTCHAR C027040
ENCODING 11808
SWIDTH 1400 0
DWIDTH 14 0
BBX 0 0 0 0
BITMAP
ENDCHAR
STARTCHAR C027041
ENCODING 11809
SWIDTH 1400 0
DWIDTH 14 0
BBX 1 4 14 -3
BITMAP
80
00
00
80
ENDCHAR
STARTCHAR C027042
ENCODING 11810
SWIDTH 1400 0
DWIDTH 14 0
BBX 0 0 0 0
BITMAP
ENDCHAR
STARTCHAR C027043
ENCODING 11811
SWIDTH 1400 0
DWIDTH 14 0
BBX 0 0 0 0
BITMAP
ENDCHAR
STARTCHAR C027044
ENCODING 11812
SWIDTH 1400 0
DWIDTH 14 0
BBX 0 0 0 0
BITMAP
ENDCHAR
STARTCHAR C027045
ENCODING 11813
SWIDTH 1400 0
DWIDTH 14 0
BBX 0 0 0 0
BITMAP
ENDCHAR
STARTCHAR C027046
ENCODING 11814
SWIDTH 1400 0
DWIDTH 14 0
BBX 1 12 14 -2
BITMAP
80
80
80
80
00
00
00
00
00
00
00
80
ENDCHAR
STARTCHAR C027047
ENCODING 11815
SWIDTH 1400 0
DWIDTH 14 0
BBX 0 0 0 0
BITMAP
ENDCHAR
STARTCHAR C027050
ENCODING 11816
SWIDTH 1400 0
DWIDTH 14 0
BBX 0 0 0 0
BITMAP
ENDCHAR
STARTCHAR C027051
ENCODING 11817
SWIDTH 1400 0
DWIDTH 14 0
BBX 0 0 0 0
BITMAP
ENDCHAR
STARTCHAR C027052
ENCODING 11818
SWIDTH 1400 0
DWIDTH 14 0
BBX 0 0 0 0
BITMAP
ENDCHAR
STARTCHAR C027053
ENCODING 11819
SWIDTH 1400 0
DWIDTH 14 0
BBX 1 7 14 4
BITMAP
80
00
00
00
00
00
80
ENDCHAR
STARTCHAR C027054
ENCODING 11820
SWIDTH 1400 0
DWIDTH 14 0
BBX 0 0 0 0
BITMAP
ENDCHAR
STARTCHAR C027055
ENCODING 11821
SWIDTH 1400 0
DWIDTH 14 0
BBX 0 0 0 0
BITMAP
ENDCHAR
STARTCHAR C027056
ENCODING 11822
SWIDTH 1400 0
DWIDTH 14 0
BBX 0 0 0 0
BITMAP
ENDCHAR
STARTCHAR C027057
ENCODING 11823
SWIDTH 1400 0
DWIDTH 14 0
BBX 0 0 0 0
BITMAP
ENDCHAR
STARTCHAR C027060
ENCODING 11824
SWIDTH 1400 0
DWIDTH 14 0
BBX 1 4 14 -3
BITMAP
80
00
00
80
ENDCHAR
STARTCHAR C027061
ENCODING 11825
SWIDTH 1400 0
DWIDTH 14 0
BBX 0 0 0 0
BITMAP
ENDCHAR
STARTCHAR C027062
ENCODING 11826
SWIDTH 1400 0
DWIDTH 14 0
BBX 0 0 0 0
BITMAP
ENDCHAR
STARTCHAR C027063
ENCODING 11827
SWIDTH 1400 0
DWIDTH 14 0
BBX 0 0 0 0
BITMAP
ENDCHAR
STARTCHAR C027064
ENCODING 11828
SWIDTH 1400 0
DWIDTH 14 0
BBX 0 0 0 0
BITMAP
ENDCHAR
STARTCHAR C027065
ENCODING 11829
SWIDTH 1400 0
DWIDTH 14 0
BBX 1 12 14 -2
BITMAP
80
80
80
80
00
00
00
00
00
00
00
80
ENDCHAR
STARTCHAR C027066
ENCODING 11830
SWIDTH 1400 0
DWIDTH 14 0
BBX 0 0 0 0
BITMAP
ENDCHAR
STARTCHAR C027067
ENCODING 11831
SWIDTH 1400 0
DWIDTH 14 0
BBX 0 0 0 0
BITMAP
ENDCHAR
STARTCHAR C027070
ENCODING 11832
SWIDTH 1400 0
DWIDTH 14 0
BBX 0 0 0 0
BITMAP
ENDCHAR
STARTCHAR C027071
ENCODING 11833
SWIDTH 1400 0
DWIDTH 14 0
BBX 0 0 0 0
BITMAP
ENDCHAR
STARTCHAR C027072
ENCODING 11834
SWIDTH 1400 0
DWIDTH 14 0
BBX 1 7 14 4
BITMAP
80
00
00
00
00
00
80
ENDCHAR
STARTCHAR C027073
ENCODING 11835
SWIDTH 1400 0
DWIDTH 14 0
BBX 0 0 0 0
BITMAP
ENDCHAR
STARTCHAR C027074
ENCODING 11836
SWIDTH 1400 0
DWIDTH 14 0
BBX 0 0 0 0
BITMAP
ENDCHAR
STARTCHAR C027075
ENCODING 11837
SWIDTH 1400 0
DWIDTH 14 0
BBX 0 0 0 0
BITMAP
ENDCHAR
STARTCHAR C027076
ENCODING 11838
SWIDTH 1400 0
DWIDTH 14 0
BBX 0 0 0 0
BITMAP
ENDCHAR
STARTCHAR C027077
ENCODING 11839
SWIDTH 1400 0
DWIDTH 14 0
BBX 1 4 14 -3
BITMAP
80
00
00
80
ENDCHAR
STARTCHAR C027100
ENCODING 11840
SWIDTH 1400 0
DWIDTH 14 0
BBX 0 0 0 0
BITMAP
ENDCHAR
STARTCHAR C027101
ENCODING 11841
SWIDTH 1400 0
DWIDTH 14 0
BBX 0 0 0 0
BITMAP
ENDCHAR
STARTCHAR C027102
ENCODING 11842
SWIDTH 1400 0
DWIDTH 14 0
BBX 0 0 0 0
BITMAP
ENDCHAR
STARTCHAR C027103
ENCODING 11843
SWIDTH 1400 0
DWIDTH 14 0
BBX 0 0 0 0
BITMAP
ENDCHAR
STARTCHAR C027104
ENCODING 11844
SWIDTH 1400 0
DWIDTH 14 0
BBX 1 12 14 -2
BITMAP
80
80
80
80
00
00
00
00
00
00
00
80
ENDCHAR
STARTCHAR C027105
ENCODING 11845
SWIDTH 1400 0
DWIDTH 14 0
BBX 0 0 0 0
BITMAP
ENDCHAR
STARTCHAR C027106
ENCODING 11846
SWIDTH 1400 0
DWIDTH 14 0
BBX 0 0 0 0
BITMAP
ENDCHAR
STARTCHAR C027107
ENCODING 11847
SWIDTH 1400 0
DWIDTH 14 0
BBX 0 0 0 0
BITMAP
ENDCHAR
STARTCHAR C027110
ENCODING 11848
SWIDTH 1400 0
DWIDTH 14 0
BBX 0 0 0 0
BITMAP
ENDCHAR
STARTCHAR C027111
ENCODING 11849
SWIDTH 1400 0
DWIDTH 14 0
BBX 1 7 14 4
BITMAP
80
00
00
00
00
00
80
ENDCHAR
STARTCHAR C027112
ENCODING 11850
SWIDTH 1400 0
DWIDTH 14 0
BBX 0 0 0 0
BITMAP
ENDCHAR
STARTCHAR C027113
ENCODING 11851
SWIDTH 1400 0
DWIDTH 14 0
BBX 0 0 0 0
BITMAP
ENDCHAR
STARTCHAR C027114
ENCODING 11852
SWIDTH 1400 0
DWIDTH 14 0
BBX 0 0 0 0
BITMAP
ENDCHAR
STARTCHAR C027115
ENCODING 11853
SWIDTH 1400 0
DWIDTH 14 0
BBX 0 0 0 0
BITMAP
ENDCHAR
STARTCHAR C027116
ENCODING 11854
SWIDTH 1400 0
DWIDTH 14 0
BBX 1 4 14 -3
BITMAP
80
00
00
80
ENDCHAR
STARTCHAR C027117
ENCODING 11855
SWIDTH 1400 0
DWIDTH 14 0
BBX 0 0 0 0
BITMAP
ENDCHAR
STARTCHAR C027120
ENCODING 11856
SWIDTH 1400 0
DWIDTH 14 0
BBX 0 0 0 0
BITMAP
ENDCHAR
STARTCHAR C027121
ENCODING 11857
SWIDTH 1400 0
DWIDTH 14 0
BBX 0 0 0 0
BITMAP
ENDCHAR
STARTCHAR C027122
ENCODING 11858
SWIDTH 1400 0
DWIDTH 14 0
BBX 0 0 0 0
BITMAP
ENDCHAR
STARTCHAR C027123
ENCODING 11859
SWIDTH 1400 0
DWIDTH 14 0
BBX 1 12 14 -2
BITMAP
80
80
80
80
00
00
00
00
00
00
00
80
ENDCHAR
STARTCHAR C027124
ENCODING 11860
SWIDTH 1400 0
DWIDTH 14 0
BBX 0 0 0 0
BITMAP
ENDCHAR
STARTCHAR C027125
ENCODING 11861
SWIDTH 1400 0
DWIDTH 14 0
BBX 0 0 0 0
BITMAP
ENDCHAR
STARTCHAR C027126
ENCODING 11862
SWIDTH 1400 0
DWIDTH 14 0
BBX 0 0 0 0
BITMAP
ENDCHAR
STARTCHAR C027127
ENCODING 11863
SWIDTH 1400 0
DWIDTH 14 0
BBX 0 0 0 0
BITMAP
ENDCHAR
STARTCHAR C027130
ENCODING 11864
SWIDTH 1400 0
DWIDTH 14 0
BBX 1 7 14 4
BITMAP
80
00
00
00
00
00
80
ENDCHAR
STARTCHAR C027131
ENCODING 11865
SWIDTH 1400 0
DWIDTH 14 0
BBX 0 0 0 0
BITMAP
ENDCHAR
STARTCHAR C027132
ENCODING 11866
SWIDTH 1400 0
DWIDTH 14 0
BBX 0 0 0 0
BITMAP
ENDCHAR
STARTCHAR C027133
ENCODING 11867
SWIDTH 1400 0
DWIDTH 14 0
BBX 0 0 0 0
BITMAP
ENDCHAR
STARTCHAR C027134
ENCODING 11868
SWIDTH 1400 0
DWIDTH 14 0
BBX 0 0 0 0
BITMAP
ENDCHAR
STARTCHAR C027135
ENCODING 11869
SWIDTH 1400 0
DWIDTH 14 0
BBX 1 4 14 -3
BITMAP
80
00
00
80
ENDCHAR
STARTCHAR C027136
ENCODING 11870
SWIDTH 1400 0
DWIDTH 14 0
BBX 0 0 0 0
BITMAP
ENDCHAR
STARTCHAR C027137
ENCODING 11871
SWIDTH 1400 0
DWIDTH 14 0
BBX 0 0 0 0
BITMAP
ENDCHAR
STARTCHAR C027140
ENCODING 11872
SWIDTH 1400 0
DWIDTH 14 0
BBX 0 0 0 0
BITMAP
ENDCHAR
STARTCHAR C027141
ENCODING 11873
SWIDTH 1400 0
DWIDTH 14 0
BBX 0 0 0 0
BITMAP
ENDCHAR
STARTCHAR C027142
ENCODING 11874
SWIDTH 1400 0
DWIDTH 14 0
BBX 1 12 14 -2
BITMAP
80
80
80
80
00
00
00
00
00
00
00
80
ENDCHAR
STARTCHAR C027143
ENCODING 11875
SWIDTH 1400 0
DWIDTH 14 0
BBX 0 0 0 0
BITMAP
ENDCHAR
STARTCHAR C027144
ENCODING 11876
SWIDTH 1400 0
DWIDTH 14 0
BBX 0 0 0 0
BITMAP
ENDCHAR
STARTCHAR C027145
ENCODING 11877
SWIDTH 1400 0
DWIDTH 14 0
BBX 0 0 0 0
BITMAP
ENDCHAR
STARTCHAR C027146
ENCODING 11878
SWIDTH 1400 0
DWIDTH 14 0
BBX 0 0 0 0
BITMAP
ENDCHAR
STARTCHAR C027147
ENCODING 11879
SWIDTH 1400 0
DWIDTH 14 0
BBX 1 7 14 4
BITMAP
80
00
00
00
00
00
80
ENDCHAR
STARTCHAR C027150
ENCODING 11880
SWIDTH 1400 0
DWIDTH 14 0
BBX 0 0 0 0
BITMAP
ENDCHAR
STARTCHAR C027151
ENCODING 11881
SWIDTH 1400 0
DWIDTH 14 0
BBX 0 0 0 0
BITMAP
ENDCHAR
STARTCHAR C027152
ENCODING 11882
SWIDTH 1400 0
DWIDTH 14 0
BBX 0 0 0 0
BITMAP
ENDCHAR
STARTCHAR C027153
ENCODING 11883
SWIDTH 1400 0
DWIDTH 14 0
BBX 0 0 0 0
BITMAP
ENDCHAR
STARTCHAR C027154
ENCODING 11884
SWIDTH 1400 0
DWIDTH 14 0
BBX 1 4 14 -3
BITMAP
80
00
00
80
ENDCHAR
STARTCHAR C027155
ENCODING 11885
SWIDTH 1400 0
DWIDTH 14 0
BBX 0 0 0 0
BITMAP
ENDCHAR
STARTCHAR C027156
ENCODING 11886
SWIDTH 1400 0
DWIDTH 14 0
BBX 0 0 0 0
BITMAP
ENDCHAR
STARTCHAR C027157
ENCODING 11887
SWIDTH 1400 0
DWIDTH 14 0
BBX 0 0 0 0
BITMAP
ENDCHAR
STARTCHAR C027160
ENCODING 11888
SWIDTH 1400 0
DWIDTH 14 0
BBX 0 0 0 0
BITMAP
ENDCHAR
STARTCHAR C027161
ENCODING 11889
SWIDTH 1400 0
DWIDTH 14 0
BBX 1 12 14 -2
BITMAP
80
80
80
80
00
00
00
00
00
00
00
80
ENDCHAR
STARTCHAR C027162
ENCODING 11890
SWIDTH 1400 0
DWIDTH 14 0
BBX 0 0 0 0
BITMAP
ENDCHAR
STARTCHAR C027163
ENCODING 11891
SWIDTH 1400 0
DWIDTH 14 0
BBX 0 0 0 0
BITMAP
ENDCHAR
STARTCHAR C027164
ENCODING 11892
SWIDTH 1400 0
DWIDTH 14 0
BBX 0 0 0 0
BITMAP
ENDCHAR
STARTCHAR C027165
ENCODING 11893
SWIDTH 1400 0
DWIDTH 14 0
BBX 0 0 0 0
BITMAP
ENDCHAR
STARTCHAR C027166
ENCODING 11894
SWIDTH 1400 0
DWIDTH 14 0
BBX 1 7 14 4
BITMAP
80
00
00
00
00
00
80
ENDCHAR
STARTCHAR C027167
ENCODING 11895
SWIDTH 1400 0
DWIDTH 14 0
BBX 0 0 0 0
BITMAP
ENDCHAR
STARTCHAR C027170
ENCODING 11896
SWIDTH 1400 0
DWIDTH 14 0
BBX 0 0 0 0
BITMAP
ENDCHAR
STARTCHAR C027171
ENCODING 11897
SWIDTH 1400 0
DWIDTH 14 0
BBX 0 0 0 0
BITMAP
ENDCHAR
STARTCHAR C027172
ENCODING 11898
SWIDTH 1400 0
DWIDTH 14 0
BBX 0 0 0 0
BITMAP
ENDCHAR
STARTCHAR C027173
ENCODING 11899
SWIDTH 1400 0
DWIDTH 14 0
BBX 1 4 14 -3
BITMAP
80
00
00
80
ENDCHAR
STARTCHAR C027174
ENCODING 11900
SWIDTH 1400 0
DWIDTH 14 0
BBX 0 0 0 0
BITMAP
ENDCHAR
STARTCHAR C027175
ENCODING 11901
SWIDTH 1400 0
DWIDTH 14 0
BBX 0 0 0 0
BITMAP
ENDCHAR
STARTCHAR C027176
ENCODING 11902
SWIDTH 1400 0
DWIDTH 14 0
BBX 0 0 0 0
BITMAP
ENDCHAR
STARTCHAR C027177
ENCODING 11903
SWIDTH 1400 0
DWIDTH 14 0
BBX 0 0 0 0
BITMAP
ENDCHAR
STARTCHAR C027440
ENCODING 12064
SWIDTH 1400 0
DWIDTH 14 0
BBX 1 12 14 -2
BITMAP
80
80
80
80
00
00
00
00
00
00
00
80
ENDCHAR
STARTCHAR C027441
ENCODING 12065
SWIDTH 1400 0
DWIDTH 14 0
BBX 0 0 0 0
BITMAP
ENDCHAR
STARTCHAR C027442
ENCODING 12066
SWIDTH 1400 0
DWIDTH 14 0
BBX 0 0 0 0
BITMAP
ENDCHAR
STARTCHAR C027443
ENCODING 12067
SWIDTH 1400 0
DWIDTH 14 0
BBX 0 0 0 0
BITMAP
ENDCHAR
STARTCHAR C027444
ENCODING 12068
SWIDTH 1400 0
DWIDTH 14 0
BBX 0 0 0 0
BITMAP
ENDCHAR
STARTCHAR C027445
ENCODING 12069
SWIDTH 1400 0
DWIDTH 14 0
BBX 1 7 14 4
BITMAP
80
00
00
00
00
00
80
ENDCHAR
STARTCHAR C027446
ENCODING 12070
SWIDTH 1400 0
DWIDTH 14 0
BBX 0 0 0 0
BITMAP
ENDCHAR
STARTCHAR C027447
ENCODING 12071
SWIDTH 1400 0
DWIDTH 14 0
BBX 0 0 0 0
BITMAP
ENDCHAR
STARTCHAR C027450
ENCODING 12072
SWIDTH 1400 0
DWIDTH 14 0
BBX 0 0 0 0
BITMAP
ENDCHAR
STARTCHAR C027451
ENCODING 12073
SWIDTH 1400 0
DWIDTH 14 0
BBX 0 0 0 0
BITMAP
ENDCHAR
STARTCHAR C027452
ENCODING 12074
SWIDTH 1400 0
DWIDTH 14 0
BBX 1 4 14 -3
BITMAP
80
00
00
80
ENDCHAR
STARTCHAR C027453
ENCODING 12075
SWIDTH 1400 0
DWIDTH 14 0
BBX 0 0 0 0
BITMAP
ENDCHAR
STARTCHAR C027454
ENCODING 12076
SWIDTH 1400 0
DWIDTH 14 0
BBX 0 0 0 0
BITMAP
ENDCHAR
STARTCHAR C027455
ENCODING 12077
SWIDTH 1400 0
DWIDTH 14 0
BBX 0 0 0 0
BITMAP
ENDCHAR
STARTCHAR C027456
ENCODING 12078
SWIDTH 1400 0
DWIDTH 14 0
BBX 0 0 0 0
BITMAP
ENDCHAR
STARTCHAR C027457
ENCODING 12079
SWIDTH 1400 0
DWIDTH 14 0
BBX 1 12 14 -2
BITMAP
80
80
80
80
00
00
00
00
00
00
00
80
ENDCHAR
STARTCHAR C027460
ENCODING 12080
SWIDTH 1400 0
DWIDTH 14 0
BBX 0 0 0 0
BITMAP
ENDCHAR
STARTCHAR C027461
ENCODING 12081
SWIDTH 1400 0
DWIDTH 14 0
BBX 0 0 0 0
BITMAP
ENDCHAR
STARTCHAR C027462
ENCODING 12082
SWIDTH 1400 0
DWIDTH 14 0
BBX 0 0 0 0
BITMAP
ENDCHAR
STARTCHAR C027463
ENCODING 12083
SWIDTH 1400 0
DWIDTH 14 0
BBX 0 0 0 0
BITMAP
ENDCHAR
STARTCHAR C027464
ENCODING 12084
SWIDTH 1400 0
DWIDTH 14 0
BBX 1 7 14 4
BITMAP
80
00
00
00
00
00
80
ENDCHAR
STARTCHAR C027465
ENCODING 12085
SWIDTH 1400 0
DWIDTH 14 0
BBX 0 0 0 0
BITMAP
ENDCHAR
STARTCHAR C027466
ENCODING 12086
SWIDTH 1400 0
DWIDTH 14 0
BBX 0 0 0 0
BITMAP
ENDCHAR
STARTCHAR C027467
ENCODING 12087
SWIDTH 1400 0
DWIDTH 14 0
BBX 0 0 0 0
BITMAP
ENDCHAR
STARTCHAR C027470
ENCODING 12088
SWIDTH 1400 0
DWIDTH 14 0
BBX 0 0 0 0
BITMAP
ENDCHAR
STARTCHAR C027471
ENCODING 12089
SWIDTH 1400 0
DWIDTH 14 0
BBX 1 4 14 -3
BITMAP
80
00
00
80
ENDCHAR
STARTCHAR C027472
ENCODING 12090
SWIDTH 1400 0
DWIDTH 14 0
BBX 0 0 0 0
BITMAP
ENDCHAR
STARTCHAR C027473
ENCODING 12091
SWIDTH 1400 0
DWIDTH 14 0
BBX 0 0 0 0
BITMAP
ENDCHAR
STARTCHAR C027474
ENCODING 12092
SWIDTH 1400 0
DWIDTH 14 0
BBX 0 0 0 0
BITMAP
ENDCHAR
STARTCHAR C027475
ENCODING 12093
SWIDTH 1400 0
DWIDTH 14 0
BBX 0 0 0 0
BITMAP
ENDCHAR
STARTCHAR C027476
ENCODING 12094
SWIDTH 1400 0
DWIDTH 14 0
BBX 1 12 14 -2
BITMAP
80
80
80
80
00
00
00
00
00
00
00
80
ENDCHAR
STARTCHAR C027477
ENCODING 12095
SWIDTH 1400 0
DWIDTH 14 0
BBX 0 0 0 0
BITMAP
ENDCHAR
STARTCHAR C027500
ENCODING 12096
SWIDTH 1400 0
DWIDTH 14 0
BBX 0 0 0 0
BITMAP
ENDCHAR
STARTCHAR C027501
ENCODING 12097
SWIDTH 1400 0
DWIDTH 14 0
BBX 0 0 0 0
BITMAP
ENDCHAR
STARTCHAR C027502
ENCODING 12098
SWIDTH 1400 0
DWIDTH 14 0
BBX 0 0 0 0
BITMAP
ENDCHAR
STARTCHAR C027503
ENCODING 12099
SWIDTH 1400 0
DWIDTH 14 0
BBX 1 7 14 4
BITMAP
80
00
00
00
00
00
80
ENDCHAR
STARTCHAR C027504
ENCODING 12100
SWIDTH 1400 0
DWIDTH 14 0
BBX 0 0 0 0
BITMAP
ENDCHAR
STARTCHAR C027505
ENCODING 12101
SWIDTH 1400 0
DWIDTH 14 0
BBX 0 0 0 0
BITMAP
ENDCHAR
STARTCHAR C027506
ENCODING 12102
SWIDTH 1400 0
DWIDTH 14 0
BBX 0 0 0 0
BITMAP
ENDCHAR
STARTCHAR C027507
ENCODING 12103
SWIDTH 1400 0
DWIDTH 14 0
BBX 0 0 0 0
BITMAP
ENDCHAR
STARTCHAR C027510
ENCODING 12104
SWIDTH 1400 0
DWIDTH 14 0
BBX 1 4 14 -3
BITMAP
80
00
00
80
ENDCHAR
STARTCHAR C027511
ENCODING 12105
SWIDTH 1400 0
DWIDTH 14 0
BBX 0 0 0 0
BITMAP
ENDCHAR
STARTCHAR C027512
ENCODING 12106
SWIDTH 1400 0
DWIDTH 14 0
BBX 0 0 0 0
BITMAP
ENDCHAR
STARTCHAR C027513
ENCODING 12107
SWIDTH 1400 0
DWIDTH 14 0
BBX 0 0 0 0
BITMAP
ENDCHAR
STARTCHAR C027514
ENCODING 12108
SWIDTH 1400 0
DWIDTH 14 0
BBX 0 0 0 0
BITMAP
ENDCHAR
STARTCHAR C027515
ENCODING 12109
SWIDTH 1400 0
DWIDTH 14 0
BBX 1 12 14 -2
BITMAP
80
80
80
80
00
00
00
00
00
00
00
80
ENDCHAR
STARTCHAR C027516
ENCODING 12110
SWIDTH 1400 0
DWIDTH 14 0
BBX 0 0 0 0
BITMAP
ENDCHAR
STARTCHAR C027517
ENCODING 12111
SWIDTH 1400 0
DWIDTH 14 0
BBX 0 0 0 0
BITMAP
ENDCHAR
STARTCHAR C027520
ENCODING 12112
SWIDTH 1400 0
DWIDTH 14 0
BBX 0 0 0 0
BITMAP
ENDCHAR
STARTCHAR C027521
ENCODING 12113
SWIDTH 1400 0
DWIDTH 14 0
BBX 0 0 0 0
BITMAP
ENDCHAR
STARTCHAR C027522
ENCODING 12114
SWIDTH 1400 0
DWIDTH 14 0
BBX 1 7 14 4
BITMAP
80
00
00
00
00
00
80
ENDCHAR
STARTCHAR C027523
ENCODING 12115
SWIDTH 1400 0
DWIDTH 14 0
BBX 0 0 0 0
BITMAP
ENDCHAR
STARTCHAR C027524
ENCODING 12116
SWIDTH 1400 0
DWIDTH 14 0
BBX 0 0 0 0
BITMAP
ENDCHAR
STARTCHAR C027525
ENCODING 12117
SWIDTH 1400 0
DWIDTH 14 0
BBX 0 0 0 0
BITMAP
ENDCHAR
STARTCHAR C027526
ENCODING 12118
SWIDTH 1400 0
DWIDTH 14 0
BBX 0 0 0 0
BITMAP
ENDCHAR
STARTCHAR C027527
ENCODING 12119
SWIDTH 1400 0
DWIDTH 14 0
BBX 1 4 14 -3
BITMAP
80
00
00
80
ENDCHAR
STARTCHAR C027530
ENCODING 12120
SWIDTH 1400 0
DWIDTH 14 0
BBX 0 0 0 0
BITMAP
ENDCHAR
STARTCHAR C027531
ENCODING 12121
SWIDTH 1400 0
DWIDTH 14 0
BBX 0 0 0 0
BITMAP
ENDCHAR
STARTCHAR C027532
ENCODING 12122
SWIDTH 1400 0
DWIDTH 14 0
BBX 0 0 0 0
BITMAP
ENDCHAR
STARTCHAR C027533
ENCODING 12123
SWIDTH 1400 0
DWIDTH 14 0
BBX 0 0 0 0
BITMAP
ENDCHAR
STARTCHAR C027534
ENCODING 12124
SWIDTH 1400 0
DWIDTH 14 0
BBX 1 12 14 -2
BITMAP
80
80
80
80
00
00
00
00
00
00
00
80
ENDCHAR
STARTCHAR C027535
ENCODING 12125
SWIDTH 1400 0
DWIDTH 14 0
BBX 0 0 0 0
BITMAP
ENDCHAR
STARTCHAR C027536
ENCODING 12126
SWIDTH 1400 0
DWIDTH 14 0
BBX 0 0 0 0
BITMAP
ENDCHAR
STARTCHAR C027537
ENCODING 12127
SWIDTH 1400 0
DWIDTH 14 0
BBX 0 0 0 0
BITMAP
ENDCHAR
STARTCHAR C027540
ENCODING 12128
SWIDTH 1400 0
DWIDTH 14 0
BBX 0 0 0 0
BITMAP
ENDCHAR
STARTCHAR C027541
ENCODING 12129
SWIDTH 1400 0
DWIDTH 14 0
BBX 1 7 14 4
BITMAP
80
00
00
00
00
00
80
ENDCHAR
STARTCHAR C027542
ENCODING 12130
SWIDTH 1400 0
DWIDTH 14 0
BBX 0 0 0 0
BITMAP
ENDCHAR
STARTCHAR C027543
ENCODING 12131
SWIDTH 1400 0
DWIDTH 14 0
BBX 0 0 0 0
BITMAP
ENDCHAR
STARTCHAR C027544
ENCODING 12132
SWIDTH 1400 0
DWIDTH 14 0
BBX 0 0 0 0
BITMAP
ENDCHAR
STARTCHAR C027545
ENCODING 12133
SWIDTH 1400 0
DWIDTH 14 0
BBX 0 0 0 0
BITMAP
ENDCHAR
STARTCHAR C027546
ENCODING 12134
SWIDTH 1400 0
DWIDTH 14 0
BBX 1 4 14 -3
BITMAP
80
00
00
80
ENDCHAR
STARTCHAR C027547
ENCODING 12135
SWIDTH 1400 0
DWIDTH 14 0
BBX 0 0 0 0
BITMAP
ENDCHAR
STARTCHAR C027550
ENCODING 12136
SWIDTH 1400 0
DWIDTH 14 0
BBX 0 0 0 0
BITMAP
ENDCHAR
STARTCHAR C027551
ENCODING 12137
SWIDTH 1400 0
DWIDTH 14 0
BBX 0 0 0 0
BITMAP
ENDCHAR
STARTCHAR C027552
ENCODING 12138
SWIDTH 1400 0
DWIDTH 14 0
BBX 0 0 0 0
BITMAP
ENDCHAR
STARTCHAR C027553
ENCODING 12139
SWIDTH 1400 0
DWIDTH 14 0
BBX 1 12 14 -2
BITMAP
80
80
80
80
00
00
00
00
00
00
00
80
ENDCHAR
STARTCHAR C027554
ENCODING 12140
SWIDTH 1400 0
DWIDTH 14 0
BBX 0 0 0 0
BITMAP
ENDCHAR
STARTCHAR C027555
ENCODING 12141
SWIDTH 1400 0
DWIDTH 14 0
BBX 0 0 0 0
BITMAP
ENDCHAR
STARTCHAR C027556
ENCODING 12142
SWIDTH 1400 0
DWIDTH 14 0
BBX 0 0 0 0
BITMAP
ENDCHAR
STARTCHAR C027557
ENCODING 12143
SWIDTH 1400 0
DWIDTH 14 0
BBX 0 0 0 0
BITMAP
ENDCHAR
STARTCHAR C027560
ENCODING 12144
SWIDTH 1400 0
DWIDTH 14 0
BBX 1 7 14 4
BITMAP
80
00
00
00
00
00
80
ENDCHAR
STARTCHAR C027561
ENCODING 12145
SWIDTH 1400 0
DWIDTH 14 0
BBX 0 0 0 0
BITMAP
ENDCHAR
STARTCHAR C027562
ENCODING 12146
SWIDTH 1400 0
DWIDTH 14 0
BBX 0 0 0 0
BITMAP
ENDCHAR
STARTCHAR C027563
ENCODING 12147
SWIDTH 1400 0
DWIDTH 14 0
BBX 0 0 0 0
BITMAP
ENDCHAR
STARTCHAR C027564
ENCODING 12148
SWIDTH 1400 0
DWIDTH 14 0
BBX 0 0 0 0
BITMAP
ENDCHAR
STARTCHAR C027565
ENCODING 12149
SWIDTH 1400 0
DWIDTH 14 0
BBX 1 4 14 -3
BITMAP
80
00
00
80
ENDCHAR
STARTCHAR C027566
ENCODING 12150
SWIDTH 1400 0
DWIDTH 14 0
BBX 0 0 0 0
BITMAP
ENDCHAR
STARTCHAR C027567
ENCODING 12151
SWIDTH 1400 0
DWIDTH 14 0
BBX 0 0 0 0
BITMAP
ENDCHAR
STARTCHAR C027570
ENCODING 12152
SWIDTH 1400 0
DWIDTH 14 0
BBX 0 0 0 0
BITMAP
ENDCHAR
STARTCHAR C027571
ENCODING 12153
SWIDTH 1400 0
DWIDTH 14 0
BBX 0 0 0 0
BITMAP
ENDCHAR
STARTCHAR C027572
ENCODING 12154
SWIDTH 1400 0
DWIDTH 14 0
BBX 1 12 14 -2
BITMAP
80
80
80
80
00
00
00
00
00
00
00
80
ENDCHAR
STARTCHAR C027573
ENCODING 12155
SWIDTH 1400 0
DWIDTH 14 0
BBX 0 0 0 0
BITMAP
ENDCHAR
STARTCHAR C027574
ENCODING 12156
SWIDTH 1400 0
DWIDTH 14 0
BBX 0 0 0 0
BITMAP
ENDCHAR
STARTCHAR C027575
ENCODING 12157
SWIDTH 1400 0
DWIDTH 14 0
BBX 0 0 0 0
BITMAP
ENDCHAR
STARTCHAR C027576
ENCODING 12158
SWIDTH 1400 0
DWIDTH 14 0
BBX 0 0 0 0
BITMAP
ENDCHAR
STARTCHAR C027577
ENCODING 12159
SWIDTH 1400 0
DWIDTH 14 0
BBX 1 7 14 4
BITMAP
80
00
00
00
00
00
80
ENDCHAR
STARTCHAR C030040
ENCODING 12320
SWIDTH 1400 0
DWIDTH 14 0
BBX 1 1 14 0
BITMAP
80
ENDCHAR
STARTCHAR C030041
ENCODING 12321
SWIDTH 1400 0
DWIDTH 14 0
BBX 13 12 1 -2
BITMAP
0060
0060
7F60
0660
0660
0C78
1860
1860
3060
E060
0060
0060
ENDCHAR
STARTCHAR C030042
ENCODING 12322
SWIDTH 1400 0
DWIDTH 14 0
BBX 12 12 2 -2
BITMAP
00C0
FEC0
0CC0
18C0
30F0
60C0
C0C0
3FC0
00C0
00C0
00C0
00C0
ENDCHAR
STARTCHAR C030043
ENCODING 12323
SWIDTH 1400 0
DWIDTH 14 0
BBX 12 12 2 -2
BITMAP
00C0
00C0
7CC0
18C0
18C0
30F0
60C0
C0C0
3800
1800
1800
1FE0
ENDCHAR
STARTCHAR C030044
ENCODING 12324
SWIDTH 1400 0
DWIDTH 14 0
BBX 13 13 1 -3
BITMAP
00E0
7F60
0660
0660
0C78
1860
3060
E000
0FE0
0C00
0C00
0C70
07C0
ENDCHAR
STARTCHAR C030045
ENCODING 12325
SWIDTH 1400 0
DWIDTH 14 0
BBX 12 12 2 -2
BITMAP
01C0
FEC0
0CC0
18C0
18F0
30C0
E0C0
3FC0
00C0
1FC0
1800
1FE0
ENDCHAR
STARTCHAR C030046
ENCODING 12326
SWIDTH 1400 0
DWIDTH 14 0
BBX 13 13 1 -2
BITMAP
01C0
0060
7F60
0660
0C78
0C60
1860
7FE0
CC60
7E60
3060
3E60
1860
ENDCHAR
STARTCHAR C030047
ENCODING 12327
SWIDTH 1400 0
DWIDTH 14 0
BBX 12 12 2 -2
BITMAP
01C0
FEC0
0CC0
18C0
18F0
70C0
CCC0
3FE0
1BC0
73C0
6FC0
7B00
ENDCHAR
STARTCHAR C030050
ENCODING 12328
SWIDTH 1400 0
DWIDTH 14 0
BBX 14 14 1 -3
BITMAP
00C0
0060
7F60
0660
0C60
0C78
1860
7060
1FE0
0C60
0C60
0CC0
0FE0
0C00
ENDCHAR
STARTCHAR C030051
ENCODING 12329
SWIDTH 1400 0
DWIDTH 14 0
BBX 12 13 2 -2
BITMAP
0180
00C0
FEC0
0CC0
18C0
18F0
30C0
E1C0
18C0
1FC0
18C0
1FC0
18C0
ENDCHAR
STARTCHAR C030052
ENCODING 12330
SWIDTH 1400 0
DWIDTH 14 0
BBX 12 13 2 -2
BITMAP
0180
00C0
FEC0
0CC0
18C0
18F0
30C0
FC00
3CC0
3D80
3DC0
3F60
3E00
ENDCHAR
STARTCHAR C030053
ENCODING 12331
SWIDTH 1400 0
DWIDTH 14 0
BBX 12 12 2 -2
BITMAP
01C0
FEC0
0CC0
18C0
18F0
30C0
E0C0
07C0
0700
0D80
18C0
3060
ENDCHAR
STARTCHAR C030054
ENCODING 12332
SWIDTH 1400 0
DWIDTH 14 0
BBX 12 13 2 -2
BITMAP
0180
00C0
FEC0
0CC0
18C0
18F0
30E0
E0C0
1980
1980
3FC0
6360
C060
ENDCHAR
STARTCHAR C030055
ENCODING 12333
SWIDTH 1400 0
DWIDTH 14 0
BBX 12 12 2 -2
BITMAP
01C0
FEC0
0CC0
18C0
18F0
70C0
C0C0
0FC0
18C0
18C0
1CC0
0F80
ENDCHAR
STARTCHAR C030056
ENCODING 12334
SWIDTH 1400 0
DWIDTH 14 0
BBX 12 13 2 -2
BITMAP
0180
00C0
FEC0
0CC0
18C0
18F0
30C0
E0C0
01C0
3F00
0F00
19C0
3000
ENDCHAR
STARTCHAR C030057
ENCODING 12335
SWIDTH 1400 0
DWIDTH 14 0
BBX 12 12 2 -2
BITMAP
00C0
FEC0
0CC0
18C0
18F0
70C0
CF00
7FE0
0600
0F80
18E0
7000
ENDCHAR
STARTCHAR C030060
ENCODING 12336
SWIDTH 1400 0
DWIDTH 14 0
BBX 12 13 2 -2
BITMAP
0180
00C0
FEC0
0CC0
18C0
18F0
30C0
E0C0
1FC0
1800
1FC0
1800
1FE0
ENDCHAR
STARTCHAR C030061
ENCODING 12337
SWIDTH 1400 0
DWIDTH 14 0
BBX 14 14 1 -3
BITMAP
00C0
0060
7F60
0660
0C60
0C78
1870
7060
1FE0
0180
0CC0
0780
3FF0
1800
ENDCHAR
STARTCHAR C030062
ENCODING 12338
SWIDTH 1400 0
DWIDTH 14 0
BBX 12 12 2 -2
BITMAP
01C0
FEC0
06C0
0CC0
18F0
30C0
60C0
CF00
3FC0
0F80
0D80
0F80
ENDCHAR
STARTCHAR C030063
ENCODING 12339
SWIDTH 1400 0
DWIDTH 14 0
BBX 11 13 1 -2
BITMAP
00E0
01E0
01E0
01E0
7DE0
0DE0
19E0
19E0
31E0
61E0
C1E0
01E0
0060
ENDCHAR
STARTCHAR C030064
ENCODING 12340
SWIDTH 1400 0
DWIDTH 14 0
BBX 10 12 2 -2
BITMAP
07C0
03C0
7FC0
1BC0
33C0
33C0
63C0
FFC0
00C0
00C0
00C0
00C0
ENDCHAR
STARTCHAR C030065
ENCODING 12341
SWIDTH 1400 0
DWIDTH 14 0
BBX 12 12 1 -2
BITMAP
03E0
01E0
7FE0
0DE0
0DE0
19E0
31E0
61E0
DDE0
0C60
0C00
0FF0
ENDCHAR
STARTCHAR C030066
ENCODING 12342
SWIDTH 1400 0
DWIDTH 14 0
BBX 11 12 2 -2
BITMAP
03C0
03C0
7FC0
1BC0
33C0
33C0
63C0
FFC0
00C0
1FC0
1800
1FE0
ENDCHAR
STARTCHAR C030067
ENCODING 12343
SWIDTH 1400 0
DWIDTH 14 0
BBX 11 12 2 -2
BITMAP
03C0
03C0
7FC0
1BC0
33C0
33C0
63C0
CFE0
0C60
0CC0
0FE0
0C00
ENDCHAR
STARTCHAR C030070
ENCODING 12344
SWIDTH 1400 0
DWIDTH 14 0
BBX 10 12 2 -2
BITMAP
03C0
03C0
7FC0
1BC0
33C0
33C0
63C0
CCC0
0FC0
0CC0
0FC0
0CC0
ENDCHAR
STARTCHAR C030071
ENCODING 12345
SWIDTH 1400 0
DWIDTH 14 0
BBX 10 12 2 -2
BITMAP
03C0
03C0
7FC0
1BC0
33C0
33C0
E3C0
06C0
0600
0F00
19C0
7000
ENDCHAR
STARTCHAR C030072
ENCODING 12346
SWIDTH 1400 0
DWIDTH 14 0
BBX 11 12 2 -2
BITMAP
0760
FF60
1B60
1B60
33E0
6360
C3E0
0CC0
1980
1FC0
7360
C600
ENDCHAR
STARTCHAR C030073
ENCODING 12347
SWIDTH 1400 0
DWIDTH 14 0
BBX 10 12 2 -2
BITMAP
03C0
03C0
7FC0
1BC0
33C0
33C0
63C0
C7C0
0CC0
0CC0
0CC0
0780
ENDCHAR
STARTCHAR C030074
ENCODING 12348
SWIDTH 1400 0
DWIDTH 14 0
BBX 13 12 1 -2
BITMAP
00E0
0060
7F60
0660
0678
0C60
1860
1860
3078
E060
0060
0060
ENDCHAR
STARTCHAR C030075
ENCODING 12349
SWIDTH 1400 0
DWIDTH 14 0
BBX 13 12 1 -2
BITMAP
00E0
7F60
0660
0C78
0C60
1860
7078
FFE0
0060
0060
0060
0060
ENDCHAR
STARTCHAR C030076
ENCODING 12350
SWIDTH 1400 0
DWIDTH 14 0
BBX 12 12 2 -2
BITMAP
01C0
FEC0
0CC0
0CF0
18C0
30C0
60F0
C0E0
38C0
1800
1800
1FE0
ENDCHAR
STARTCHAR C030077
ENCODING 12351
SWIDTH 1400 0
DWIDTH 14 0
BBX 13 13 1 -2
BITMAP
00C0
0060
7F60
0660
0C78
0C60
1878
7070
DFE0
0060
0FE0
0C00
0FF0
ENDCHAR
STARTCHAR C030100
ENCODING 12352
SWIDTH 1400 0
DWIDTH 14 0
BBX 13 12 1 -2
BITMAP
00E0
7E60
0660
0C78
0C60
1878
7370
C360
0380
06E0
0C70
3800
ENDCHAR
STARTCHAR C030101
ENCODING 12353
SWIDTH 1400 0
DWIDTH 14 0
BBX 13 12 1 -2
BITMAP
00E0
7E60
0660
0C78
0C60
1860
7078
C7E0
0C60
0C60
0EE0
07C0
ENDCHAR
STARTCHAR C030102
ENCODING 12354
SWIDTH 1400 0
DWIDTH 14 0
BBX 11 12 1 -2
BITMAP
0360
01E0
7FE0
0DE0
0DE0
19E0
19E0
31E0
61E0
C1E0
01E0
0060
ENDCHAR
STARTCHAR C030103
ENCODING 12355
SWIDTH 1400 0
DWIDTH 14 0
BBX 13 12 1 -1
BITMAP
00C0
03E0
01E0
FDE0
0DE0
19E0
19E0
31E0
FDE0
0C60
0C00
0FF8
ENDCHAR
STARTCHAR C030104
ENCODING 12356
SWIDTH 1400 0
DWIDTH 14 0
BBX 12 11 1 -1
BITMAP
0330
01B0
3DB0
0DF0
19F0
31B0
7FE0
C060
1FE0
0C00
0FF0
ENDCHAR
STARTCHAR C030105
ENCODING 12357
SWIDTH 1400 0
DWIDTH 14 0
BBX 10 13 2 -2
BITMAP
01C0
00C0
00C0
FEC0
0CC0
0CC0
1FC0
18C0
30C0
60C0
C0C0
00C0
00C0
ENDCHAR
STARTCHAR C030106
ENCODING 12358
SWIDTH 1400 0
DWIDTH 14 0
BBX 10 12 2 -2
BITMAP
01C0
FEC0
0CC0
0CC0
1FC0
30C0
60C0
FFC0
00C0
00C0
00C0
00C0
ENDCHAR
STARTCHAR C030107
ENCODING 12359
SWIDTH 1400 0
DWIDTH 14 0
BBX 11 12 2 -2
BITMAP
01C0
00C0
7EC0
0CC0
1FC0
30C0
60C0
C0C0
38C0
1800
1800
1FE0
ENDCHAR
STARTCHAR C030110
ENCODING 12360
SWIDTH 1400 0
DWIDTH 14 0
BBX 11 12 2 -2
BITMAP
01C0
FEC0
0CC0
0CC0
1FC0
30C0
60C0
C0C0
1FC0
1800
1800
1FE0
ENDCHAR
STARTCHAR C030111
ENCODING 12361
SWIDTH 1400 0
DWIDTH 14 0
BBX 11 12 2 -2
BITMAP
01C0
FEC0
0CC0
0FC0
18C0
30C0
60C0
FFC0
0180
1FC0
1800
1FE0
ENDCHAR
STARTCHAR C030112
ENCODING 12362
SWIDTH 1400 0
DWIDTH 14 0
BBX 12 12 1 -2
BITMAP
00E0
7F60
0660
0660
0DE0
1860
3060
FFF0
07E0
1DE0
1FE0
0180
ENDCHAR
STARTCHAR C030113
ENCODING 12363
SWIDTH 1400 0
DWIDTH 14 0
BBX 10 12 2 -2
BITMAP
01C0
FEC0
0CC0
0CC0
1FC0
30C0
60C0
DFC0
18C0
1980
1FC0
1800
ENDCHAR
STARTCHAR C030114
ENCODING 12364
SWIDTH 1400 0
DWIDTH 14 0
BBX 10 12 2 -2
BITMAP
01C0
FEC0
0CC0
0CC0
1FC0
30C0
61C0
D8C0
1FC0
18C0
1FC0
1800
ENDCHAR
STARTCHAR C030115
ENCODING 12365
SWIDTH 1400 0
DWIDTH 14 0
BBX 11 12 2 -2
BITMAP
01C0
FEC0
0CC0
0CC0
1FC0
30C0
60C0
C3C0
0700
0D80
18E0
3060
ENDCHAR
STARTCHAR C030116
ENCODING 12366
SWIDTH 1400 0
DWIDTH 14 0
BBX 11 11 2 -1
BITMAP
01C0
FEC0
0CC0
0FC0
18C0
30C0
61C0
CCC0
1D80
37E0
6060
ENDCHAR
STARTCHAR C030117
ENCODING 12367
SWIDTH 1400 0
DWIDTH 14 0
BBX 10 12 2 -2
BITMAP
01C0
FEC0
0CC0
0CC0
1FC0
30C0
60C0
C3C0
0FC0
0CC0
0CC0
0780
ENDCHAR
STARTCHAR C030120
ENCODING 12368
SWIDTH 1400 0
DWIDTH 14 0
BBX 11 12 2 -2
BITMAP
01C0
FEC0
0CC0
18C0
1FC0
30C0
60C0
FFE0
0300
0700
0DC0
3860
ENDCHAR
STARTCHAR C030121
ENCODING 12369
SWIDTH 1400 0
DWIDTH 14 0
BBX 11 12 2 -2
BITMAP
01C0
FEC0
0CC0
18C0
37C0
60C0
C0C0
1FC0
1800
1FC0
1800
0FE0
ENDCHAR
STARTCHAR C030122
ENCODING 12370
SWIDTH 1400 0
DWIDTH 14 0
BBX 12 12 2 -2
BITMAP
01C0
FEC0
0CC0
0CC0
1FC0
30C0
60C0
FFC0
1980
0D80
0D80
7FF0
ENDCHAR
STARTCHAR C030123
ENCODING 12371
SWIDTH 1400 0
DWIDTH 14 0
BBX 11 12 1 -2
BITMAP
00E0
7F60
0660
0660
0DE0
1860
7060
C3E0
1F80
06C0
06C0
03C0
ENDCHAR
STARTCHAR C030124
ENCODING 12372
SWIDTH 1400 0
DWIDTH 14 0
BBX 11 13 1 -2
BITMAP
00C0
0060
01E0
FDE0
0DE0
0DE0
1FE0
19E0
31E0
61E0
01E0
01E0
01E0
ENDCHAR
STARTCHAR C030125
ENCODING 12373
SWIDTH 1400 0
DWIDTH 14 0
BBX 11 12 2 -2
BITMAP
07C0
03C0
FBC0
1BC0
1FC0
33C0
63C0
C3C0
3BC0
1800
1800
1FE0
ENDCHAR
STARTCHAR C030126
ENCODING 12374
SWIDTH 1400 0
DWIDTH 14 0
BBX 11 12 2 -2
BITMAP
07C0
03C0
7BC0
1BC0
3FC0
63C0
63C0
FFC0
00C0
1FC0
1800
1FE0
ENDCHAR
STARTCHAR C030127
ENCODING 12375
SWIDTH 1400 0
DWIDTH 14 0
BBX 11 13 2 -3
BITMAP
07C0
03C0
7BC0
1BC0
3FC0
63C0
C3C0
1FE0
0CC0
0CC0
0CC0
0FC0
0C00
ENDCHAR
STARTCHAR C030130
ENCODING 12376
SWIDTH 1400 0
DWIDTH 14 0
BBX 11 12 1 -2
BITMAP
00E0
01E0
7FE0
0DE0
0DE0
1FE0
31E0
67E0
C7E0
0660
07E0
0660
ENDCHAR
STARTCHAR C030131
ENCODING 12377
SWIDTH 1400 0
DWIDTH 14 0
BBX 11 12 2 -2
BITMAP
07C0
03C0
7BC0
1BC0
3FC0
63C0
63C0
C3C0
0300
0780
1CE0
3000
ENDCHAR
STARTCHAR C030132
ENCODING 12378
SWIDTH 1400 0
DWIDTH 14 0
BBX 12 12 2 -2
BITMAP
07C0
03C0
FBC0
1BC0
3FC0
33C0
63C0
D8C0
0CC0
1DC0
3770
6630
ENDCHAR
STARTCHAR C030133
ENCODING 12379
SWIDTH 1400 0
DWIDTH 14 0
BBX 10 12 2 -2
BITMAP
03C0
FFC0
1BC0
1BC0
3FC0
63C0
C3C0
0780
0CC0
0CC0
0CC0
0780
ENDCHAR
STARTCHAR C030134
ENCODING 12380
SWIDTH 1400 0
DWIDTH 14 0
BBX 10 12 2 -2
BITMAP
01C0
00C0
7EC0
0FC0
18C0
18C0
3FC0
60C0
C0C0
00C0
00C0
00C0
ENDCHAR
STARTCHAR C030135
ENCODING 12381
SWIDTH 1400 0
DWIDTH 14 0
BBX 10 13 2 -2
BITMAP
0180
00C0
FEC0
0FC0
0CC0
18C0
3FC0
60C0
FFC0
00C0
00C0
00C0
00C0
ENDCHAR
STARTCHAR C030136
ENCODING 12382
SWIDTH 1400 0
DWIDTH 14 0
BBX 10 13 2 -2
BITMAP
0180
00C0
FEC0
0FC0
0CC0
18C0
37C0
60C0
FFC0
0CC0
0CC0
0CC0
0CC0
ENDCHAR
STARTCHAR C030137
ENCODING 12383
SWIDTH 1400 0
DWIDTH 14 0
BBX 11 12 2 -2
BITMAP
01C0
FEC0
0CC0
0FC0
18C0
30C0
6FC0
C0C0
38C0
1800
1800
1FE0
ENDCHAR
STARTCHAR C030140
ENCODING 12384
SWIDTH 1400 0
DWIDTH 14 0
BBX 11 11 2 -1
BITMAP
00C0
FCC0
0FC0
1EC0
30C0
6FC0
C0C0
1FC0
1800
1800
1FE0
ENDCHAR
STARTCHAR C030141
ENCODING 12385
SWIDTH 1400 0
DWIDTH 14 0
BBX 11 13 2 -2
BITMAP
01C0
00C0
FEC0
0FC0
0CC0
18C0
3FC0
60C0
FFC0
00C0
1FC0
1800
1FE0
ENDCHAR
STARTCHAR C030142
ENCODING 12386
SWIDTH 1400 0
DWIDTH 14 0
BBX 11 13 1 -2
BITMAP
00E0
0060
7E60
07E0
0C60
0C60
1BE0
7060
CFE0
0C60
0CC0
0FC0
0C00
ENDCHAR
STARTCHAR C030143
ENCODING 12387
SWIDTH 1400 0
DWIDTH 14 0
BBX 14 14 1 -3
BITMAP
01C0
00E0
7F60
07E0
0660
0C60
1BE0
30E0
6C60
0FE0
0C60
0C60
0FE0
0C00
ENDCHAR
STARTCHAR C030144
ENCODING 12388
SWIDTH 1400 0
DWIDTH 14 0
BBX 12 12 1 -2
BITMAP
0060
FE60
07E0
0C60
1860
33E0
6060
01E0
0380
03C0
0E70
1830
ENDCHAR
STARTCHAR C030145
ENCODING 12389
SWIDTH 1400 0
DWIDTH 14 0
BBX 11 13 2 -2
BITMAP
0380
01C0
FEC0
0DC0
0FC0
18C0
37C0
60C0
D980
1980
1FC0
7760
C060
ENDCHAR
STARTCHAR C030146
ENCODING 12390
SWIDTH 1400 0
DWIDTH 14 0
BBX 10 13 2 -2
BITMAP
0380
01C0
FEC0
0FC0
0CC0
18C0
37C0
60C0
C3C0
0FC0
0CC0
0CC0
0780
ENDCHAR
STARTCHAR C030147
ENCODING 12391
SWIDTH 1400 0
DWIDTH 14 0
BBX 11 13 2 -2
BITMAP
0380
01C0
FEC0
0FC0
0CC0
18C0
37C0
60C0
DFC0
1800
1FC0
1800
1FE0
ENDCHAR
STARTCHAR C030150
ENCODING 12392
SWIDTH 1400 0
DWIDTH 14 0
BBX 11 12 2 -2
BITMAP
00E0
0360
FF60
1F60
1F60
3360
6F60
6360
C360
0360
0360
0060
ENDCHAR
STARTCHAR C030151
ENCODING 12393
SWIDTH 1400 0
DWIDTH 14 0
BBX 11 11 2 -1
BITMAP
06E0
0360
7B60
1F60
3360
7F60
6360
FB60
1B60
1860
1FE0
ENDCHAR
STARTCHAR C030152
ENCODING 12394
SWIDTH 1400 0
DWIDTH 14 0
BBX 11 11 2 -1
BITMAP
01C0
03C0
FFC0
1BC0
1FC0
3FC0
7FC0
C0C0
1FC0
1800
1FE0
ENDCHAR
STARTCHAR C030153
ENCODING 12395
SWIDTH 1400 0
DWIDTH 14 0
BBX 11 12 1 -2
BITMAP
03E0
7FE0
0DE0
0FE0
19E0
37E0
61E0
C660
07E0
0660
07E0
0660
ENDCHAR
STARTCHAR C030154
ENCODING 12396
SWIDTH 1400 0
DWIDTH 14 0
BBX 11 13 2 -2
BITMAP
0180
00C0
07C0
FFC0
1BC0
1FC0
33C0
6FC0
C3C0
0300
0780
1CE0
3060
ENDCHAR
STARTCHAR C030155
ENCODING 12397
SWIDTH 1400 0
DWIDTH 14 0
BBX 13 9 1 0
BITMAP
3FF0
0060
0060
0060
0EC0
06C0
0600
0600
FFF8
ENDCHAR
STARTCHAR C030156
ENCODING 12398
SWIDTH 1400 0
DWIDTH 14 0
BBX 13 12 1 -2
BITMAP
0060
1FE0
0060
06C0
0600
FFF8
0000
1FE0
0060
0060
0060
0060
ENDCHAR
STARTCHAR C030157
ENCODING 12399
SWIDTH 1400 0
DWIDTH 14 0
BBX 13 11 1 -2
BITMAP
3FF0
0060
0060
0360
0300
FFF8
0000
3800
1800
1800
1FE0
ENDCHAR
STARTCHAR C030160
ENCODING 12400
SWIDTH 1400 0
DWIDTH 14 0
BBX 13 12 1 -2
BITMAP
0060
1FE0
0060
06C0
0600
FFF8
0000
00E0
1F80
1800
1800
0FE0
ENDCHAR
STARTCHAR C030161
ENCODING 12401
SWIDTH 1400 0
DWIDTH 14 0
BBX 13 12 1 -2
BITMAP
0060
1FE0
0060
0600
0600
FFF8
0000
3FC0
00C0
3FC0
1800
1FE0
ENDCHAR
STARTCHAR C030162
ENCODING 12402
SWIDTH 1400 0
DWIDTH 14 0
BBX 13 12 1 -2
BITMAP
3FE0
0060
0060
0600
0600
FFF8
0000
3FF0
07B0
3DB0
3DF0
0180
ENDCHAR
STARTCHAR C030163
ENCODING 12403
SWIDTH 1400 0
DWIDTH 14 0
BBX 13 11 1 -1
BITMAP
0060
1FE0
0060
0600
0600
FFF8
00C0
1F60
3FC0
19F0
1E30
ENDCHAR
STARTCHAR C030164
ENCODING 12404
SWIDTH 1400 0
DWIDTH 14 0
BBX 13 12 1 -2
BITMAP
3FE0
0660
0660
07F8
FE00
01C0
0000
3FE0
3FE0
3360
3F60
01C0
ENDCHAR
STARTCHAR C030165
ENCODING 12405
SWIDTH 1400 0
DWIDTH 14 0
BBX 13 12 1 -2
BITMAP
0060
1FE0
0060
0300
0600
FFF8
0000
3FC0
18C0
18C0
1FC0
1800
ENDCHAR
STARTCHAR C030166
ENCODING 12406
SWIDTH 1400 0
DWIDTH 14 0
BBX 13 13 1 -3
BITMAP
0060
1FE0
0060
0300
0600
FFF8
0180
18C0
1FC0
18C0
18C0
1FC0
18C0
ENDCHAR
STARTCHAR C030167
ENCODING 12407
SWIDTH 1400 0
DWIDTH 14 0
BBX 13 12 1 -2
BITMAP
0060
1FE0
0060
0600
0600
FFF8
0000
0600
0600
0F80
18E0
3060
ENDCHAR
STARTCHAR C030170
ENCODING 12408
SWIDTH 1400 0
DWIDTH 14 0
BBX 13 12 1 -2
BITMAP
0060
1FE0
0060
0600
0600
FFF8
0000
0300
1F80
18C0
1CC0
0F80
ENDCHAR
STARTCHAR C030171
ENCODING 12409
SWIDTH 1400 0
DWIDTH 14 0
BBX 13 12 1 -2
BITMAP
0060
1FE0
0060
06C0
0600
FFF8
0000
3FF0
0300
0780
0CE0
3860
ENDCHAR
STARTCHAR C030172
ENCODING 12410
SWIDTH 1400 0
DWIDTH 14 0
BBX 13 12 1 -2
BITMAP
00E0
0060
7FE0
0360
0360
3B60
1878
19E0
FF60
0060
0060
0060
ENDCHAR
STARTCHAR C030173
ENCODING 12411
SWIDTH 1400 0
DWIDTH 14 0
BBX 12 12 2 -2
BITMAP
01C0
FEC0
06C0
0CC0
0CC0
33F0
FEC0
7F80
0180
0180
0180
0180
ENDCHAR
STARTCHAR C030174
ENCODING 12412
SWIDTH 1400 0
DWIDTH 14 0
BBX 12 12 2 -2
BITMAP
0180
FEC0
06C0
06C0
30C0
30F0
3FC0
F8C0
38C0
1800
1800
1FE0
ENDCHAR
STARTCHAR C030175
ENCODING 12413
SWIDTH 1400 0
DWIDTH 14 0
BBX 12 12 2 -2
BITMAP
01C0
FEC0
06C0
06C0
30F0
37E0
FCC0
3FC0
0180
1FC0
1800
1FE0
ENDCHAR
STARTCHAR C030176
ENCODING 12414
SWIDTH 1400 0
DWIDTH 14 0
BBX 12 12 2 -2
BITMAP
01C0
FEC0
06C0
36C0
30F0
3FE0
F8C0
7FC0
1EC0
7780
7F80
0600
ENDCHAR
STARTCHAR C030177
ENCODING 12415
SWIDTH 1400 0
DWIDTH 14 0
BBX 0 0 0 0
BITMAP
ENDCHAR
STARTCHAR C030440
ENCODING 12576
SWIDTH 1400 0
DWIDTH 14 0
BBX 0 0 0 0
BITMAP
ENDCHAR
STARTCHAR C030441
ENCODING 12577
SWIDTH 1400 0
DWIDTH 14 0
BBX 12 12 2 -2
BITMAP
01C0
FEC0
06C0
36C0
30F0
3FC0
F8C0
1FC0
18C0
18C0
1FC0
1800
ENDCHAR
STARTCHAR C030442
ENCODING 12578
SWIDTH 1400 0
DWIDTH 14 0
BBX 12 12 2 -2
BITMAP
01C0
FEC0
06C0
36C0
30F0
3FE0
FBC0
1980
1F80
1980
1F80
1980
ENDCHAR
STARTCHAR C030443
ENCODING 12579
SWIDTH 1400 0
DWIDTH 14 0
BBX 13 12 1 -2
BITMAP
00E0
7F60
0360
0360
1860
18F8
FFE0
03E0
0380
06C0
0C70
1830
ENDCHAR
STARTCHAR C030444
ENCODING 12580
SWIDTH 1400 0
DWIDTH 14 0
BBX 12 12 2 -2
BITMAP
01C0
FEC0
06C0
06C0
18F0
19E0
FFC0
0FC0
18C0
18C0
18C0
0F80
ENDCHAR
STARTCHAR C030445
ENCODING 12581
SWIDTH 1400 0
DWIDTH 14 0
BBX 11 12 1 -2
BITMAP
0360
01E0
07E0
3FE0
07E0
19E0
19E0
FFE0
01E0
01E0
01E0
0060
ENDCHAR
STARTCHAR C030446
ENCODING 12582
SWIDTH 1400 0
DWIDTH 14 0
BBX 13 12 1 -2
BITMAP
03E0
01E0
7FE0
07E0
3FE0
19E0
1FE0
FDE0
1DE0
0C00
0C00
07F8
ENDCHAR
STARTCHAR C030447
ENCODING 12583
SWIDTH 1400 0
DWIDTH 14 0
BBX 11 12 2 -2
BITMAP
03C0
03C0
FFC0
6FC0
6FC0
6FC0
FBC0
3FC0
00C0
3FC0
1800
1FE0
ENDCHAR
STARTCHAR C030450
ENCODING 12584
SWIDTH 1400 0
DWIDTH 14 0
BBX 14 14 1 -3
BITMAP
00E0
01E0
7FE0
07E0
3FE0
31E0
37E0
7DE0
00E0
0660
07E0
0660
07E0
0660
ENDCHAR
STARTCHAR C030451
ENCODING 12585
SWIDTH 1400 0
DWIDTH 14 0
BBX 11 12 2 -2
BITMAP
03C0
03C0
FFC0
6FC0
7BC0
6FC0
FBC0
0180
1980
1DC0
3360
6600
ENDCHAR
STARTCHAR C030452
ENCODING 12586
SWIDTH 1400 0
DWIDTH 14 0
BBX 10 13 2 -2
BITMAP
01C0
03C0
FFC0
0FC0
6FC0
63C0
7FC0
F3C0
07C0
0CC0
0CC0
0CC0
0780
ENDCHAR
STARTCHAR C030453
ENCODING 12587
SWIDTH 1400 0
DWIDTH 14 0
BBX 11 12 1 -2
BITMAP
00E0
0060
7FE0
01E0
0360
1B60
1860
1FE0
FC60
0060
0060
0060
ENDCHAR
STARTCHAR C030454
ENCODING 12588
SWIDTH 1400 0
DWIDTH 14 0
BBX 10 12 2 -2
BITMAP
01C0
7FC0
03C0
06C0
36C0
37C0
FCC0
7FC0
00C0
00C0
00C0
00C0
ENDCHAR
STARTCHAR C030455
ENCODING 12589
SWIDTH 1400 0
DWIDTH 14 0
BBX 11 12 2 -2
BITMAP
01C0
00C0
FFC0
06C0
76C0
36C0
3FC0
E0C0
38C0
1800
1800
1FE0
ENDCHAR
STARTCHAR C030456
ENCODING 12590
SWIDTH 1400 0
DWIDTH 14 0
BBX 11 12 2 -2
BITMAP
01C0
7FC0
03C0
36C0
36C0
3FC0
F8C0
3FC0
3FC0
1800
1800
1FE0
ENDCHAR
STARTCHAR C030457
ENCODING 12591
SWIDTH 1400 0
DWIDTH 14 0
BBX 11 12 1 -2
BITMAP
00E0
7F60
0360
1B60
1860
FFE0
0060
1FE0
0CC0
0CC0
0FC0
0C00
ENDCHAR
STARTCHAR C030460
ENCODING 12592
SWIDTH 1400 0
DWIDTH 14 0
BBX 10 12 2 -2
BITMAP
01C0
7FC0
03C0
06C0
1EC0
1BC0
FFC0
0CC0
0FC0
0CC0
0FC0
0CC0
ENDCHAR
STARTCHAR C030461
ENCODING 12593
SWIDTH 1400 0
DWIDTH 14 0
BBX 11 12 2 -2
BITMAP
01C0
FFC0
06C0
06C0
1EC0
19C0
1FC0
76C0
0300
0780
0CE0
3800
ENDCHAR
STARTCHAR C030462
ENCODING 12594
SWIDTH 1400 0
DWIDTH 14 0
BBX 11 12 1 -2
BITMAP
00E0
3FE0
01E0
0360
1B60
18E0
FFE0
01E0
07C0
0660
0660
03C0
ENDCHAR
STARTCHAR C030463
ENCODING 12595
SWIDTH 1400 0
DWIDTH 14 0
BBX 13 9 1 0
BITMAP
3FF0
0060
0060
0060
1DE0
0D80
0D80
0D80
FFF8
ENDCHAR
STARTCHAR C030464
ENCODING 12596
SWIDTH 1400 0
DWIDTH 14 0
BBX 13 10 1 -1
BITMAP
1FF0
0060
03E0
1980
1980
FFF8
3800
1800
1800
0FF0
ENDCHAR
STARTCHAR C030465
ENCODING 12597
SWIDTH 1400 0
DWIDTH 14 0
BBX 13 11 1 -1
BITMAP
3FE0
0060
0DE0
0D80
FFF8
0000
3FE0
00C0
1FC0
1800
0FF0
ENDCHAR
STARTCHAR C030466
ENCODING 12598
SWIDTH 1400 0
DWIDTH 14 0
BBX 13 12 1 -2
BITMAP
3FC0
0060
0DE0
0D80
FFF8
0000
38C0
18C0
1FC0
18C0
1FC0
18C0
ENDCHAR
STARTCHAR C030467
ENCODING 12599
SWIDTH 1400 0
DWIDTH 14 0
BBX 13 11 1 -2
BITMAP
3FF0
0060
0360
19E0
1980
FFF8
0300
0700
0DC0
1860
3000
ENDCHAR
STARTCHAR C030470
ENCODING 12600
SWIDTH 1400 0
DWIDTH 14 0
BBX 13 11 1 -2
BITMAP
3FE0
0060
00C0
00C0
FFF8
03C0
0300
0300
0300
0300
0300
ENDCHAR
STARTCHAR C030471
ENCODING 12601
SWIDTH 1400 0
DWIDTH 14 0
BBX 13 12 1 -2
BITMAP
3FC0
0070
0060
00C0
FFF8
0300
0300
3FC0
00C0
00C0
00C0
00C0
ENDCHAR
STARTCHAR C030472
ENCODING 12602
SWIDTH 1400 0
DWIDTH 14 0
BBX 13 10 1 -1
BITMAP
3FF0
0060
0060
00C0
FFF8
0360
3B00
1B00
1800
0FF0
ENDCHAR
STARTCHAR C030473
ENCODING 12603
SWIDTH 1400 0
DWIDTH 14 0
BBX 13 11 1 -2
BITMAP
3FE0
0060
00C0
FFF8
0660
0600
0000
1FE0
1800
1800
0FE0
ENDCHAR
STARTCHAR C030474
ENCODING 12604
SWIDTH 1400 0
DWIDTH 14 0
BBX 13 12 1 -2
BITMAP
1FC0
0070
0060
0060
FFF8
0360
0300
3FE0
0060
3FE0
1800
1FE0
ENDCHAR
STARTCHAR C030475
ENCODING 12605
SWIDTH 1400 0
DWIDTH 14 0
BBX 13 10 1 -1
BITMAP
3FE0
0060
00C0
00C0
FFF8
06C0
3FE0
0C60
3860
3C60
ENDCHAR
STARTCHAR C030476
ENCODING 12606
SWIDTH 1400 0
DWIDTH 14 0
BBX 13 11 1 -2
BITMAP
3FE0
0060
00C0
00C0
FFF8
06C0
3FF0
3DB0
31E0
3DF0
0180
ENDCHAR
STARTCHAR C030477
ENCODING 12607
SWIDTH 1400 0
DWIDTH 14 0
BBX 13 11 1 -1
BITMAP
3FE0
0060
00C0
FFF8
0300
01E0
3C00
0FE0
3BE0
3F60
19E0
ENDCHAR
STARTCHAR C030500
ENCODING 12608
SWIDTH 1400 0
DWIDTH 14 0
BBX 13 12 1 -2
BITMAP
3FF0
0060
0060
0060
FFF8
0300
0300
1FE0
18C0
18C0
1FC0
1800
ENDCHAR
STARTCHAR C030501
ENCODING 12609
SWIDTH 1400 0
DWIDTH 14 0
BBX 13 12 1 -2
BITMAP
3FE0
0060
00C0
00C0
FFF8
0300
01C0
18C0
1FC0
18C0
1FC0
18C0
ENDCHAR
STARTCHAR C030502
ENCODING 12610
SWIDTH 1400 0
DWIDTH 14 0
BBX 13 11 1 -2
BITMAP
1FE0
0060
00C0
00C0
FFF8
0300
0600
0700
0700
0DC0
3860
ENDCHAR
STARTCHAR C030503
ENCODING 12611
SWIDTH 1400 0
DWIDTH 14 0
BBX 12 11 2 -2
BITMAP
7FE0
00C0
00C0
0FF0
FEC0
0600
1F00
3180
3180
3980
1F00
ENDCHAR
STARTCHAR C030504
ENCODING 12612
SWIDTH 1400 0
DWIDTH 14 0
BBX 13 12 1 -2
BITMAP
3FF0
0060
0060
0060
FFF8
0300
0300
03F0
1F00
0780
0CE0
3830
ENDCHAR
STARTCHAR C030505
ENCODING 12613
SWIDTH 1400 0
DWIDTH 14 0
BBX 10 12 2 -2
BITMAP
01C0
FEC0
06C0
06C0
06C0
07C0
FCC0
19C0
1BC0
18C0
18C0
00C0
ENDCHAR
STARTCHAR C030506
ENCODING 12614
SWIDTH 1400 0
DWIDTH 14 0
BBX 11 12 1 -2
BITMAP
00E0
7F60
0360
0660
FF60
0CE0
0DE0
3FE0
0060
0060
0060
0060
ENDCHAR
STARTCHAR C030507
ENCODING 12615
SWIDTH 1400 0
DWIDTH 14 0
BBX 11 12 2 -2
BITMAP
01C0
06C0
7EC0
06C0
0FC0
FEC0
18C0
1BC0
38C0
1800
19E0
0F00
ENDCHAR
STARTCHAR C030510
ENCODING 12616
SWIDTH 1400 0
DWIDTH 14 0
BBX 11 12 2 -2
BITMAP
01C0
FEC0
06C0
0CC0
07C0
FCC0
1BC0
3FC0
00C0
3FC0
1800
1FE0
ENDCHAR
STARTCHAR C030511
ENCODING 12617
SWIDTH 1400 0
DWIDTH 14 0
BBX 12 12 2 -2
BITMAP
01C0
FEC0
06C0
0CC0
FEC0
1FC0
18C0
1CC0
0CC0
1DC0
3770
E030
ENDCHAR
STARTCHAR C030512
ENCODING 12618
SWIDTH 1400 0
DWIDTH 14 0
BBX 11 12 1 -2
BITMAP
00E0
7F60
0360
0660
DF60
7FE0
0C60
0DE0
0FC0
0C60
0EE0
07C0
ENDCHAR
STARTCHAR C030513
ENCODING 12619
SWIDTH 1400 0
DWIDTH 14 0
BBX 12 12 1 -2
BITMAP
01F0
00F0
7EF0
06F0
0CF0
0FF0
FEF0
1BF0
18F0
18F0
00F0
0030
ENDCHAR
STARTCHAR C030514
ENCODING 12620
SWIDTH 1400 0
DWIDTH 14 0
BBX 12 12 1 -2
BITMAP
01F0
00F0
7EF0
0CF0
0CF0
FEF0
1BF0
19B0
0180
0380
06E0
1C30
ENDCHAR
STARTCHAR C030515
ENCODING 12621
SWIDTH 1400 0
DWIDTH 14 0
BBX 11 12 1 -2
BITMAP
00E0
7F60
0360
0360
0660
03E0
FE60
0C60
0C60
0C60
0C60
0060
ENDCHAR
STARTCHAR C030516
ENCODING 12622
SWIDTH 1400 0
DWIDTH 14 0
BBX 10 12 2 -2
BITMAP
00C0
FEC0
06C0
0CC0
0FC0
F8C0
18C0
7FC0
00C0
00C0
00C0
00C0
ENDCHAR
STARTCHAR C030517
ENCODING 12623
SWIDTH 1400 0
DWIDTH 14 0
BBX 12 12 1 -2
BITMAP
00E0
7F60
0360
0660
03E0
FE60
0C60
0C60
1C60
0C00
0C00
07F0
ENDCHAR
STARTCHAR C030520
ENCODING 12624
SWIDTH 1400 0
DWIDTH 14 0
BBX 11 12 2 -2
BITMAP
0060
FF60
0660
06E0
07E0
FC60
1860
3FC0
3FC0
1800
1800
1FE0
ENDCHAR
STARTCHAR C030521
ENCODING 12625
SWIDTH 1400 0
DWIDTH 14 0
BBX 11 12 2 -2
BITMAP
00C0
7EC0
06C0
0CC0
07C0
FCC0
18C0
0FE0
0CC0
0CC0
0FC0
0C00
ENDCHAR
STARTCHAR C030522
ENCODING 12626
SWIDTH 1400 0
DWIDTH 14 0
BBX 11 12 1 -2
BITMAP
0060
7F60
0360
0660
FFE0
0C60
0CE0
0660
07E0
0660
07E0
0660
ENDCHAR
STARTCHAR C030523
ENCODING 12627
SWIDTH 1400 0
DWIDTH 14 0
BBX 11 12 2 -2
BITMAP
00C0
FEC0
06C0
0CC0
07C0
FCC0
18C0
1BC0
0700
0D80
18E0
3000
ENDCHAR
STARTCHAR C030524
ENCODING 12628
SWIDTH 1400 0
DWIDTH 14 0
BBX 13 11 1 -2
BITMAP
3FE0
0060
0060
00C0
FFF8
0CC0
0CC0
0CC0
0CC0
0CC0
0CC0
ENDCHAR
STARTCHAR C030525
ENCODING 12629
SWIDTH 1400 0
DWIDTH 14 0
BBX 13 10 1 -1
BITMAP
3FE0
00C0
00C0
00C0
FFF8
0D80
3D80
1D80
1980
1FF0
ENDCHAR
STARTCHAR C030526
ENCODING 12630
SWIDTH 1400 0
DWIDTH 14 0
BBX 13 10 1 -1
BITMAP
3FE0
00C0
00C0
FFF8
0DC0
0F80
18C0
3FC0
1800
1FE0
ENDCHAR
STARTCHAR C030527
ENCODING 12631
SWIDTH 1400 0
DWIDTH 14 0
BBX 13 7 1 1
BITMAP
3FF0
0060
0060
0060
00C0
00C0
FFF8
ENDCHAR
STARTCHAR C030530
ENCODING 12632
SWIDTH 1400 0
DWIDTH 14 0
BBX 13 10 1 -1
BITMAP
3FE0
0060
00C0
FFF8
0000
1FE0
0060
0060
0060
0060
ENDCHAR
STARTCHAR C030531
ENCODING 12633
SWIDTH 1400 0
DWIDTH 14 0
BBX 13 10 1 -1
BITMAP
3FF0
0060
0060
00C0
FFF8
0000
1800
1800
1800
0FF0
ENDCHAR
STARTCHAR C030532
ENCODING 12634
SWIDTH 1400 0
DWIDTH 14 0
BBX 13 10 1 -1
BITMAP
3FE0
0060
00C0
FFF8
0000
0000
1FC0
1800
1800
1FE0
ENDCHAR
STARTCHAR C030533
ENCODING 12635
SWIDTH 1400 0
DWIDTH 14 0
BBX 13 10 1 -1
BITMAP
3FE0
0060
00C0
FFF8
0000
3FC0
00C0
3FC0
1800
1FE0
ENDCHAR
STARTCHAR C030534
ENCODING 12636
SWIDTH 1400 0
DWIDTH 14 0
BBX 13 11 1 -2
BITMAP
3FE0
0060
00C0
FFF8
0000
7E00
0DE0
7E60
3060
3E60
0060
ENDCHAR
STARTCHAR C030535
ENCODING 12637
SWIDTH 1400 0
DWIDTH 14 0
BBX 13 11 1 -2
BITMAP
3FE0
0060
00C0
FFF8
0000
0000
0FE0
0C60
0C60
0FE0
0C00
ENDCHAR
STARTCHAR C030536
ENCODING 12638
SWIDTH 1400 0
DWIDTH 14 0
BBX 13 11 1 -2
BITMAP
3FE0
0060
00C0
FFF8
0180
0CC0
0FC0
0CC0
0CC0
0FC0
0CC0
ENDCHAR
STARTCHAR C030537
ENCODING 12639
SWIDTH 1400 0
DWIDTH 14 0
BBX 13 11 1 -2
BITMAP
3FE0
0060
0060
00C0
FFF8
0600
0300
0700
0DC0
1860
3000
ENDCHAR
STARTCHAR C030540
ENCODING 12640
SWIDTH 1400 0
DWIDTH 14 0
BBX 13 11 1 -2
BITMAP
3FF0
0060
0060
FFF8
0060
0000
0F80
18C0
18C0
1DC0
0F80
ENDCHAR
STARTCHAR C030541
ENCODING 12641
SWIDTH 1400 0
DWIDTH 14 0
BBX 10 12 2 -2
BITMAP
01C0
00C0
FFC0
03C0
06C0
06C0
06C0
0FC0
F8C0
00C0
00C0
00C0
ENDCHAR
STARTCHAR C030542
ENCODING 12642
SWIDTH 1400 0
DWIDTH 14 0
BBX 10 12 2 -2
BITMAP
01C0
00C0
7EC0
0CC0
0CC0
18C0
30C0
60C0
C0C0
00C0
00C0
00C0
ENDCHAR
STARTCHAR C030543
ENCODING 12643
SWIDTH 1400 0
DWIDTH 14 0
BBX 11 12 1 -2
BITMAP
00E0
7F60
0660
0660
0C60
1860
3060
FFE0
0060
0060
0060
0060
ENDCHAR
STARTCHAR C030544
ENCODING 12644
SWIDTH 1400 0
DWIDTH 14 0
BBX 11 13 2 -2
BITMAP
01C0
00C0
FEC0
0CC0
0CC0
18C0
30C0
60C0
C0C0
38C0
1800
1800
1FE0
ENDCHAR
STARTCHAR C030545
ENCODING 12645
SWIDTH 1400 0
DWIDTH 14 0
BBX 12 11 1 -1
BITMAP
00E0
7F60
0660
0660
0C60
1860
3060
EFC0
0C00
0C00
0FF0
ENDCHAR
STARTCHAR C030546
ENCODING 12646
SWIDTH 1400 0
DWIDTH 14 0
BBX 11 12 2 -2
BITMAP
01C0
FEC0
0CC0
0CC0
18C0
30C0
60C0
FFC0
00C0
1FC0
1800
1FE0
ENDCHAR
STARTCHAR C030547
ENCODING 12647
SWIDTH 1400 0
DWIDTH 14 0
BBX 10 12 2 -2
BITMAP
01C0
FEC0
0CC0
0CC0
18C0
30C0
78C0
DBC0
FBC0
63C0
6FC0
7B00
ENDCHAR
STARTCHAR C030550
ENCODING 12648
SWIDTH 1400 0
DWIDTH 14 0
BBX 10 12 2 -2
BITMAP
01C0
FEC0
0CC0
0CC0
18C0
30C0
60C0
DFC0
18C0
1980
1FC0
1800
ENDCHAR
STARTCHAR C030551
ENCODING 12649
SWIDTH 1400 0
DWIDTH 14 0
BBX 10 12 2 -2
BITMAP
01C0
FEC0
0CC0
0CC0
18C0
30C0
71C0
D8C0
1FC0
18C0
1FC0
18C0
ENDCHAR
STARTCHAR C030552
ENCODING 12650
SWIDTH 1400 0
DWIDTH 14 0
BBX 11 12 2 -2
BITMAP
01C0
FEC0
0CC0
0CC0
18C0
30C0
66C0
C3C0
0700
0DC0
1860
7000
ENDCHAR
STARTCHAR C030553
ENCODING 12651
SWIDTH 1400 0
DWIDTH 14 0
BBX 10 13 2 -2
BITMAP
0180
00C0
FEC0
0CC0
0CC0
18C0
30C0
60C0
0300
0FC0
0CC0
0CC0
0780
ENDCHAR
STARTCHAR C030554
ENCODING 12652
SWIDTH 1400 0
DWIDTH 14 0
BBX 11 12 2 -2
BITMAP
01C0
FEC0
0CC0
0CC0
18C0
30C0
60C0
FF80
0600
0F80
18C0
7060
ENDCHAR
STARTCHAR C030555
ENCODING 12653
SWIDTH 1400 0
DWIDTH 14 0
BBX 12 12 2 -2
BITMAP
01C0
FEC0
0CC0
0CC0
18C0
30C0
60C0
FFC0
0180
0D80
0FF0
7C00
ENDCHAR
STARTCHAR C030556
ENCODING 12654
SWIDTH 1400 0
DWIDTH 14 0
BBX 13 12 1 -2
BITMAP
00E0
0060
7FE0
1B60
3360
3660
6678
CC60
1860
0060
0060
0060
ENDCHAR
STARTCHAR C030557
ENCODING 12655
SWIDTH 1400 0
DWIDTH 14 0
BBX 12 12 2 -2
BITMAP
00C0
FFC0
36C0
36C0
6CF0
D8C0
30C0
3FC0
00C0
00C0
00C0
00C0
ENDCHAR
STARTCHAR C030560
ENCODING 12656
SWIDTH 1400 0
DWIDTH 14 0
BBX 12 12 2 -2
BITMAP
00C0
FFC0
36C0
36C0
6CF0
D8C0
30C0
7FC0
0CC0
0CC0
0CC0
0CC0
ENDCHAR
STARTCHAR C030561
ENCODING 12657
SWIDTH 1400 0
DWIDTH 14 0
BBX 12 12 2 -2
BITMAP
00C0
00C0
FEC0
36C0
6CF0
D8E0
18C0
30C0
38C0
1800
1800
1FE0
ENDCHAR
STARTCHAR C030562
ENCODING 12658
SWIDTH 1400 0
DWIDTH 14 0
BBX 12 12 2 -2
BITMAP
00C0
FFC0
36C0
36C0
6CF0
D8C0
00C0
3FC0
0180
3FC0
1800
1FE0
ENDCHAR
STARTCHAR C030563
ENCODING 12659
SWIDTH 1400 0
DWIDTH 14 0
BBX 12 12 2 -2
BITMAP
00C0
FFC0
36C0
66C0
6CF0
D8C0
FC00
1FC0
FEC0
66C0
7FC0
3600
ENDCHAR
STARTCHAR C030564
ENCODING 12660
SWIDTH 1400 0
DWIDTH 14 0
BBX 13 12 1 -2
BITMAP
0060
7FE0
1B60
1B60
3678
6660
DC60
0FC0
0CC0
0CC0
0FC0
0C00
ENDCHAR
STARTCHAR C030565
ENCODING 12661
SWIDTH 1400 0
DWIDTH 14 0
BBX 13 12 1 -2
BITMAP
0060
7FE0
1B60
1B60
3678
6660
DCE0
0660
07E0
0660
07E0
0660
ENDCHAR
STARTCHAR C030566
ENCODING 12662
SWIDTH 1400 0
DWIDTH 14 0
BBX 13 12 1 -2
BITMAP
0060
0060
3FE0
1B60
3378
6660
CF60
1B60
0380
06E0
0C70
3800
ENDCHAR
STARTCHAR C030567
ENCODING 12663
SWIDTH 1400 0
DWIDTH 14 0
BBX 12 11 2 -1
BITMAP
00C0
FFC0
36C0
36C0
6CF0
D8C0
0180
00C0
19C0
3F60
6300
ENDCHAR
STARTCHAR C030570
ENCODING 12664
SWIDTH 1400 0
DWIDTH 14 0
BBX 13 12 1 -2
BITMAP
0060
7FE0
1B60
1B60
3678
6660
DC60
07C0
0C60
0C60
0E60
07C0
ENDCHAR
STARTCHAR C030571
ENCODING 12665
SWIDTH 1400 0
DWIDTH 14 0
BBX 13 12 1 -2
BITMAP
0060
7FE0
1B60
1B60
3678
6660
DC60
0FC0
0C00
0FE0
0C00
07F0
ENDCHAR
STARTCHAR C030572
ENCODING 12666
SWIDTH 1400 0
DWIDTH 14 0
BBX 12 12 1 -2
BITMAP
03F0
01B0
7FB0
37B0
37B0
6DF0
6DB0
D9B0
01B0
01B0
01B0
0030
ENDCHAR
STARTCHAR C030573
ENCODING 12667
SWIDTH 1400 0
DWIDTH 14 0
BBX 12 12 1 -2
BITMAP
0070
01B0
3FB0
37B0
37B0
EDF0
19B0
3FF0
0060
0060
0060
0060
ENDCHAR
STARTCHAR C030574
ENCODING 12668
SWIDTH 1400 0
DWIDTH 14 0
BBX 12 12 1 -2
BITMAP
03F0
01B0
7FB0
37B0
37B0
6DF0
D9B0
01B0
1DB0
0C00
0C00
0FF0
ENDCHAR
STARTCHAR C030575
ENCODING 12669
SWIDTH 1400 0
DWIDTH 14 0
BBX 13 13 1 -2
BITMAP
0070
03B0
1BB0
3FB0
37B0
6DF0
CDB0
19B0
0FF0
0030
0FF0
0600
07F8
ENDCHAR
STARTCHAR C030576
ENCODING 12670
SWIDTH 1400 0
DWIDTH 14 0
BBX 12 13 1 -2
BITMAP
0070
01B0
01B0
7FB0
37B0
6DF0
CDB0
19B0
07F0
0630
0660
07F0
0600
ENDCHAR
STARTCHAR C030577
ENCODING 12671
SWIDTH 1400 0
DWIDTH 14 0
BBX 0 0 0 0
BITMAP
ENDCHAR
STARTCHAR C031040
ENCODING 12832
SWIDTH 1400 0
DWIDTH 14 0
BBX 1 1 14 4
BITMAP
80
ENDCHAR
STARTCHAR C031041
ENCODING 12833
SWIDTH 1400 0
DWIDTH 14 0
BBX 12 13 1 -2
BITMAP
0070
03B0
1BB0
3FB0
37B0
6DF0
CDB0
1DF0
0660
07E0
0660
07E0
0660
ENDCHAR
STARTCHAR C031042
ENCODING 12834
SWIDTH 1400 0
DWIDTH 14 0
BBX 12 12 1 -2
BITMAP
01E0
01E0
3FE0
1FE0
37E0
6DE0
D9E0
01E0
0180
03C0
0E70
0030
ENDCHAR
STARTCHAR C031043
ENCODING 12835
SWIDTH 1400 0
DWIDTH 14 0
BBX 11 12 2 -2
BITMAP
03E0
0360
7F60
6F60
6FE0
DB60
3360
1CC0
0CC0
1FC0
3360
E000
ENDCHAR
STARTCHAR C031044
ENCODING 12836
SWIDTH 1400 0
DWIDTH 14 0
BBX 12 12 1 -2
BITMAP
01F0
01B0
3FB0
37B0
37F0
6DB0
D9B0
30C0
07E0
0660
0660
03E0
ENDCHAR
STARTCHAR C031045
ENCODING 12837
SWIDTH 1400 0
DWIDTH 14 0
BBX 12 12 2 -1
BITMAP
01C0
00C0
00C0
FFC0
36F0
36C0
6CC0
CCF0
18E0
30C0
00C0
00C0
ENDCHAR
STARTCHAR C031046
ENCODING 12838
SWIDTH 1400 0
DWIDTH 14 0
BBX 12 12 2 -2
BITMAP
01C0
00C0
FEC0
66F0
6CC0
D8C0
00F0
7FC0
00C0
00C0
00C0
00C0
ENDCHAR
STARTCHAR C031047
ENCODING 12839
SWIDTH 1400 0
DWIDTH 14 0
BBX 12 12 2 -2
BITMAP
01C0
33C0
7EC0
66F0
6CC0
D8F0
30E0
3FC0
3FC0
1800
1800
1FE0
ENDCHAR
STARTCHAR C031050
ENCODING 12840
SWIDTH 1400 0
DWIDTH 14 0
BBX 10 12 2 -1
BITMAP
01C0
00C0
FFC0
36C0
36C0
6FC0
CCC0
18C0
30C0
60C0
00C0
00C0
ENDCHAR
ENDFONT
